<svg width="209" height="130" viewBox="0 0 209 130" fill="none" xmlns="http://www.w3.org/2000/svg">
<path d="M0.760986 129C0.760986 129 44.137 80.0434 51.4931 80.297C58.8493 80.5507 64.1762 92.4728 67.2201 92.4728C70.264 92.4728 87.0056 93.031 93.3471 92.4728C99.6887 91.9145 107.806 72.6872 114.147 71.4189C120.489 70.1506 156.255 72.6872 160.06 71.4189C163.865 70.1506 207.494 22.7161 207.494 22.7161" stroke="#F76301" stroke-width="1.52196" stroke-linecap="round"/>
<path d="M139.26 68.1216C140.801 68.1216 142.05 69.3706 142.05 70.9116C142.05 72.1887 141.191 73.2628 140.021 73.5942V128.747H138.499V73.5942C137.328 73.2628 136.47 72.1887 136.47 70.9116C136.47 69.3706 137.719 68.1216 139.26 68.1216Z" fill="white" stroke="#F76301" stroke-width="1.52196"/>
<g filter="url(#filter0_d_27_7222)">
<rect x="85.9915" y="22.2388" width="106.282" height="36.5579" rx="5.18595" fill="white" shape-rendering="crispEdges"/>
<rect x="86.3156" y="22.5629" width="105.633" height="35.9096" rx="4.86183" stroke="#F9F9F9" stroke-width="0.648244" shape-rendering="crispEdges"/>
<path d="M94.9067 34.4248V34.0104L96.4629 32.307C96.6455 32.1075 96.7959 31.934 96.9141 31.7867C97.0322 31.6378 97.1197 31.4982 97.1765 31.3677C97.2348 31.2358 97.264 31.0976 97.264 30.9534C97.264 30.7876 97.2241 30.6441 97.1443 30.5229C97.066 30.4017 96.9586 30.3081 96.822 30.2421C96.6854 30.1761 96.5319 30.1431 96.3616 30.1431C96.1805 30.1431 96.0224 30.1807 95.8874 30.2559C95.7539 30.3295 95.6503 30.4331 95.5766 30.5666C95.5045 30.7002 95.4684 30.8567 95.4684 31.0363H94.9251C94.9251 30.76 94.9888 30.5175 95.1162 30.3088C95.2436 30.1001 95.417 29.9374 95.6365 29.8208C95.8575 29.7042 96.1053 29.6458 96.38 29.6458C96.6562 29.6458 96.901 29.7042 97.1143 29.8208C97.3277 29.9374 97.4949 30.0947 97.6162 30.2927C97.7374 30.4907 97.798 30.7109 97.798 30.9534C97.798 31.1268 97.7666 31.2964 97.7037 31.4621C97.6423 31.6263 97.5348 31.8097 97.3814 32.0123C97.2294 32.2133 97.0184 32.4589 96.7483 32.7489L95.6894 33.8815V33.9184H97.8809V34.4248H94.9067ZM100.138 29.6458C100.331 29.6474 100.525 29.6842 100.718 29.7563C100.912 29.8285 101.088 29.9482 101.248 30.1155C101.407 30.2812 101.535 30.5076 101.632 30.7945C101.729 31.0815 101.777 31.4414 101.777 31.8742C101.777 32.2932 101.737 32.6653 101.657 32.9907C101.579 33.3145 101.466 33.5876 101.317 33.8102C101.169 34.0327 100.99 34.2015 100.778 34.3166C100.568 34.4317 100.33 34.4893 100.064 34.4893C99.8004 34.4893 99.5649 34.4371 99.3577 34.3327C99.152 34.2268 98.9832 34.0803 98.8513 33.893C98.7208 33.7043 98.6372 33.4856 98.6003 33.237H99.162C99.2127 33.4534 99.3132 33.6321 99.4636 33.7733C99.6155 33.913 99.8158 33.9828 100.064 33.9828C100.428 33.9828 100.715 33.824 100.925 33.5063C101.137 33.1886 101.243 32.7397 101.243 32.1596H101.206C101.12 32.2885 101.018 32.3998 100.9 32.4934C100.782 32.587 100.651 32.6592 100.506 32.7098C100.362 32.7605 100.209 32.7858 100.046 32.7858C99.7759 32.7858 99.528 32.719 99.3024 32.5855C99.0784 32.4505 98.8988 32.2655 98.7638 32.0307C98.6303 31.7944 98.5635 31.5243 98.5635 31.2204C98.5635 30.9319 98.628 30.6679 98.7569 30.4285C98.8873 30.1876 99.0699 29.9958 99.3047 29.853C99.5411 29.7103 99.8189 29.6412 100.138 29.6458ZM100.138 30.1523C99.9447 30.1523 99.7705 30.2006 99.6155 30.2973C99.4621 30.3925 99.34 30.5214 99.2495 30.6841C99.1605 30.8452 99.116 31.024 99.116 31.2204C99.116 31.4169 99.159 31.5956 99.2449 31.7568C99.3324 31.9164 99.4513 32.0438 99.6017 32.1389C99.7536 32.2325 99.9263 32.2793 100.12 32.2793C100.265 32.2793 100.401 32.2509 100.527 32.1942C100.653 32.1358 100.763 32.0568 100.856 31.9571C100.951 31.8558 101.026 31.7414 101.08 31.6141C101.133 31.4851 101.16 31.3509 101.16 31.2112C101.16 31.027 101.116 30.8544 101.027 30.6933C100.939 30.5321 100.818 30.4017 100.663 30.3019C100.509 30.2022 100.335 30.1523 100.138 30.1523ZM106.004 29.7103H106.575V33.0804C106.575 33.3812 106.52 33.6368 106.409 33.847C106.299 34.0573 106.143 34.2169 105.942 34.3258C105.741 34.4348 105.504 34.4893 105.231 34.4893C104.973 34.4893 104.744 34.4425 104.542 34.3488C104.341 34.2537 104.183 34.1186 104.068 33.9437C103.953 33.7687 103.896 33.5608 103.896 33.3198H104.457C104.457 33.4534 104.49 33.57 104.556 33.6697C104.624 33.768 104.716 33.8447 104.833 33.8999C104.949 33.9552 105.082 33.9828 105.231 33.9828C105.395 33.9828 105.535 33.9483 105.65 33.8792C105.765 33.8102 105.852 33.7089 105.912 33.5754C105.974 33.4403 106.004 33.2753 106.004 33.0804V29.7103ZM109.679 32.9791V30.8889H110.223V34.4248H109.679V33.8263H109.643C109.56 34.0058 109.431 34.1585 109.256 34.2844C109.081 34.4087 108.86 34.4708 108.593 34.4708C108.372 34.4708 108.175 34.4225 108.004 34.3258C107.832 34.2276 107.697 34.0803 107.598 33.8838C107.5 33.6859 107.451 33.4365 107.451 33.1357V30.8889H107.994V33.0989C107.994 33.3567 108.066 33.5623 108.211 33.7158C108.357 33.8693 108.542 33.946 108.768 33.946C108.903 33.946 109.04 33.9115 109.18 33.8424C109.321 33.7733 109.439 33.6674 109.534 33.5247C109.631 33.382 109.679 33.2001 109.679 32.9791ZM111.567 29.7103V34.4248H111.023V29.7103H111.567ZM112.717 35.7508C112.625 35.7508 112.543 35.7431 112.471 35.7277C112.399 35.7139 112.349 35.7001 112.321 35.6863L112.459 35.2075C112.591 35.2412 112.708 35.2535 112.809 35.2443C112.91 35.2351 113 35.1898 113.078 35.1085C113.158 35.0287 113.231 34.899 113.297 34.7195L113.398 34.4432L112.091 30.8889H112.68L113.656 33.7066H113.693L114.669 30.8889H115.258L113.758 34.9405C113.69 35.1231 113.606 35.2742 113.507 35.3939C113.407 35.5152 113.291 35.605 113.159 35.6633C113.029 35.7216 112.881 35.7508 112.717 35.7508ZM118.938 34.4893C118.591 34.4893 118.296 34.3949 118.052 34.2061C117.808 34.0158 117.622 33.7403 117.493 33.3797C117.364 33.0175 117.299 32.5801 117.299 32.0676C117.299 31.558 117.364 31.123 117.493 30.7623C117.623 30.4001 117.81 30.1239 118.054 29.9336C118.3 29.7418 118.595 29.6458 118.938 29.6458C119.282 29.6458 119.576 29.7418 119.82 29.9336C120.065 30.1239 120.253 30.4001 120.382 30.7623C120.512 31.123 120.577 31.558 120.577 32.0676C120.577 32.5801 120.513 33.0175 120.384 33.3797C120.255 33.7403 120.069 34.0158 119.825 34.2061C119.581 34.3949 119.285 34.4893 118.938 34.4893ZM118.938 33.9828C119.282 33.9828 119.549 33.8171 119.739 33.4856C119.93 33.1541 120.025 32.6814 120.025 32.0676C120.025 31.6593 119.981 31.3117 119.894 31.0247C119.808 30.7378 119.683 30.5191 119.521 30.3687C119.36 30.2183 119.165 30.1431 118.938 30.1431C118.598 30.1431 118.331 30.3111 118.139 30.6472C117.948 30.9818 117.852 31.4552 117.852 32.0676C117.852 32.4758 117.895 32.8226 117.981 33.1081C118.067 33.3935 118.19 33.6107 118.351 33.7595C118.514 33.9084 118.71 33.9828 118.938 33.9828ZM122.795 34.4893C122.448 34.4893 122.153 34.3949 121.909 34.2061C121.665 34.0158 121.479 33.7403 121.35 33.3797C121.221 33.0175 121.156 32.5801 121.156 32.0676C121.156 31.558 121.221 31.123 121.35 30.7623C121.48 30.4001 121.667 30.1239 121.911 29.9336C122.157 29.7418 122.452 29.6458 122.795 29.6458C123.139 29.6458 123.433 29.7418 123.677 29.9336C123.923 30.1239 124.11 30.4001 124.239 30.7623C124.369 31.123 124.434 31.558 124.434 32.0676C124.434 32.5801 124.37 33.0175 124.241 33.3797C124.112 33.7403 123.926 34.0158 123.682 34.2061C123.438 34.3949 123.142 34.4893 122.795 34.4893ZM122.795 33.9828C123.139 33.9828 123.406 33.8171 123.596 33.4856C123.787 33.1541 123.882 32.6814 123.882 32.0676C123.882 31.6593 123.838 31.3117 123.751 31.0247C123.665 30.7378 123.54 30.5191 123.378 30.3687C123.217 30.2183 123.022 30.1431 122.795 30.1431C122.455 30.1431 122.188 30.3111 121.997 30.6472C121.805 30.9818 121.709 31.4552 121.709 32.0676C121.709 32.4758 121.752 32.8226 121.838 33.1081C121.924 33.3935 122.047 33.6107 122.208 33.7595C122.371 33.9084 122.567 33.9828 122.795 33.9828ZM125.52 33.8217C125.406 33.8217 125.309 33.781 125.227 33.6997C125.146 33.6183 125.105 33.5209 125.105 33.4073C125.105 33.2938 125.146 33.1963 125.227 33.115C125.309 33.0336 125.406 32.993 125.52 32.993C125.633 32.993 125.731 33.0336 125.812 33.115C125.893 33.1963 125.934 33.2938 125.934 33.4073C125.934 33.4825 125.915 33.5516 125.877 33.6145C125.84 33.6774 125.79 33.7281 125.727 33.7664C125.666 33.8033 125.597 33.8217 125.52 33.8217ZM125.52 31.4368C125.406 31.4368 125.309 31.3961 125.227 31.3148C125.146 31.2335 125.105 31.136 125.105 31.0224C125.105 30.9089 125.146 30.8114 125.227 30.7301C125.309 30.6488 125.406 30.6081 125.52 30.6081C125.633 30.6081 125.731 30.6488 125.812 30.7301C125.893 30.8114 125.934 30.9089 125.934 31.0224C125.934 31.0976 125.915 31.1667 125.877 31.2296C125.84 31.2925 125.79 31.3432 125.727 31.3816C125.666 31.4184 125.597 31.4368 125.52 31.4368ZM128.243 34.4893C127.896 34.4893 127.601 34.3949 127.357 34.2061C127.113 34.0158 126.926 33.7403 126.797 33.3797C126.669 33.0175 126.604 32.5801 126.604 32.0676C126.604 31.558 126.669 31.123 126.797 30.7623C126.928 30.4001 127.115 30.1239 127.359 29.9336C127.605 29.7418 127.899 29.6458 128.243 29.6458C128.587 29.6458 128.881 29.7418 129.125 29.9336C129.37 30.1239 129.558 30.4001 129.686 30.7623C129.817 31.123 129.882 31.558 129.882 32.0676C129.882 32.5801 129.818 33.0175 129.689 33.3797C129.56 33.7403 129.373 34.0158 129.129 34.2061C128.885 34.3949 128.59 34.4893 128.243 34.4893ZM128.243 33.9828C128.587 33.9828 128.854 33.8171 129.044 33.4856C129.235 33.1541 129.33 32.6814 129.33 32.0676C129.33 31.6593 129.286 31.3117 129.198 31.0247C129.112 30.7378 128.988 30.5191 128.826 30.3687C128.664 30.2183 128.47 30.1431 128.243 30.1431C127.902 30.1431 127.636 30.3111 127.444 30.6472C127.252 30.9818 127.157 31.4552 127.157 32.0676C127.157 32.4758 127.2 32.8226 127.285 33.1081C127.371 33.3935 127.495 33.6107 127.656 33.7595C127.819 33.9084 128.014 33.9828 128.243 33.9828ZM132.1 34.4893C131.753 34.4893 131.458 34.3949 131.214 34.2061C130.97 34.0158 130.783 33.7403 130.655 33.3797C130.526 33.0175 130.461 32.5801 130.461 32.0676C130.461 31.558 130.526 31.123 130.655 30.7623C130.785 30.4001 130.972 30.1239 131.216 29.9336C131.462 29.7418 131.756 29.6458 132.1 29.6458C132.444 29.6458 132.738 29.7418 132.982 29.9336C133.227 30.1239 133.415 30.4001 133.544 30.7623C133.674 31.123 133.739 31.558 133.739 32.0676C133.739 32.5801 133.675 33.0175 133.546 33.3797C133.417 33.7403 133.23 34.0158 132.986 34.2061C132.742 34.3949 132.447 34.4893 132.1 34.4893ZM132.1 33.9828C132.444 33.9828 132.711 33.8171 132.901 33.4856C133.092 33.1541 133.187 32.6814 133.187 32.0676C133.187 31.6593 133.143 31.3117 133.055 31.0247C132.97 30.7378 132.845 30.5191 132.683 30.3687C132.521 30.2183 132.327 30.1431 132.1 30.1431C131.759 30.1431 131.493 30.3111 131.301 30.6472C131.11 30.9818 131.014 31.4552 131.014 32.0676C131.014 32.4758 131.057 32.8226 131.143 33.1081C131.228 33.3935 131.352 33.6107 131.513 33.7595C131.676 33.9084 131.871 33.9828 132.1 33.9828Z" fill="#7A7A7A"/>
<path d="M95.1443 47.4248V46.5998L97.6968 43.9552C97.9693 43.6679 98.194 43.4163 98.3708 43.2002C98.55 42.9816 98.6839 42.7741 98.7722 42.5777C98.8606 42.3813 98.9048 42.1726 98.9048 41.9516C98.9048 41.7011 98.8459 41.485 98.7281 41.3033C98.6102 41.1192 98.4494 40.978 98.2456 40.8798C98.0417 40.7791 97.8122 40.7287 97.5568 40.7287C97.2867 40.7287 97.051 40.784 96.8496 40.8945C96.6483 41.005 96.4936 41.1609 96.3855 41.3623C96.2775 41.5636 96.2235 41.7993 96.2235 42.0694H95.1369C95.1369 41.6103 95.2425 41.2088 95.4537 40.865C95.6649 40.5213 95.9546 40.2548 96.3229 40.0658C96.6912 39.8742 97.1099 39.7785 97.5789 39.7785C98.0528 39.7785 98.4702 39.873 98.8312 40.0621C99.1946 40.2487 99.4782 40.5041 99.682 40.8282C99.8858 41.1499 99.9877 41.5133 99.9877 41.9184C99.9877 42.1983 99.9349 42.4721 99.8293 42.7398C99.7262 43.0074 99.5457 43.3058 99.2879 43.6348C99.0301 43.9614 98.6716 44.3579 98.2124 44.8245L96.7133 46.3935V46.4488H100.109V47.4248H95.1443ZM101.505 47.4248V46.5998L104.058 43.9552C104.33 43.6679 104.555 43.4163 104.732 43.2002C104.911 42.9816 105.045 42.7741 105.133 42.5777C105.222 42.3813 105.266 42.1726 105.266 41.9516C105.266 41.7011 105.207 41.485 105.089 41.3033C104.971 41.1192 104.81 40.978 104.606 40.8798C104.403 40.7791 104.173 40.7287 103.918 40.7287C103.648 40.7287 103.412 40.784 103.211 40.8945C103.009 41.005 102.854 41.1609 102.746 41.3623C102.638 41.5636 102.584 41.7993 102.584 42.0694H101.498C101.498 41.6103 101.603 41.2088 101.815 40.865C102.026 40.5213 102.315 40.2548 102.684 40.0658C103.052 39.8742 103.471 39.7785 103.94 39.7785C104.414 39.7785 104.831 39.873 105.192 40.0621C105.555 40.2487 105.839 40.5041 106.043 40.8282C106.247 41.1499 106.349 41.5133 106.349 41.9184C106.349 42.1983 106.296 42.4721 106.19 42.7398C106.087 43.0074 105.907 43.3058 105.649 43.6348C105.391 43.9614 105.032 44.3579 104.573 44.8245L103.074 46.3935V46.4488H106.47V47.4248H101.505ZM110.492 47.55C109.91 47.5476 109.413 47.3941 109.001 47.0896C108.588 46.7852 108.272 46.3419 108.054 45.76C107.835 45.178 107.726 44.477 107.726 43.6569C107.726 42.8392 107.835 42.1406 108.054 41.5611C108.275 40.9817 108.592 40.5397 109.004 40.2352C109.419 39.9307 109.915 39.7785 110.492 39.7785C111.069 39.7785 111.564 39.9319 111.977 40.2389C112.389 40.5434 112.705 40.9853 112.923 41.5648C113.144 42.1419 113.255 42.8392 113.255 43.6569C113.255 44.4795 113.145 45.1817 112.927 45.7637C112.708 46.3432 112.393 46.7864 111.98 47.0933C111.568 47.3978 111.072 47.55 110.492 47.55ZM110.492 46.5666C111.003 46.5666 111.402 46.3174 111.689 45.8189C111.979 45.3205 112.124 44.5998 112.124 43.6569C112.124 43.0307 112.058 42.5016 111.925 42.0694C111.795 41.6348 111.607 41.3058 111.361 41.0823C111.118 40.8564 110.829 40.7435 110.492 40.7435C109.984 40.7435 109.585 40.9939 109.295 41.4948C109.005 41.9958 108.859 42.7164 108.857 43.6569C108.857 44.2855 108.922 44.8171 109.052 45.2517C109.185 45.6839 109.373 46.0117 109.616 46.2351C109.859 46.4561 110.151 46.5666 110.492 46.5666ZM115.735 46.3935L115.68 46.795C115.643 47.0896 115.581 47.3966 115.492 47.7158C115.406 48.0374 115.317 48.3358 115.223 48.6108C115.132 48.8858 115.058 49.1043 114.999 49.2664H114.218C114.25 49.1142 114.294 48.9079 114.35 48.6476C114.407 48.3898 114.462 48.1013 114.516 47.7821C114.57 47.4629 114.611 47.1375 114.638 46.806L114.674 46.3935H115.735ZM119.628 47.5279C119.123 47.5279 118.671 47.4408 118.273 47.2664C117.878 47.0921 117.565 46.8502 117.334 46.5408C117.105 46.229 116.983 45.868 116.965 45.458H118.122C118.137 45.6814 118.212 45.8754 118.347 46.0399C118.484 46.202 118.663 46.3272 118.884 46.4156C119.105 46.504 119.351 46.5482 119.621 46.5482C119.918 46.5482 120.181 46.4966 120.409 46.3935C120.64 46.2904 120.821 46.1467 120.951 45.9626C121.081 45.776 121.146 45.5611 121.146 45.318C121.146 45.0651 121.081 44.8429 120.951 44.6514C120.823 44.4574 120.635 44.3051 120.387 44.1946C120.142 44.0841 119.844 44.0289 119.496 44.0289H118.859V43.1007H119.496C119.776 43.1007 120.021 43.0504 120.232 42.9497C120.446 42.849 120.613 42.7091 120.733 42.5298C120.854 42.3481 120.914 42.1357 120.914 41.8926C120.914 41.6594 120.861 41.4568 120.755 41.2849C120.652 41.1106 120.505 40.9743 120.313 40.8761C120.124 40.7778 119.901 40.7287 119.643 40.7287C119.398 40.7287 119.168 40.7742 118.954 40.865C118.743 40.9534 118.571 41.0811 118.439 41.2481C118.306 41.4126 118.235 41.6103 118.225 41.8411H117.124C117.136 41.4335 117.256 41.075 117.485 40.7656C117.716 40.4562 118.02 40.2143 118.398 40.04C118.776 39.8656 119.196 39.7785 119.658 39.7785C120.142 39.7785 120.559 39.873 120.91 40.0621C121.264 40.2487 121.536 40.4979 121.728 40.8098C121.922 41.1216 122.018 41.4629 122.015 41.8337C122.018 42.256 121.9 42.6145 121.662 42.9092C121.426 43.2039 121.111 43.4015 120.719 43.5022V43.5611C121.22 43.6372 121.608 43.8361 121.883 44.1578C122.16 44.4795 122.297 44.8785 122.295 45.3548C122.297 45.7698 122.182 46.1418 121.949 46.4709C121.718 46.7999 121.402 47.0589 121.002 47.248C120.602 47.4346 120.144 47.5279 119.628 47.5279ZM123.529 45.9515V45.0307L126.789 39.8816H127.514V41.237H127.054L124.722 44.9276V44.9865H129.19V45.9515H123.529ZM127.105 47.4248V45.6716L127.113 45.2517V39.8816H128.192V47.4248H127.105ZM130.474 47.4248V46.5998L133.026 43.9552C133.299 43.6679 133.523 43.4163 133.7 43.2002C133.879 42.9816 134.013 42.7741 134.102 42.5777C134.19 42.3813 134.234 42.1726 134.234 41.9516C134.234 41.7011 134.175 41.485 134.057 41.3033C133.939 41.1192 133.779 40.978 133.575 40.8798C133.371 40.7791 133.141 40.7287 132.886 40.7287C132.616 40.7287 132.38 40.784 132.179 40.8945C131.978 41.005 131.823 41.1609 131.715 41.3623C131.607 41.5636 131.553 41.7993 131.553 42.0694H130.466C130.466 41.6103 130.572 41.2088 130.783 40.865C130.994 40.5213 131.284 40.2548 131.652 40.0658C132.021 39.8742 132.439 39.7785 132.908 39.7785C133.382 39.7785 133.8 39.873 134.16 40.0621C134.524 40.2487 134.807 40.5041 135.011 40.8282C135.215 41.1499 135.317 41.5133 135.317 41.9184C135.317 42.1983 135.264 42.4721 135.159 42.7398C135.055 43.0074 134.875 43.3058 134.617 43.6348C134.359 43.9614 134.001 44.3579 133.542 44.8245L132.043 46.3935V46.4488H135.439V47.4248H130.474ZM137.575 47.4948C137.373 47.4948 137.2 47.4236 137.055 47.2812C136.911 47.1363 136.838 46.9619 136.838 46.7581C136.838 46.5568 136.911 46.3849 137.055 46.2425C137.2 46.0976 137.373 46.0252 137.575 46.0252C137.776 46.0252 137.949 46.0976 138.094 46.2425C138.239 46.3849 138.311 46.5568 138.311 46.7581C138.311 46.8932 138.277 47.0172 138.208 47.1301C138.142 47.2406 138.054 47.329 137.943 47.3953C137.833 47.4616 137.71 47.4948 137.575 47.4948ZM139.834 47.4248L143.126 40.9129V40.8577H139.318V39.8816H144.305V40.8908L141.023 47.4248H139.834ZM148.057 47.5279C147.721 47.523 147.389 47.4616 147.063 47.3438C146.739 47.2259 146.444 47.0295 146.179 46.7545C145.914 46.4794 145.701 46.1099 145.542 45.6458C145.384 45.1817 145.306 44.6022 145.306 43.9073C145.306 43.2493 145.371 42.6649 145.501 42.1541C145.634 41.6434 145.824 41.2125 146.072 40.8613C146.32 40.5077 146.62 40.2389 146.971 40.0547C147.322 39.8706 147.716 39.7785 148.153 39.7785C148.602 39.7785 149.001 39.8669 149.35 40.0437C149.699 40.2205 149.981 40.4648 150.197 40.7766C150.416 41.0885 150.554 41.4433 150.613 41.8411H149.49C149.414 41.5268 149.263 41.2702 149.037 41.0713C148.811 40.8724 148.516 40.7729 148.153 40.7729C147.6 40.7729 147.17 41.0136 146.86 41.4948C146.553 41.9761 146.399 42.6452 146.396 43.5022H146.451C146.581 43.2886 146.741 43.1069 146.93 42.9571C147.122 42.8048 147.335 42.6882 147.571 42.6072C147.809 42.5237 148.06 42.4819 148.322 42.4819C148.759 42.4819 149.155 42.5888 149.508 42.8024C149.864 43.0136 150.148 43.3058 150.359 43.679C150.57 44.0522 150.676 44.4795 150.676 44.9607C150.676 45.442 150.567 45.8779 150.348 46.2683C150.132 46.6587 149.828 46.9681 149.435 47.1964C149.042 47.4223 148.583 47.5328 148.057 47.5279ZM148.054 46.5703C148.343 46.5703 148.602 46.4991 148.831 46.3567C149.059 46.2143 149.24 46.0227 149.372 45.7821C149.505 45.5415 149.571 45.2726 149.571 44.9755C149.571 44.6857 149.506 44.4218 149.376 44.1836C149.248 43.9454 149.071 43.7563 148.845 43.6164C148.622 43.4764 148.367 43.4064 148.079 43.4064C147.861 43.4064 147.658 43.4482 147.472 43.5317C147.287 43.6151 147.125 43.7306 146.985 43.8779C146.845 44.0252 146.735 44.1946 146.654 44.3862C146.575 44.5752 146.536 44.7754 146.536 44.9865C146.536 45.2689 146.601 45.5304 146.731 45.771C146.864 46.0117 147.044 46.2057 147.273 46.353C147.503 46.4979 147.764 46.5703 148.054 46.5703Z" fill="#242424"/>
<rect x="155.308" y="37.4248" width="29.186" height="13.593" rx="2.59298" fill="#E0F0E4"/>
<path d="M160.276 45.7709V42.0362H161.019V45.7709H160.276ZM158.782 44.2737V43.5334H162.517V44.2737H158.782ZM165.677 46.7985C165.297 46.7985 164.958 46.7332 164.66 46.6024C164.364 46.4717 164.129 46.2903 163.956 46.0582C163.784 45.8243 163.692 45.5536 163.679 45.2461H164.547C164.558 45.4137 164.614 45.5591 164.715 45.6825C164.819 45.8041 164.953 45.898 165.119 45.9643C165.284 46.0306 165.469 46.0637 165.671 46.0637C165.894 46.0637 166.091 46.0251 166.262 45.9477C166.435 45.8704 166.571 45.7626 166.668 45.6245C166.766 45.4846 166.815 45.3234 166.815 45.1411C166.815 44.9514 166.766 44.7847 166.668 44.6411C166.573 44.4956 166.432 44.3814 166.246 44.2986C166.062 44.2157 165.839 44.1743 165.577 44.1743H165.099V43.4781H165.577C165.787 43.4781 165.971 43.4404 166.13 43.3649C166.29 43.2894 166.415 43.1844 166.505 43.05C166.596 42.9137 166.641 42.7544 166.641 42.5721C166.641 42.3971 166.601 42.2452 166.522 42.1163C166.445 41.9855 166.334 41.8833 166.191 41.8096C166.049 41.736 165.881 41.6991 165.688 41.6991C165.504 41.6991 165.331 41.7332 165.171 41.8014C165.013 41.8676 164.884 41.9634 164.784 42.0886C164.685 42.212 164.632 42.3603 164.624 42.5334H163.798C163.807 42.2277 163.898 41.9588 164.069 41.7268C164.242 41.4947 164.47 41.3133 164.754 41.1826C165.038 41.0518 165.353 40.9864 165.699 40.9864C166.062 40.9864 166.375 41.0573 166.638 41.1991C166.903 41.3391 167.108 41.526 167.251 41.7599C167.397 41.9938 167.469 42.2498 167.467 42.5279C167.469 42.8446 167.38 43.1135 167.202 43.3345C167.025 43.5555 166.789 43.7037 166.494 43.7792V43.8234C166.87 43.8805 167.161 44.0297 167.367 44.2709C167.575 44.5122 167.679 44.8114 167.677 45.1687C167.679 45.48 167.592 45.759 167.417 46.0057C167.244 46.2525 167.007 46.4468 166.707 46.5886C166.407 46.7286 166.063 46.7985 165.677 46.7985ZM169.109 46.7737C168.958 46.7737 168.828 46.7203 168.72 46.6135C168.611 46.5048 168.557 46.374 168.557 46.2212C168.557 46.0702 168.611 45.9413 168.72 45.8345C168.828 45.7258 168.958 45.6715 169.109 45.6715C169.26 45.6715 169.39 45.7258 169.499 45.8345C169.607 45.9413 169.661 46.0702 169.661 46.2212C169.661 46.3225 169.636 46.4155 169.584 46.5002C169.534 46.5831 169.468 46.6494 169.385 46.6991C169.302 46.7488 169.21 46.7737 169.109 46.7737ZM170.638 45.6162V44.9256L173.083 41.0638H173.627V42.0804H173.282L171.533 44.8483V44.8925H174.884V45.6162H170.638ZM173.32 46.7212V45.4063L173.326 45.0914V41.0638H174.135V46.7212H173.32ZM178.8 45.6604V45.3621C178.8 45.1485 178.844 44.9533 178.932 44.7765C179.022 44.5978 179.153 44.4551 179.324 44.3483C179.497 44.2396 179.707 44.1853 179.951 44.1853C180.202 44.1853 180.412 44.2387 180.581 44.3455C180.751 44.4523 180.879 44.5951 180.965 44.7737C181.054 44.9523 181.098 45.1485 181.098 45.3621V45.6604C181.098 45.8741 181.054 46.0702 180.965 46.2488C180.877 46.4256 180.747 46.5683 180.576 46.677C180.406 46.7838 180.198 46.8372 179.951 46.8372C179.703 46.8372 179.493 46.7838 179.322 46.677C179.15 46.5683 179.021 46.4256 178.932 46.2488C178.844 46.0702 178.8 45.8741 178.8 45.6604ZM179.443 45.3621V45.6604C179.443 45.8188 179.481 45.9625 179.556 46.0914C179.632 46.2203 179.764 46.2847 179.951 46.2847C180.137 46.2847 180.267 46.2203 180.341 46.0914C180.415 45.9625 180.451 45.8188 180.451 45.6604V45.3621C180.451 45.2037 180.416 45.0601 180.344 44.9312C180.274 44.8022 180.143 44.7378 179.951 44.7378C179.767 44.7378 179.637 44.8022 179.559 44.9312C179.482 45.0601 179.443 45.2037 179.443 45.3621ZM175.954 42.4229V42.1246C175.954 41.9109 175.998 41.7148 176.087 41.5362C176.177 41.3575 176.308 41.2148 176.479 41.108C176.652 41.0012 176.861 40.9478 177.106 40.9478C177.357 40.9478 177.567 41.0012 177.736 41.108C177.905 41.2148 178.033 41.3575 178.12 41.5362C178.207 41.7148 178.25 41.9109 178.25 42.1246V42.4229C178.25 42.6365 178.206 42.8326 178.117 43.0113C178.031 43.1881 177.902 43.3308 177.73 43.4395C177.561 43.5463 177.353 43.5997 177.106 43.5997C176.856 43.5997 176.645 43.5463 176.474 43.4395C176.304 43.3308 176.175 43.1881 176.087 43.0113C175.998 42.8326 175.954 42.6365 175.954 42.4229ZM176.601 42.1246V42.4229C176.601 42.5813 176.637 42.7249 176.711 42.8538C176.787 42.9827 176.918 43.0472 177.106 43.0472C177.29 43.0472 177.419 42.9827 177.493 42.8538C177.568 42.7249 177.606 42.5813 177.606 42.4229V42.1246C177.606 41.9662 177.57 41.8225 177.498 41.6936C177.427 41.5647 177.296 41.5002 177.106 41.5002C176.922 41.5002 176.791 41.5647 176.714 41.6936C176.638 41.8225 176.601 41.9662 176.601 42.1246ZM176.217 46.7212L180.106 41.0638H180.766L176.877 46.7212H176.217Z" fill="#99DD88"/>
</g>
<defs>
<filter id="filter0_d_27_7222" x="83.3985" y="20.9423" width="111.467" height="41.7438" filterUnits="userSpaceOnUse" color-interpolation-filters="sRGB">
<feFlood flood-opacity="0" result="BackgroundImageFix"/>
<feColorMatrix in="SourceAlpha" type="matrix" values="0 0 0 0 0 0 0 0 0 0 0 0 0 0 0 0 0 0 127 0" result="hardAlpha"/>
<feOffset dy="1.29649"/>
<feGaussianBlur stdDeviation="1.29649"/>
<feComposite in2="hardAlpha" operator="out"/>
<feColorMatrix type="matrix" values="0 0 0 0 0 0 0 0 0 0 0 0 0 0 0 0 0 0 0.04 0"/>
<feBlend mode="normal" in2="BackgroundImageFix" result="effect1_dropShadow_27_7222"/>
<feBlend mode="normal" in="SourceGraphic" in2="effect1_dropShadow_27_7222" result="shape"/>
</filter>
</defs>
</svg>
