<svg width="589" height="760" viewBox="0 0 589 760" fill="none" xmlns="http://www.w3.org/2000/svg">
<path d="M48.5044 61.0251V61.0368C48.5058 61.032 48.5073 61.0271 48.5088 61.0223C48.5073 61.0232 48.5058 61.0242 48.5044 61.0251ZM48.5044 61.0251C48.3776 61.1082 48.2533 61.1898 48.132 61.2696C48.1477 61.2173 48.1635 61.165 48.1793 61.1126C48.2846 61.0452 48.3927 60.9778 48.5044 60.9104V61.0251ZM219.788 50.584H219.73C219.808 35.1461 219.892 19.7086 219.982 4.27151H220.27C220.181 19.6883 220.097 35.1055 220.019 50.5231L219.788 50.584ZM212.888 52.6456C212.792 52.6701 212.696 52.6919 212.599 52.7103C212.809 38.7712 213.034 24.832 213.273 10.8928C213.371 10.8805 213.467 10.871 213.561 10.8645C213.323 24.7916 213.098 38.7186 212.888 52.6456ZM205.803 49.1579C205.727 49.1268 205.65 49.0956 205.574 49.0649C205.635 46.6635 205.697 44.2621 205.759 41.8607C205.863 41.8164 205.96 41.7707 206.051 41.7238C205.986 44.2094 205.922 46.6951 205.859 49.1808C205.84 49.1732 205.822 49.1655 205.803 49.1579ZM198.939 44.9514H198.65C198.662 44.6321 198.673 44.3129 198.685 43.9937C198.787 43.9628 198.884 43.9239 198.978 43.8789C198.965 44.2364 198.952 44.5939 198.939 44.9514ZM198.981 35.9429C198.911 37.8285 198.841 39.7141 198.772 41.5997C198.874 41.576 198.971 41.5469 199.064 41.5129C199.135 39.5791 199.206 37.6453 199.278 35.7114C199.181 35.7902 199.082 35.8672 198.981 35.9429ZM199.369 25.6919C199.344 26.3359 199.319 26.98 199.295 27.624C199.347 27.6359 199.396 27.643 199.445 27.6451C199.49 27.6471 199.535 27.6449 199.583 27.6385C199.609 26.9348 199.636 26.2311 199.663 25.5275C199.558 25.5756 199.459 25.63 199.369 25.6919ZM199.496 22.3954C199.481 22.769 199.467 23.1426 199.453 23.5162H199.741C199.758 23.0873 199.774 22.6583 199.791 22.2294C199.692 22.2837 199.593 22.3389 199.496 22.3954ZM206.51 14.2362C206.504 14.4551 206.498 14.674 206.492 14.893C206.595 14.8251 206.693 14.7632 206.785 14.7068C206.795 14.3479 206.805 13.989 206.816 13.63L206.761 13.6592L206.613 14.1286C206.578 14.1646 206.544 14.2005 206.51 14.2362ZM206.448 16.4384C206.544 16.4014 206.641 16.3677 206.739 16.3365C206.644 19.7206 206.55 23.1048 206.458 26.489H206.169C206.261 23.1388 206.354 19.7886 206.448 16.4384ZM206.404 28.4695C206.414 28.0787 206.425 27.6879 206.436 27.2972C206.322 27.3441 206.226 27.3844 206.144 27.4195C206.137 27.6868 206.129 27.9542 206.122 28.2215L206.404 28.4695ZM206.108 28.7613C206.202 28.7103 206.3 28.648 206.401 28.5719C206.307 32.0519 206.214 35.5319 206.122 39.0119C206.023 38.9935 205.927 38.9756 205.835 38.9583C205.925 35.5593 206.015 32.1603 206.108 28.7613ZM226.567 2.23712C226.679 21.3416 226.782 40.4466 226.875 59.5522C226.976 59.6698 227.073 59.7924 227.165 59.9216C227.071 40.6911 226.968 21.4611 226.855 2.23175C226.771 2.23516 226.679 2.23655 226.567 2.23712ZM227.413 514.178H227.701C227.676 524.014 227.649 533.85 227.619 543.686L227.332 543.268C227.361 533.571 227.388 523.875 227.413 514.178ZM233.131 1.9246C233.492 22.4296 233.821 42.9345 234.12 63.4393C234.216 63.4955 234.313 63.5507 234.41 63.6045C234.111 43.0447 233.781 22.4847 233.42 1.9246H233.131ZM235.688 512.831C235.786 512.797 235.882 512.764 235.976 512.73C235.879 525.589 235.77 538.447 235.648 551.305C235.554 551.179 235.459 551.05 235.363 550.92C235.483 538.224 235.591 525.527 235.688 512.831ZM239.506 0.516446C240.129 21.6909 240.698 42.8653 241.211 64.0396H241.499C240.986 42.8653 240.418 21.6909 239.794 0.516446H239.506ZM243.918 503.978C244.017 503.915 244.114 503.855 244.208 503.797C243.981 522.882 243.709 541.967 243.392 561.051C243.307 560.855 243.214 560.656 243.113 560.457C243.425 541.631 243.694 522.805 243.918 503.978ZM248.572 68.1959C248.665 70.9726 248.757 73.7493 248.847 76.5261C248.953 76.6078 249.051 76.6848 249.143 76.7584C248.317 51.3443 247.378 25.9303 246.328 0.516446H246.04C246.965 22.9038 247.803 45.2912 248.555 67.6788L248.656 68.1076C248.628 68.1375 248.6 68.1668 248.572 68.1959ZM252.801 1.76813H252.918C254.489 31.3873 255.865 61.0067 257.046 90.6263C256.945 90.4596 256.842 90.2931 256.737 90.1268C256.628 87.3739 256.516 84.621 256.403 81.8681C256.531 81.5462 256.571 81.1908 256.362 80.8851C255.27 54.4484 254.023 28.012 252.619 1.57561L252.801 1.76813ZM259.167 0.829368L259.068 0.81433C259.062 0.726572 259.056 0.638813 259.051 0.551055L259.341 0.581785C259.35 0.716466 259.359 0.851148 259.367 0.985829C259.368 0.999672 259.369 1.01352 259.37 1.02736C261.447 33.1365 263.244 65.2439 264.761 97.3499C264.675 97.383 264.58 97.4138 264.477 97.442C262.958 65.2938 261.159 33.1442 259.079 0.992873C259.079 0.990525 259.079 0.988177 259.079 0.985829C259.077 0.9662 259.076 0.946571 259.075 0.926943L259.167 0.829368ZM259.048 0.516446L259.049 0.520329L259.34 0.558808C259.339 0.544688 259.338 0.530567 259.337 0.516446H259.048ZM259.038 0.359985C259.039 0.369907 259.039 0.37983 259.04 0.389752L259.332 0.441205C259.33 0.414132 259.329 0.387059 259.327 0.359985L259.038 0.359985ZM265.549 0.761913C265.645 0.769028 265.742 0.775726 265.84 0.782119C265.869 1.16294 265.898 1.54377 265.928 1.9246H265.639C265.609 1.53703 265.579 1.14947 265.549 0.761913ZM272.058 1.16334C272.156 1.17621 272.253 1.18903 272.351 1.20171C272.355 1.24859 272.359 1.29546 272.364 1.34234C272.267 1.33107 272.17 1.32072 272.071 1.31063C272.067 1.26153 272.063 1.21243 272.058 1.16334ZM278.854 1.76813C278.879 2.01917 278.905 2.27021 278.93 2.52125C278.833 2.50861 278.735 2.49597 278.637 2.48333C278.612 2.24493 278.588 2.00653 278.564 1.76813H278.854ZM284.927 2.60262L285.223 2.65478C285.233 2.7501 285.244 2.84542 285.255 2.94074L284.958 2.88374C284.948 2.79003 284.937 2.69633 284.927 2.60262ZM291.508 4.12843C291.543 4.40805 291.578 4.68768 291.613 4.96731C291.706 5.00765 291.808 5.05144 291.92 5.09918C291.882 4.79529 291.844 4.49139 291.806 4.1875L291.508 4.12843ZM291.377 3.0879C291.401 3.27997 291.425 3.47203 291.449 3.6641C291.55 3.68871 291.65 3.71342 291.749 3.73815C291.724 3.5372 291.699 3.33625 291.673 3.13529C291.574 3.11856 291.475 3.1027 291.377 3.0879ZM297.901 4.22907L298.201 4.29248C298.287 4.90981 298.372 5.52714 298.457 6.14448L298.153 6.05274C298.069 5.44485 297.986 4.83696 297.901 4.22907ZM304.563 5.41089C304.612 5.42251 304.661 5.43407 304.71 5.44554C304.719 5.50726 304.728 5.56898 304.738 5.6307L304.435 5.55797C304.426 5.49672 304.416 5.43548 304.407 5.37423C304.459 5.38647 304.511 5.39871 304.563 5.41089ZM304.817 6.15708C304.795 6.0118 304.773 5.86652 304.751 5.72124C304.65 5.69616 304.549 5.67029 304.448 5.64334C304.523 6.13908 304.597 6.63481 304.672 7.13055C304.763 7.15286 304.863 7.17766 304.975 7.20524C304.923 6.85828 304.871 6.51132 304.818 6.16437C304.8 6.1593 304.782 6.15419 304.764 6.14904L304.817 6.15708ZM311.13 7.55719L311.368 7.64116C311.43 8.02096 311.492 8.40075 311.554 8.78055L311.247 8.68769C311.184 8.30512 311.122 7.92255 311.059 7.53998L311.13 7.55719ZM311.946 11.1956C311.921 11.0421 311.897 10.8887 311.872 10.7353L311.559 10.608C311.588 10.7864 311.617 10.9648 311.645 11.1432C311.758 11.1657 311.857 11.1829 311.946 11.1956ZM317.508 8.76129C317.556 9.03086 317.603 9.30044 317.651 9.57002L317.966 9.6983C317.918 9.42266 317.869 9.14701 317.821 8.87136L317.508 8.76129ZM317.337 7.79008C317.378 8.02057 317.419 8.25106 317.459 8.48155L317.495 8.49596L317.772 8.59335C317.728 8.34335 317.684 8.09336 317.64 7.84336L317.337 7.79008ZM323.861 9.43472L324.033 9.48795C324.105 9.87023 324.177 10.2525 324.249 10.6348L323.936 10.5301C323.867 10.165 323.798 9.79986 323.729 9.43472H323.861ZM324.518 12.0581C324.482 11.869 324.447 11.68 324.411 11.491L324.1 11.3997C324.139 11.6096 324.179 11.8194 324.218 12.0293L324.518 12.0581ZM325.153 15.452C325.068 14.9943 324.982 14.5366 324.897 14.0788L324.583 13.9743C324.669 14.4343 324.755 14.8943 324.841 15.3543C324.943 15.3872 325.047 15.4198 325.153 15.452ZM331.097 15.295C331.17 15.6632 331.244 16.0314 331.318 16.3996L331.643 16.5543C331.565 16.1647 331.487 15.775 331.409 15.3854C331.3 15.3517 331.196 15.3218 331.097 15.295ZM330.763 13.6342C330.833 13.98 330.902 14.3258 330.972 14.6717L331.115 14.7544L331.298 14.8286C331.222 14.4501 331.146 14.0716 331.07 13.6931L330.763 13.6342ZM330.389 11.7769C330.406 11.8633 330.424 11.9497 330.441 12.0361L330.747 12.095C330.732 12.0196 330.717 11.9442 330.702 11.8689L330.389 11.7769ZM330.076 10.235C330.092 10.3128 330.107 10.3906 330.123 10.4684C330.227 10.5071 330.335 10.5617 330.453 10.6385C330.431 10.5303 330.409 10.422 330.387 10.3138L330.076 10.235ZM336.838 13.1869C336.859 13.2855 336.88 13.384 336.902 13.4825L337.224 13.605C337.202 13.5049 337.18 13.4047 337.159 13.3046C337.051 13.2645 336.944 13.2253 336.838 13.1869ZM336.512 11.6795L336.827 11.7722C336.833 11.801 336.84 11.8297 336.846 11.8585C336.848 11.8688 336.85 11.8791 336.853 11.8894C336.881 12.0224 336.91 12.1555 336.939 12.2885L336.623 12.193C336.595 12.0642 336.567 11.9354 336.539 11.8066C336.538 11.7995 336.536 11.7924 336.534 11.7853C336.527 11.7501 336.519 11.7148 336.512 11.6795ZM342.976 13.441C342.98 13.455 342.983 13.469 342.986 13.483L343.315 13.6219C343.308 13.5937 343.302 13.5655 343.295 13.5373L342.976 13.441ZM349.448 15.2117C349.554 15.2432 349.661 15.2753 349.77 15.308C349.793 15.4019 349.816 15.4958 349.839 15.5897L349.515 15.4854C349.493 15.3942 349.471 15.3029 349.448 15.2117ZM355.936 17.2159C356.049 17.2511 356.157 17.2849 356.261 17.3173C356.277 17.3798 356.293 17.4422 356.31 17.5046L355.984 17.3998C355.968 17.3385 355.952 17.2772 355.936 17.2159ZM362.366 19.1614L362.696 19.2724C362.711 19.3243 362.725 19.3762 362.739 19.428L362.407 19.3111C362.393 19.2612 362.38 19.2113 362.366 19.1614ZM362.779 19.575C362.77 19.5429 362.761 19.5108 362.753 19.4787L362.415 19.3416C362.427 19.3837 362.438 19.4259 362.45 19.468L362.779 19.575ZM362.849 19.832C362.839 19.7958 362.829 19.7597 362.819 19.7235L362.493 19.6248C362.501 19.6549 362.509 19.685 362.517 19.7151L362.849 19.832ZM368.977 22.3785L369.316 22.5085C369.337 22.5837 369.359 22.6588 369.38 22.7339H369.31L369.411 22.8408C369.427 22.8965 369.443 22.9523 369.459 23.008L369.133 22.9219C369.081 22.7408 369.029 22.5596 368.977 22.3785ZM369.878 24.4738C369.794 24.1794 369.71 23.8851 369.626 23.5908L369.289 23.4634C369.375 23.7663 369.462 24.0692 369.548 24.372L369.878 24.4738ZM376.958 29.6106C377.021 29.8239 377.085 30.0371 377.148 30.2503L377.488 30.377C377.436 30.204 377.385 30.0311 377.334 29.8581C377.181 29.7598 377.057 29.6785 376.958 29.6106ZM376.514 28.1243C376.553 28.2532 376.591 28.3822 376.63 28.5112L376.978 28.6662C376.937 28.5284 376.896 28.3906 376.855 28.2528L376.514 28.1243ZM377.748 32.1216L378.121 32.5152C378.497 33.7921 378.872 35.069 379.244 36.3459C379.144 36.2956 379.04 36.2435 378.933 36.1896L378.896 36.1835C378.498 34.82 378.097 33.4565 377.694 32.093L377.748 32.1216ZM383.343 31.6763C383.543 32.3163 383.743 32.9563 383.942 33.5962L384.311 33.808C384.107 33.152 383.903 32.4959 383.698 31.8399C383.58 31.7855 383.462 31.731 383.343 31.6763ZM381.629 26.2415C381.849 26.932 382.068 27.6226 382.286 28.3132L382.644 28.4852C382.422 27.7827 382.2 27.0802 381.976 26.3777C381.861 26.3305 381.745 26.2848 381.629 26.2415ZM388.219 29.112L388.579 29.273C388.786 29.896 388.993 30.5191 389.199 31.1421L388.844 30.992C388.637 30.3653 388.428 29.7387 388.219 29.112ZM394.897 32.2044L395.264 32.3748C395.415 32.8094 395.566 33.2439 395.717 33.6785C395.759 33.7995 395.801 33.9206 395.843 34.0417C397.221 38.016 398.573 41.9904 399.9 45.9647L399.587 45.9441C398.243 41.921 396.874 37.8979 395.478 33.8749C395.438 33.7587 395.398 33.6426 395.357 33.5264C395.204 33.0858 395.051 32.6451 394.897 32.2044ZM401.502 35.3255L401.875 35.5028C402.046 35.9717 402.216 36.4407 402.386 36.9096C402.412 36.981 402.438 37.0525 402.464 37.1239C402.583 37.4525 402.702 37.7811 402.821 38.1097L402.619 38.0671L402.866 38.2327C404.261 42.0942 405.631 45.9557 406.976 49.8171L406.912 49.8017L406.598 49.6138C405.126 45.3915 403.624 41.1692 402.091 36.947C402.069 36.8845 402.046 36.822 402.023 36.7594C401.85 36.2815 401.676 35.8035 401.502 35.3255ZM408.245 38.8494L408.484 38.9913C408.633 39.3827 408.782 39.7741 408.93 40.1655L408.555 39.9958C408.396 39.5759 408.236 39.1561 408.077 38.7362L408.245 38.8494ZM409.832 42.5543C409.652 42.0776 409.473 41.6008 409.293 41.1241L408.905 40.9192C409.099 41.4339 409.294 41.9487 409.487 42.4634L409.832 42.5543ZM416.085 45.4809L416.459 45.639C417.247 47.6454 418.028 49.6518 418.801 51.6582L418.419 51.4748C417.649 49.4768 416.871 47.4788 416.085 45.4809ZM421.426 45.5889C421.464 45.6814 421.502 45.774 421.541 45.8665L421.569 45.8901L421.964 46.1304C421.92 46.0234 421.876 45.9165 421.831 45.8095L421.426 45.5889ZM428.094 49.0314C428.109 49.0662 428.124 49.101 428.139 49.1358L428.559 49.3746C428.542 49.336 428.525 49.2974 428.509 49.2587L428.094 49.0314ZM434.916 52.8851C434.93 52.9157 434.943 52.9464 434.957 52.977L435.389 53.2295C435.378 53.204 435.367 53.1784 435.355 53.1529L434.916 52.8851ZM434.962 52.9881C435.11 53.0822 435.259 53.1767 435.408 53.2717C470.685 131.885 492.346 210.514 500.392 289.146L500.095 289.074C492.03 210.372 470.319 131.673 434.962 52.9881ZM442.047 57.5941C442.201 57.6967 442.356 57.7996 442.511 57.9027C479.799 138.08 502.189 218.259 509.682 298.438L509.388 298.392C501.878 218.126 479.431 137.861 442.047 57.5941ZM449.268 62.4538C449.429 62.5632 449.59 62.6727 449.75 62.7822C487.277 140.598 510.015 218.403 517.964 296.206L517.654 296.006C509.671 218.165 486.877 140.318 449.268 62.4538ZM456.375 67.3338C456.541 67.449 456.708 67.564 456.874 67.6788C495.035 143.902 518.219 220.114 526.422 296.325L526.086 295.895C517.825 219.718 494.589 143.535 456.375 67.3338ZM463.732 72.4376C463.904 72.557 464.075 72.6759 464.245 72.7943C504.37 150.278 528.199 227.751 535.731 305.223L535.382 304.612C527.769 227.231 503.886 149.844 463.732 72.4376ZM471.451 78.1673C471.64 78.3126 471.828 78.4562 472.013 78.5984C522.003 172.036 547.002 265.48 547.002 358.928C547.002 367.998 546.766 377.068 546.295 386.138L545.993 386.39C546.473 377.236 546.713 368.082 546.713 358.928C546.713 265.347 521.628 171.76 471.451 78.1673ZM479.574 84.631C479.782 84.8051 479.989 84.9805 480.198 85.1576C530.506 176.423 555.663 267.673 555.663 358.929C555.663 365.596 555.529 372.264 555.26 378.931L554.962 379.16C555.237 372.416 555.375 365.672 555.375 358.929C555.375 267.509 530.11 176.085 479.574 84.631ZM488.639 92.6931C488.87 92.9072 489.105 93.1251 489.344 93.3468C539.327 181.894 564.323 270.447 564.323 359.007C564.323 362.954 564.273 366.9 564.174 370.847L563.873 371.34C563.981 367.229 564.035 363.118 564.035 359.007C564.035 270.242 538.905 181.471 488.639 92.6931ZM497.345 99.8725C497.384 99.9384 497.422 100.004 497.46 100.07C497.71 100.304 497.958 100.539 498.206 100.773C498.161 100.696 498.117 100.619 498.072 100.542C497.832 100.319 497.59 100.096 497.345 99.8725ZM498.626 102.083C498.87 102.316 499.118 102.551 499.369 102.789C544.155 180.727 568.508 258.669 572.421 336.606L572.196 337.913C568.477 259.316 543.956 180.704 498.626 102.083ZM509.039 111.989C509.292 112.229 509.546 112.472 509.803 112.716C548.168 178.457 571.169 244.203 578.801 309.953L578.613 310.838C571.053 244.559 547.863 178.277 509.039 111.989ZM521.941 125.998L523.175 127.737C557.08 186.267 578.115 244.8 586.276 303.331L586.1 304.167C577.921 244.662 556.425 185.148 521.608 125.628L521.941 125.998ZM547.859 163.401L548.376 163.765C549.67 166.266 550.938 168.767 552.182 171.269L552.437 171.841L553.08 173.743C551.387 170.295 549.647 166.848 547.859 163.401ZM588 268.511C581.91 243.076 573.247 217.642 562.013 192.209L560.59 189.727C572.366 215.976 581.4 242.223 587.693 268.47C587.794 268.485 587.896 268.5 588 268.511ZM587.683 314.552C587.513 313.029 587.335 311.506 587.148 309.983L586.789 309.428C587.03 311.368 587.257 313.308 587.47 315.249L587.671 314.69L587.683 314.552ZM581.186 339.278L580.933 340.044C580.828 337.697 580.703 335.351 580.559 333.004L580.565 332.996L580.502 332.094C580.431 330.981 580.356 329.868 580.276 328.755L580.523 328.18C580.793 331.879 581.014 335.579 581.186 339.278ZM537.603 387.505L537.354 386.717C537.708 379.697 537.927 372.677 538.013 365.657L538.304 365.411C538.217 372.776 537.984 380.14 537.603 387.505ZM529.014 388.997L528.706 389.377C529.007 383.636 529.223 377.894 529.353 372.153L529.64 372.229C529.512 377.818 529.303 383.407 529.014 388.997ZM519.908 398.266C519.811 398.261 519.715 398.257 519.62 398.253C520.245 388.504 520.637 378.754 520.797 369.005L521.084 369.071C520.923 378.803 520.531 388.534 519.908 398.266ZM510.841 405.387L510.542 405.525C511.882 386.915 512.42 368.305 512.154 349.694L512.443 349.771C512.706 368.309 512.172 386.848 510.841 405.387ZM501.946 411.208C501.831 411.424 501.718 411.635 501.608 411.842C502.32 402.69 502.848 393.538 503.191 384.386L503.435 384.315L503.481 384.345C503.146 393.299 502.634 402.254 501.946 411.208ZM492.128 426.391L491.819 426.598C493.131 412.684 494.039 398.769 494.542 384.855L494.829 384.9C494.328 398.73 493.428 412.561 492.128 426.391ZM482.897 434.197C482.805 434.185 482.71 434.171 482.612 434.155C482.976 430.492 483.313 426.83 483.624 423.167L483.951 422.722C483.629 426.547 483.278 430.372 482.897 434.197ZM465.638 499.245C466.325 495.341 466.983 491.436 467.613 487.532C467.519 487.511 467.425 487.491 467.33 487.473C466.697 491.399 466.035 495.326 465.344 499.252C465.443 499.252 465.541 499.25 465.638 499.245ZM460.587 525.509C462.013 518.681 463.351 511.853 464.601 505.025C464.522 504.947 464.438 504.869 464.35 504.792C463.059 511.854 461.673 518.915 460.194 525.977C460.327 525.823 460.458 525.667 460.587 525.509ZM450.962 534.67C450.834 534.805 450.707 534.941 450.582 535.078C454.707 515.383 458.14 495.688 460.882 475.993C460.968 476.075 461.054 476.157 461.139 476.239C458.423 495.716 455.031 515.193 450.962 534.67ZM438.703 557.071C438.567 557.218 438.435 557.369 438.306 557.524C445.744 524.268 451.314 491.015 455.016 457.764C455.091 457.9 455.172 458.036 455.261 458.172C451.577 491.137 446.058 524.103 438.703 557.071ZM427.257 574.933C427.146 574.993 427.034 575.051 426.92 575.106C439.005 522.722 446.697 470.338 449.997 417.954C450.09 417.954 450.187 417.954 450.285 417.954C446.991 470.281 439.314 522.607 427.257 574.933ZM419.768 575.718C419.668 575.717 419.569 575.717 419.472 575.719C431.248 521.934 438.64 468.148 441.648 414.362C441.742 414.432 441.834 414.5 441.925 414.567C438.911 468.284 431.525 522.001 419.768 575.718ZM411.405 580.426C411.27 580.59 411.137 580.755 411.004 580.922C423.145 523.673 430.587 466.429 433.333 409.186C433.441 409.914 433.372 410.936 433.264 412.478C433.329 412.478 433.394 412.479 433.458 412.479C430.598 468.459 423.247 524.441 411.405 580.426ZM402.179 589.744C402.075 589.781 401.969 589.817 401.862 589.85C414.071 531.417 421.646 472.978 424.587 414.534C424.675 414.632 424.766 414.733 424.86 414.837C421.911 473.145 414.351 531.448 402.179 589.744ZM377.011 667.392C376.087 669.549 375.59 671.352 375.497 673.089C373.56 680.311 371.557 687.533 369.486 694.754C369.198 695.374 368.922 696.002 368.645 696.632C395.96 601.905 411.78 507.161 416.105 412.414C416.204 412.356 416.303 412.298 416.402 412.239C412.532 497.296 399.402 582.351 377.011 667.392ZM358.353 714.125C358.238 714.198 358.118 714.268 357.993 714.333C358.548 712.393 359.098 710.452 359.644 708.511L360.131 707.72H359.866C386.899 611.39 402.734 515.078 407.373 418.77C407.468 418.765 407.565 418.76 407.662 418.754C402.923 517.202 386.487 615.654 358.353 714.125ZM349.889 724.184C349.984 723.84 350.079 723.497 350.174 723.153C350.052 723.23 349.931 723.306 349.811 723.381C349.7 723.782 349.589 724.183 349.478 724.584C349.595 724.464 349.71 724.35 349.828 724.24C349.848 724.221 349.869 724.203 349.889 724.184ZM348.363 729.657C348.717 728.398 349.068 727.139 349.418 725.88C349.3 725.948 349.181 726.016 349.062 726.082C348.714 727.331 348.365 728.581 348.014 729.83C348.13 729.773 348.247 729.715 348.363 729.657ZM340.443 738.764C340.769 737.555 341.094 736.347 341.418 735.138C341.329 735.093 341.24 735.051 341.152 735.013C340.794 736.349 340.435 737.686 340.073 739.023C340.196 738.937 340.32 738.851 340.443 738.764ZM333.468 744.752C333.345 744.846 333.222 744.938 333.098 745.029C361.284 635.642 377.489 526.255 381.714 416.868C381.806 416.848 381.903 416.827 382.005 416.805C377.788 526.121 361.609 635.437 333.468 744.752ZM326.674 749.652L326.462 749.773C328.408 741.801 330.295 733.828 332.122 725.856C332.271 725.726 332.385 725.615 332.501 725.498C330.67 733.494 328.78 741.491 326.829 749.488L326.674 749.652ZM320.51 753.177L320.169 753.372C320.921 750.101 321.663 746.83 322.397 743.558C322.523 743.411 322.654 743.263 322.792 743.115C322.041 746.469 321.281 749.823 320.51 753.177ZM314.091 756.849C314.03 756.913 313.97 756.976 313.87 757.061C314.345 754.86 314.816 752.659 315.283 750.458C315.38 750.368 315.5 750.257 315.651 750.118C315.181 752.336 314.706 754.553 314.228 756.77L314.091 756.849ZM308.399 758.951C308.3 758.974 308.197 758.998 308.09 759.023C308.319 757.885 308.547 756.746 308.774 755.608C308.873 755.577 308.978 755.545 309.088 755.514C308.859 756.659 308.63 757.805 308.399 758.951ZM302.691 759.352C302.633 759.291 302.574 759.223 302.517 759.151C302.601 758.7 302.685 758.249 302.769 757.798C302.882 757.735 302.991 757.678 303.095 757.624C302.987 758.203 302.88 758.781 302.772 759.36C302.745 759.358 302.718 759.355 302.691 759.352ZM315.2 684.012C315.182 684.13 315.164 684.248 315.147 684.366L315.302 685.267C315.485 684.063 315.666 682.859 315.847 681.655C315.709 682.099 315.603 682.51 315.497 682.921C315.405 683.277 315.313 683.634 315.2 684.012ZM310.056 675.06C309.956 675.061 309.859 675.059 309.765 675.056C319.916 599.952 326.449 524.848 329.365 449.744C329.466 449.702 329.564 449.662 329.658 449.622C326.745 524.768 320.211 599.914 310.056 675.06ZM304.537 664.403C304.469 664.152 304.402 663.907 304.334 663.669C312.585 594.343 318.02 525.016 320.64 455.689C320.743 455.631 320.841 455.573 320.935 455.514C318.309 525.144 312.843 594.773 304.537 664.403ZM298.23 658.217C298.128 658.236 298.03 658.251 297.936 658.262C303.902 602.001 308.187 545.735 310.789 489.468C310.88 489.483 310.976 489.495 311.076 489.504C308.474 545.745 304.193 601.984 298.23 658.217ZM292.191 647.319C292.102 647.249 292.012 647.18 291.92 647.112C296.894 592.92 300.466 538.732 302.634 484.547C302.731 484.51 302.828 484.473 302.927 484.436C300.756 538.728 297.178 593.022 292.191 647.319ZM286.863 625.289C286.775 625.187 286.686 625.086 286.597 624.984C290.01 579.745 292.552 534.507 294.224 489.268C294.317 489.276 294.413 489.285 294.512 489.294C292.836 534.626 290.286 579.957 286.863 625.289ZM279.793 619.784C279.698 619.783 279.602 619.782 279.505 619.781C282.279 577.053 284.372 534.324 285.783 491.596C285.879 491.574 285.976 491.552 286.073 491.531C284.662 534.282 282.569 577.033 279.793 619.784ZM272.499 616.22C272.412 616.123 272.322 616.021 272.227 615.914C274.451 575.587 276.151 535.263 277.328 494.939C277.425 494.884 277.523 494.829 277.622 494.774C276.441 535.255 274.734 575.737 272.499 616.22ZM264.974 615.816C264.878 615.814 264.782 615.811 264.686 615.809C266.432 578.205 267.796 540.603 268.776 503.002C268.872 503.067 268.966 503.128 269.059 503.187C268.079 540.729 266.718 578.272 264.974 615.816ZM257.653 611.624C257.56 611.539 257.467 611.449 257.374 611.354C258.737 574.994 259.805 538.635 260.579 502.278C260.677 502.237 260.774 502.196 260.87 502.155C260.094 538.643 259.021 575.132 257.653 611.624ZM250.423 598.608C250.347 598.357 250.259 598.111 250.156 597.852C251.024 566.308 251.72 534.766 252.245 503.225C252.341 503.224 252.437 503.224 252.533 503.224C252.004 535.017 251.301 566.812 250.423 598.608ZM265.677 2.42344C267.959 32.2651 269.955 62.1052 271.665 91.9441C271.743 91.9282 271.821 91.9103 271.899 91.8897H271.951C270.244 62.111 268.253 32.3311 265.975 2.54972C265.971 2.48857 265.966 2.42743 265.961 2.36628C265.954 2.2712 265.947 2.17613 265.94 2.08106H265.681C265.67 2.07545 265.66 2.0699 265.649 2.0644C265.656 2.1548 265.663 2.24521 265.67 2.33561C265.672 2.36489 265.674 2.39416 265.677 2.42344ZM272.262 3.46394C274.841 32.628 277.103 61.792 279.047 90.956C279.137 90.8775 279.228 90.796 279.319 90.7116C277.38 61.6464 275.126 32.5812 272.556 3.51599C272.542 3.3506 272.527 3.18521 272.512 3.01982C272.469 2.53014 272.426 2.04047 272.382 1.55079C272.284 1.53477 272.186 1.51723 272.088 1.49867C272.129 1.95621 272.169 2.41376 272.21 2.8713C272.227 3.06884 272.245 3.26639 272.262 3.46394ZM284.975 72.0205C285.201 74.8015 285.424 77.5826 285.644 80.3636C285.723 80.1537 285.803 79.9415 285.883 79.7282C285.685 77.2243 285.484 74.7204 285.28 72.2165C285.176 72.1575 285.074 72.0928 284.975 72.0205ZM284.997 68.7514C284.901 68.7294 284.803 68.7117 284.704 68.6989C284.172 62.2305 283.622 55.7621 283.054 49.2937C283.148 49.3124 283.245 49.3249 283.347 49.3299C283.915 55.8037 284.465 62.2776 284.997 68.7514ZM282.885 44.1043C282.794 44.106 282.698 44.1093 282.596 44.1137C282.534 43.4233 282.473 42.733 282.411 42.0426C282.507 42.0335 282.603 42.0246 282.698 42.0166C282.76 42.7125 282.823 43.4084 282.885 44.1043ZM282.582 40.7269H282.41C282.371 40.754 282.335 40.7799 282.299 40.8047C282.237 40.1149 282.175 39.4251 282.112 38.7353C282.205 38.6277 282.289 38.4941 282.365 38.3282C282.437 39.1278 282.51 39.9274 282.582 40.7269ZM289.131 41.8125C289.198 42.4744 289.265 43.1363 289.331 43.7982C289.422 43.7862 289.517 43.7738 289.617 43.7611C289.559 43.1765 289.5 42.5918 289.441 42.0071C289.342 41.9352 289.238 41.8709 289.131 41.8125ZM281.998 34.3182C281.913 34.2964 281.816 34.2757 281.703 34.2551C280.854 25.025 279.968 15.7948 279.046 6.56466L279.301 6.61843H279.342C280.263 15.8517 281.149 25.0849 281.998 34.3182ZM279.138 4.58443C279.072 3.92472 279.005 3.26501 278.939 2.6053C278.841 2.5892 278.743 2.57336 278.644 2.55768C278.712 3.23326 278.78 3.90885 278.848 4.58443H279.138ZM285.222 3.33274H285.009C284.995 3.21049 284.982 3.08823 284.968 2.96598L285.222 3.01982L285.265 3.02689C285.277 3.13327 285.289 3.23965 285.301 3.34602C285.275 3.34163 285.249 3.3372 285.222 3.33274ZM285.033 3.54235C285.131 3.55558 285.229 3.56788 285.327 3.57904C285.41 4.30513 285.491 5.03122 285.573 5.7573L285.262 5.56929C285.186 4.89365 285.11 4.218 285.033 3.54235ZM285.775 7.55719C286.084 10.3213 286.39 13.0855 286.692 15.8496H286.402C286.1 13.0855 285.794 10.3213 285.485 7.55719H285.775ZM291.668 5.40689C291.716 5.78595 291.763 6.16501 291.81 6.54407C291.91 6.56911 292.01 6.59371 292.11 6.61789C292.062 6.23167 292.014 5.84546 291.965 5.45924L291.668 5.40689ZM292.18 8.49596C292.239 8.51497 292.296 8.53355 292.351 8.55173C292.452 9.36759 292.553 10.1835 292.654 10.9993H292.363C292.26 10.1649 292.157 9.33041 292.053 8.49596H292.18ZM293.19 15.3802C293.038 14.1285 292.885 12.8769 292.731 11.6252H292.44C292.601 12.9293 292.76 14.2334 292.919 15.5376L292.921 15.5367V15.3802H293.19ZM311.313 484.263C311.496 480.153 311.669 476.043 311.834 471.933H311.545C311.382 476.021 311.209 480.109 311.028 484.197C311.125 484.222 311.219 484.244 311.313 484.263ZM298.187 6.29886C298.328 7.32231 298.468 8.34577 298.608 9.36922C298.711 9.4148 298.814 9.45934 298.917 9.50246C298.811 8.7189 298.703 7.93534 298.596 7.15178C298.529 7.13197 298.463 7.11073 298.398 7.08781L298.582 7.05536C298.555 6.85395 298.527 6.65253 298.499 6.45111L298.187 6.29886ZM304.776 7.82448C304.954 9.01101 305.132 10.1975 305.308 11.3841L305.617 11.5046C305.437 10.2883 305.255 9.07208 305.073 7.85581L304.776 7.82448ZM328.016 133.978C328.521 138.807 329.011 143.636 329.484 148.466L329.776 148.497C329.303 143.657 328.812 138.817 328.306 133.978H328.016ZM327.479 128.906C327.527 129.352 327.574 129.799 327.622 130.245L327.937 130.483C327.881 129.953 327.824 129.423 327.768 128.893L327.479 128.906ZM318.71 57.9376C318.907 59.3458 319.103 60.7539 319.298 62.1621H319.589C319.395 60.7539 319.199 59.3458 319.001 57.9376H318.71ZM311.682 11.3672C311.859 12.466 312.036 13.5649 312.212 14.6638C312.308 14.6941 312.41 14.7258 312.52 14.7592C312.344 13.6595 312.167 12.5597 311.989 11.46L311.682 11.3672ZM318.736 15.8008C318.755 15.9155 318.775 16.0301 318.795 16.1448C318.901 16.153 318.997 16.1574 319.09 16.1598C319.079 16.0969 319.069 16.034 319.058 15.9711L318.736 15.8008ZM331.115 49.6452C331.023 49.4996 330.932 49.3578 330.839 49.2186C330.176 45.2689 329.5 41.3191 328.811 37.3693L329.1 37.3475C330.666 46.3289 332.167 55.3102 333.601 64.2913L333.363 64.6275C332.567 59.6413 331.751 54.655 330.915 49.6687L331.115 49.6452ZM328.441 35.2557C328.494 35.5567 328.547 35.8577 328.6 36.1587L328.916 36.2925C328.847 35.8996 328.778 35.5068 328.71 35.1139L328.441 35.2557ZM325.294 17.7927C325.462 18.703 325.63 19.6133 325.797 20.5236C325.919 20.5805 326.026 20.6394 326.123 20.7009C325.95 19.7587 325.776 18.8165 325.602 17.8742L325.294 17.7927ZM331.874 19.1985C332.094 20.3085 332.313 21.4185 332.53 22.5284C332.628 22.5379 332.728 22.5475 332.83 22.5573C332.807 22.4417 332.785 22.326 332.762 22.2104L332.448 21.7951L332.701 21.898C332.527 21.0146 332.353 20.1313 332.178 19.248L331.874 19.1985ZM333.15 25.7067H333.444C333.672 26.8777 333.898 28.0488 334.123 29.2198L333.804 29.0915C333.587 27.9633 333.369 26.835 333.15 25.7067ZM333.997 30.0965C334.095 30.0985 334.194 30.101 334.293 30.104C336.356 40.8719 338.318 51.6397 340.178 62.4072L339.852 62.2158C338.001 51.5096 336.049 40.8031 333.997 30.0965ZM340.615 66.6581L340.801 66.0324C341.662 71.076 342.501 76.1196 343.317 81.1632L343.058 81.3721C342.265 76.4675 341.45 71.5628 340.615 66.6581ZM345.307 95.6398L345.327 95.1754L345.558 95.3733C348.699 115.823 351.475 136.273 353.884 156.722L353.6 156.772C351.199 136.395 348.435 116.018 345.307 95.6398ZM356.349 181.626C356.546 183.535 356.74 185.445 356.931 187.354L357.254 187.684C357.067 185.806 356.876 183.927 356.682 182.049L356.349 181.626ZM361.631 158.547C361.842 160.23 362.05 161.912 362.255 163.595C362.342 163.518 362.429 163.439 362.516 163.357C362.321 161.754 362.122 160.151 361.922 158.548C361.868 158.544 361.814 158.542 361.76 158.542C361.717 158.542 361.674 158.544 361.631 158.547ZM353.949 104.471C356.706 121.816 359.181 139.161 361.374 156.505L361.666 156.514C359.478 139.203 357.009 121.891 354.259 104.58L353.949 104.471ZM361.846 108.256C364.547 124.392 366.987 140.528 369.167 156.665H369.458C367.278 140.524 364.838 124.383 362.137 108.243L361.846 108.256ZM368.439 104.393C371.707 122.425 374.626 140.457 377.199 158.489L377.56 158.98C374.975 140.808 372.037 122.637 368.746 104.465L368.439 104.393ZM378.108 164.967L378.413 165.063C379.486 172.844 380.495 180.624 381.439 188.405C381.341 188.401 381.243 188.398 381.147 188.395C380.2 180.585 379.187 172.776 378.108 164.967ZM371.284 82.806C376.909 109.698 381.712 136.591 385.693 163.483L386.019 163.721C382.019 136.657 377.186 109.593 371.522 82.529L371.284 82.806ZM386.496 168.987L386.812 169.161C388.054 177.799 389.21 186.437 390.282 195.074L389.969 194.896C388.896 186.26 387.738 177.624 386.496 168.987ZM394.649 171.308C394.698 171.631 394.746 171.954 394.795 172.276L395.128 172.55C395.062 172.109 394.995 171.668 394.929 171.227L394.649 171.308ZM378.345 83.7484C384.712 112.503 390.081 141.256 394.452 170.008C394.55 170.011 394.648 170.015 394.745 170.018C390.361 141.167 384.971 112.315 378.577 83.4618L378.345 83.7484ZM376.155 72.7379C375.949 71.8439 375.742 70.95 375.534 70.056L375.232 69.6722L375.136 69.6204C375.382 70.6777 375.627 71.7351 375.871 72.7924L376.155 72.7379ZM369.13 71.3315L369.014 71.2368L368.792 71.1364C368.481 69.7096 368.168 68.2827 367.852 66.8559H368.148C368.478 68.3478 368.805 69.8396 369.13 71.3315ZM362.776 43.5026C362.674 43.496 362.573 43.4882 362.473 43.4792C361.494 39.3802 360.495 35.2812 359.477 31.1822L359.817 31.3502C360.822 35.401 361.808 39.4518 362.776 43.5026ZM359.374 29.5704L359.095 29.4617L359.043 29.4383C358.79 28.422 358.535 27.4057 358.279 26.3894C358.4 26.4458 358.512 26.4971 358.616 26.5442C358.87 27.553 359.123 28.5617 359.374 29.5704ZM365.23 29.8042C365.399 30.4408 365.567 31.0775 365.734 31.7141L365.905 31.8086L366.077 31.8815C365.912 31.2516 365.745 30.6216 365.579 29.9917C365.463 29.9297 365.347 29.8672 365.23 29.8042ZM364.389 26.6454C364.564 27.2985 364.738 27.9516 364.912 28.6046C365.018 28.649 365.13 28.6936 365.247 28.7389C365.026 27.9096 364.805 27.0802 364.583 26.2509L364.277 26.1761L364.425 26.6454H364.389ZM357.291 21.3228C357.264 21.2159 357.237 21.109 357.209 21.0021L356.874 20.8564L356.873 20.8561C356.902 20.9676 356.931 21.079 356.959 21.1905C357.08 21.239 357.19 21.2829 357.291 21.3228ZM357.085 20.5185L356.754 20.3894C356.627 19.895 356.5 19.4007 356.373 18.9063C356.479 18.9437 356.588 18.9823 356.701 19.022C356.829 19.5209 356.958 20.0197 357.085 20.5185ZM350.685 19.0724C350.627 18.8321 350.569 18.5918 350.511 18.3516C350.399 18.2992 350.287 18.2464 350.175 18.1934C350.239 18.4557 350.302 18.718 350.366 18.9803L350.685 19.0724ZM351.077 20.6935C350.996 20.3601 350.916 20.0268 350.835 19.6934L350.49 19.4943C350.58 19.866 350.669 20.2378 350.759 20.6096L351.077 20.6935ZM352.459 26.4848C352.348 26.0168 352.237 25.5488 352.126 25.0808H351.829C351.928 25.4979 352.027 25.915 352.126 26.332C352.229 26.3801 352.34 26.4309 352.459 26.4848ZM352.479 27.8269L352.805 27.9533C353.051 28.9965 353.296 30.0398 353.539 31.083L353.47 31.0263L353.18 30.8173C352.948 29.8205 352.714 28.8237 352.479 27.8269ZM353.681 32.9687L354.017 33.1368C354.827 36.6283 355.623 40.1198 356.407 43.6114L356.107 43.5938C355.312 40.0521 354.503 36.5104 353.681 32.9687ZM349.762 42.8285C348.728 37.93 347.671 33.0315 346.589 28.133L346.268 28.02C347.36 32.9635 348.428 37.9069 349.471 42.8504L349.762 42.8285ZM358.023 52.2479C358.351 53.7495 358.676 55.2512 358.999 56.7529L359.307 56.8121C358.994 55.3535 358.678 53.895 358.36 52.4364C358.235 52.3645 358.122 52.3018 358.023 52.2479ZM361.126 66.8048L361.43 66.8508C361.784 68.555 362.136 70.2593 362.484 71.9635L362.352 72.0191L362.263 72.3257C361.887 70.4854 361.508 68.6451 361.126 66.8048ZM368.62 103.772C367.825 99.3961 367.01 95.02 366.175 90.644L365.933 90.9188C366.714 95.0089 367.476 99.0991 368.221 103.189L368.62 103.772ZM357.383 81.2862C356.037 74.0217 354.638 66.7571 353.186 59.4926L352.851 59.2918C354.349 66.7814 355.791 74.271 357.178 81.7606L357.383 81.2862ZM351.026 84.9828L350.735 84.9909C350.408 83.0837 350.078 81.1764 349.745 79.2692L349.977 78.9161C350.33 80.9383 350.68 82.9605 351.026 84.9828ZM349.539 76.4271L349.281 76.6243C346.628 61.5793 343.763 46.5342 340.686 31.4891L340.963 31.4053C344.033 46.4126 346.892 61.4199 349.539 76.4271ZM340.683 30.0376L340.354 29.8721C340.09 28.586 339.824 27.3 339.557 26.014L339.879 26.1475C340.149 27.4442 340.417 28.7409 340.683 30.0376ZM339.265 23.2047C339.263 23.2042 339.26 23.2038 339.258 23.2033C339.163 23.2033 339.067 23.2033 338.97 23.2031C338.641 21.6385 338.311 20.0739 337.978 18.5093C338.088 18.5707 338.2 18.6331 338.314 18.6968C338.633 20.1994 338.95 21.7021 339.265 23.2047ZM344.354 19.4673C344.449 19.8857 344.544 20.3041 344.638 20.7224L344.967 20.8673C344.869 20.4326 344.771 19.998 344.672 19.5634L344.354 19.4673ZM343.846 17.2325C343.894 17.4427 343.942 17.653 343.99 17.8632C344.04 17.87 344.091 17.8768 344.143 17.8836C344.197 17.905 344.251 17.9263 344.305 17.9477C344.263 17.7595 344.22 17.5713 344.177 17.3831C344.075 17.3373 343.965 17.2872 343.846 17.2325ZM343.596 16.1391C343.638 16.3232 343.681 16.5074 343.723 16.6916L344.058 16.8609C344.012 16.6626 343.967 16.4642 343.922 16.2658L343.596 16.1391ZM343.403 15.2939C343.439 15.4528 343.475 15.6117 343.512 15.7706L343.84 15.9094C343.802 15.7435 343.764 15.5776 343.726 15.4118L343.403 15.2939ZM343.255 13.8156L343.053 13.773C343.042 13.7262 343.031 13.6795 343.021 13.6328L343.107 13.6592L343.255 13.8156ZM345.045 22.5265L345.451 23.0171C345.453 23.0263 345.455 23.0354 345.457 23.0445L345.152 23.0067C345.116 22.8466 345.08 22.6865 345.045 22.5265ZM346.342 27.0163C346.242 26.5635 346.141 26.1107 346.041 25.6579L345.734 25.6117C345.828 26.0338 345.922 26.456 346.016 26.8782L346.216 26.9584L346.342 27.0163ZM350.179 16.9851L349.853 16.8704C349.808 16.6839 349.762 16.4973 349.717 16.3107L350.045 16.4344C350.089 16.618 350.134 16.8015 350.179 16.9851ZM349.57 15.7075C349.595 15.8099 349.62 15.9123 349.645 16.0146L349.97 16.1293C349.946 16.03 349.922 15.9306 349.898 15.8313L349.57 15.7075ZM356.076 17.7578C356.132 17.9713 356.187 18.1849 356.242 18.3984L356.577 18.5401C356.519 18.3164 356.462 18.0927 356.404 17.869L356.076 17.7578ZM356.004 17.477C356.004 17.479 356.005 17.4809 356.005 17.4828L356.282 17.5707L356.004 17.477ZM362.596 20.0036C362.827 20.8507 363.057 21.6979 363.287 22.5451C363.389 22.5601 363.489 22.5682 363.594 22.5725C363.372 21.7551 363.15 20.9378 362.928 20.1204L362.596 20.0036ZM371.096 29.833C371.216 29.8923 371.332 29.95 371.445 30.0058C371.757 31.1185 372.068 32.2313 372.377 33.344L372.004 33.0808C371.703 31.9982 371.4 30.9156 371.096 29.833ZM372.606 35.2508H372.906C373.002 35.5978 373.097 35.9449 373.193 36.2919L372.716 35.6503C372.679 35.5171 372.642 35.384 372.606 35.2508ZM376.656 50.2534C377.503 53.4671 378.336 56.6807 379.157 59.8944L379.498 60.0628C378.682 56.865 377.854 53.6673 377.012 50.4696L376.656 50.2534ZM371.294 52.3495C370.617 49.606 369.931 46.8624 369.237 44.1189L368.861 43.8158C369.522 46.4214 370.175 49.0271 370.819 51.6327L371.294 52.3495ZM368.375 40.7359L368.05 40.63C367.846 39.8354 367.642 39.0408 367.437 38.2462L367.533 38.2236L367.745 38.2823C367.956 39.1002 368.166 39.918 368.375 40.7359ZM367.217 36.2429L366.941 36.3304C366.896 36.1576 366.851 35.9848 366.806 35.8119L367.166 36.0465C367.183 36.112 367.2 36.1775 367.217 36.2429ZM382.326 48.1617C382.641 49.2814 382.954 50.4011 383.265 51.5207L383.624 51.7334C383.31 50.601 382.993 49.4686 382.676 48.3362L382.326 48.1617ZM379.286 37.5244C379.848 39.4583 380.405 41.3922 380.957 43.3261L381.331 43.5843C380.773 41.6245 380.209 39.6647 379.64 37.7049L379.286 37.5244ZM384.309 55.2995L384.666 55.5077C385.483 58.4889 386.289 61.47 387.082 64.4512L386.927 64.3525L386.664 64.0059C385.891 61.1038 385.105 58.2016 384.309 55.2995ZM390.549 77.7754C389.946 75.4025 389.335 73.0295 388.717 70.6565L388.426 70.6872C389.04 73.0435 389.647 75.3998 390.246 77.7561C390.347 77.7636 390.448 77.77 390.549 77.7754ZM391.878 84.2507L392.21 84.3914C392.592 85.9299 392.971 87.4684 393.346 89.0068C393.244 88.9985 393.142 88.9892 393.042 88.9788C392.657 87.4028 392.269 85.8267 391.878 84.2507ZM395.54 99.4174L396.072 100.421C396.717 103.179 397.351 105.936 397.974 108.694L397.758 109.047C397.033 105.837 396.294 102.627 395.54 99.4174ZM398.626 112.918L399.214 114.577C399.256 114.653 399.298 114.73 399.34 114.806C406.922 149.165 412.903 183.523 417.283 217.88L416.967 217.682C412.507 182.761 406.394 147.84 398.626 112.918ZM425.985 360.382C426.042 360.379 426.099 360.377 426.158 360.377L426.273 360.372C426.269 363.722 426.249 367.073 426.214 370.423C426.117 370.395 426.021 370.368 425.927 370.344C425.961 367.023 425.98 363.703 425.985 360.382ZM417.561 370.059C417.577 368.443 417.589 366.826 417.597 365.21L417.309 365.198C417.301 366.82 417.289 368.441 417.273 370.063C417.369 370.056 417.465 370.055 417.561 370.059ZM409.061 369.014C408.951 368.981 408.855 368.95 408.774 368.922C408.788 367.138 408.798 365.354 408.805 363.571C408.901 363.522 408.997 363.473 409.094 363.427C409.087 365.29 409.076 367.152 409.061 369.014ZM398.781 198.753H398.622L398.455 198.48C397.476 190.899 396.428 183.318 395.31 175.737L395.643 176.019C396.758 183.597 397.804 191.175 398.781 198.753ZM404.248 182.168L403.931 181.772C398.987 149.082 392.675 116.393 384.994 83.7054L385.346 83.9425C395.168 125.787 402.747 167.635 408.085 209.484L407.161 204.605C406.168 197.061 405.101 189.518 403.961 181.975L404.248 182.168ZM408.732 214.653C408.603 213.606 408.473 212.558 408.341 211.511L408.194 212.654C408.276 213.308 408.357 213.962 408.437 214.616L408.732 214.653ZM400.396 369.764C400.412 367.716 400.425 365.668 400.432 363.62C400.339 363.596 400.243 363.571 400.144 363.545C400.137 365.618 400.125 367.691 400.107 369.764H400.396ZM398.755 419.578C398.849 419.542 398.947 419.507 399.049 419.473C394.423 520.202 378.269 620.93 350.585 721.658C350.415 721.931 350.236 722.218 350.049 722.519C377.873 621.538 394.109 520.558 398.755 419.578ZM434.535 360.073C434.531 364.502 434.498 368.931 434.438 373.36C434.527 373.284 434.624 373.195 434.729 373.094C434.788 368.761 434.819 364.428 434.824 360.095C434.771 360.09 434.72 360.085 434.669 360.081C434.625 360.078 434.58 360.075 434.535 360.073ZM425.811 221.644L425.408 220.792C421.231 189.173 415.621 157.552 408.578 125.931L408.925 126.157C416.005 157.987 421.634 189.816 425.811 221.644ZM398.939 84.9172C398.758 84.2243 398.576 83.5314 398.393 82.8386C398.371 82.8306 398.348 82.8228 398.326 82.8149C398.234 82.7986 398.151 82.784 398.076 82.7708C398.246 83.4135 398.415 84.0563 398.583 84.699C398.699 84.773 398.818 84.8459 398.939 84.9172ZM396.675 76.4H396.375C395.445 72.9559 394.498 69.5117 393.534 66.0675L393.925 66.39C394.857 69.7267 395.774 73.0634 396.675 76.4ZM386.572 42.1685C388.778 49.4551 390.907 56.7416 392.961 64.028L393.328 64.2635C391.298 57.0526 389.193 49.8417 387.014 42.6306L386.779 42.2915L386.572 42.1685ZM395.704 52.3896C397.137 57.0147 398.537 61.6398 399.905 66.2649L400.155 66.0889C398.818 61.5699 397.45 57.0509 396.051 52.5319L395.704 52.3896ZM401.435 70.4471C401.213 69.6874 400.991 68.9277 400.768 68.1679L400.48 68.2148C400.662 68.8339 400.843 69.453 401.024 70.0721L401.435 70.4471ZM402.215 74.1836C402.729 75.9674 403.237 77.7512 403.741 79.5351C403.835 79.4677 403.916 79.4004 403.985 79.3333C403.511 77.658 403.034 75.9827 402.552 74.3074L402.215 74.1836ZM416.413 128.749L416.721 128.797C416.754 128.939 416.787 129.08 416.82 129.222L416.787 130.361C416.663 129.824 416.538 129.287 416.413 128.749ZM419.989 143.312C419.689 141.935 419.387 140.558 419.081 139.182C418.889 138.766 418.698 138.348 418.506 137.929C425.893 171.001 431.622 204.073 435.694 237.146L436.068 237.827C432.281 206.881 427.043 175.936 420.354 144.991L420.088 144.617L419.989 143.312ZM403.038 56.4534C405.047 62.6756 406.993 68.8978 408.878 75.12L408.985 75.1483L409.149 75.0181C407.314 68.9569 405.419 62.8956 403.466 56.8344L403.038 56.4534ZM429.064 152.253L429.37 152.299C437.276 188.164 443.123 224.028 446.912 259.893L446.607 259.752C442.815 223.919 436.967 188.086 429.064 152.253ZM408.747 55.8419C411.172 62.9386 413.511 70.0354 415.765 77.1322L415.943 77.1823L416.068 77.1281C413.824 70.0627 411.496 62.9973 409.084 55.9319L408.837 55.9036L408.747 55.8419ZM430.174 126.893L430.461 126.848C442.614 173.324 451.116 219.801 455.968 266.28L455.647 265.976C450.789 219.613 442.298 173.252 430.174 126.893ZM421.381 75.8295C422.246 78.3982 423.098 80.9669 423.94 83.5357L424.293 83.6852C423.415 81.0005 422.524 78.3158 421.62 75.631L421.381 75.8295ZM414.387 55.7638C416.755 62.3327 419.046 68.9016 421.26 75.4705L421.545 75.4079C419.262 68.6341 416.897 61.8604 414.451 55.0867L414.387 55.7638ZM412.955 50.9721L412.542 50.6885C412.535 50.6683 412.527 50.6481 412.52 50.6279L412.873 50.7472C412.9 50.8222 412.928 50.8971 412.955 50.9721ZM419.072 53.1721C419.209 53.5291 419.345 53.8862 419.482 54.2432L419.857 54.4134C419.721 54.0557 419.584 53.6981 419.447 53.3404L419.072 53.1721ZM419.798 55.0718L420.173 55.2398C424.395 66.3308 428.387 77.422 432.147 88.5135L431.733 88.1953C427.984 77.1539 424.006 66.1127 419.798 55.0718ZM424.825 53.2438C424.735 53.2438 424.645 53.2402 424.555 53.234C424.472 53.0275 424.388 52.8209 424.304 52.6143L424.825 53.2438ZM427.279 60.0484C431.912 71.7693 436.273 83.4902 440.361 95.2112L440.793 95.5709C436.707 83.8351 432.348 72.0993 427.716 60.3636L427.279 60.0484ZM427.066 58.7222L426.898 58.5635L426.306 56.8424L426.32 56.8477C426.57 57.4725 426.818 58.0974 427.066 58.7222ZM428.178 49.2264C429.24 51.6871 430.289 54.1478 431.326 56.6086L431.788 56.9575C430.734 54.4527 429.668 51.9479 428.588 49.443L428.178 49.2264ZM431.81 57.7613L432.106 57.7144C464.514 134.965 484.457 212.203 491.935 289.438L491.701 290.015C484.265 212.604 464.302 135.19 431.81 57.7613ZM486.558 347.903C486.51 344.645 486.442 341.386 486.352 338.128C486.255 338.124 486.159 338.119 486.064 338.114C486.153 341.351 486.221 344.588 486.269 347.825C486.365 347.855 486.462 347.881 486.558 347.903ZM473.949 439.103C474.346 435.151 474.714 431.199 475.052 427.248L474.762 427.262C474.419 431.265 474.046 435.268 473.642 439.271L473.949 439.103ZM477.824 344.105C477.824 344.105 477.724 344.144 477.554 344.222C477.509 341.823 477.454 339.425 477.388 337.027C477.485 337.032 477.581 337.036 477.677 337.041C477.742 339.394 477.796 341.747 477.84 344.101C477.834 344.102 477.829 344.103 477.824 344.105ZM466.106 432.434C466.25 430.787 466.389 429.141 466.523 427.495C466.427 427.495 466.331 427.494 466.234 427.493C466.1 429.147 465.96 430.8 465.815 432.453L466.106 432.434ZM469.286 351.649C469.185 351.668 469.09 351.681 468.998 351.689C468.969 348.361 468.921 345.032 468.853 341.704C468.948 341.644 469.043 341.584 469.137 341.523C469.207 344.898 469.257 348.273 469.286 351.649ZM460.727 370.688C460.742 369.561 460.755 368.434 460.766 367.307C460.67 367.304 460.574 367.3 460.478 367.297C460.467 368.453 460.454 369.609 460.438 370.766C460.536 370.732 460.633 370.706 460.727 370.688ZM456.291 448.481C456.751 443.919 457.176 439.356 457.566 434.794C457.505 434.704 457.444 434.614 457.383 434.524C457.358 434.487 457.333 434.451 457.309 434.414C456.884 439.406 456.418 444.398 455.909 449.391C455.949 449.295 455.989 449.2 456.029 449.105C456.117 448.897 456.204 448.689 456.291 448.481ZM460.803 356.844C460.708 356.864 460.612 356.881 460.515 356.896C460.508 354.206 460.49 351.516 460.459 348.826C460.555 348.802 460.651 348.776 460.746 348.745C460.777 351.445 460.796 354.144 460.803 356.844ZM452.141 356.713C452.045 356.711 451.949 356.709 451.853 356.707C451.847 354.027 451.829 351.346 451.799 348.666C451.895 348.632 451.991 348.601 452.087 348.575C452.117 351.288 452.135 354.001 452.141 356.713ZM436.46 124.872C450.17 174.135 459.552 223.398 464.605 272.661L464.797 272.759L464.93 273.007C459.884 223.596 450.485 174.186 436.733 124.776L436.46 124.872ZM441.61 119.043C461.508 185.187 473.175 251.337 476.613 317.489L476.788 317.35L476.871 316.911C473.393 250.859 461.712 184.809 441.829 118.766L441.61 119.043ZM483.643 291.619L483.389 292.021C478.202 233.399 466.198 174.781 447.379 116.165L447.717 116.273C466.466 174.719 478.441 233.167 483.643 291.619ZM412.151 48.783C411.596 47.2776 411.037 45.7722 410.474 44.2668C410.337 44.1992 410.211 44.1364 410.093 44.0774C410.659 45.5881 411.22 47.0987 411.778 48.6094L412.151 48.783ZM402.833 54.878C402.421 53.6072 402.006 52.3364 401.589 51.0656L400.583 48.939C401.064 50.395 401.543 51.851 402.017 53.3071L402.323 53.5567H402.099C402.211 53.9022 402.324 54.2477 402.436 54.5932L402.833 54.878ZM394.758 48.3814C394.463 47.4419 394.167 46.5024 393.87 45.5629L393.495 45.3383C393.782 46.2459 394.069 47.1535 394.354 48.0611L394.758 48.3814ZM390.429 35.8088C390.703 36.6489 390.976 37.489 391.249 38.3291L391.621 38.5402C391.344 37.6837 391.066 36.8273 390.786 35.9708L390.429 35.8088ZM390.498 35.088L390.125 34.8806C389.994 34.4811 389.863 34.0817 389.732 33.6822L390.101 33.8772C390.234 34.2808 390.366 34.6844 390.498 35.088ZM389.951 33.4188L389.589 33.2468C389.467 32.8759 389.345 32.5051 389.222 32.1342L389.588 32.3172C389.709 32.6844 389.83 33.0516 389.951 33.4188ZM389.505 32.0674L389.296 31.9651L389.14 31.8866C389.055 31.6292 388.97 31.3717 388.885 31.1143L389.237 31.2561C389.326 31.5265 389.416 31.7969 389.505 32.0674ZM383.407 30.9125C383.387 30.8461 383.366 30.7798 383.345 30.7134H383.078L383.407 30.9125ZM394.762 49.3628L395.193 49.7701C395.31 50.1473 395.428 50.5245 395.545 50.9017L395.227 50.8537C395.072 50.3567 394.917 49.8597 394.762 49.3628ZM382.768 199.736C382.548 197.793 382.324 195.851 382.096 193.909C381.995 193.827 381.889 193.744 381.776 193.658C382.021 195.735 382.26 197.811 382.495 199.888L382.768 199.736ZM341.906 733.308C369.827 628.476 386.025 523.667 390.5 418.872C390.414 418.726 390.325 418.582 390.23 418.441C385.775 523.493 369.537 628.559 341.516 733.65C341.644 733.533 341.774 733.419 341.906 733.308ZM374.217 195.67L373.917 195.578C373.765 194.186 373.612 192.795 373.456 191.403C373.553 191.403 373.649 191.404 373.746 191.406C373.905 192.827 374.062 194.249 374.217 195.67ZM373.415 188.471C373.318 188.491 373.224 188.512 373.132 188.536C372.843 185.991 372.547 183.446 372.244 180.901L372.493 180.551C372.807 183.191 373.115 185.831 373.415 188.471ZM371.349 171.193C371.04 168.729 370.726 166.266 370.405 163.802L370.117 163.825C370.427 166.209 370.732 168.592 371.031 170.975L371.349 171.193ZM364.886 186.501L365.178 186.517C365.384 188.429 365.586 190.341 365.785 192.253L365.48 192.105C365.285 190.237 365.087 188.369 364.886 186.501ZM333.038 723.144C355.656 623.704 369.012 524.263 373.104 424.822C373.01 424.788 372.915 424.753 372.82 424.719C369.005 517.54 357.118 610.362 337.158 703.183H337.333C337.228 703.368 337.131 703.553 337.039 703.738C335.667 710.106 334.258 716.474 332.81 722.841C332.889 722.942 332.966 723.043 333.038 723.144ZM363.887 433.583C363.991 433.523 364.09 433.466 364.183 433.411C360.255 523.902 349.167 614.395 330.921 704.904H330.626C348.864 614.452 359.951 524.016 363.887 433.583ZM329.75 710.661C329.823 710.307 329.895 709.952 329.968 709.598C329.778 709.801 329.707 709.916 329.635 710.067C329.688 710.235 329.722 710.442 329.75 710.661ZM323.118 741.656C323.979 737.797 324.826 733.937 325.661 730.078C325.553 730.102 325.448 730.129 325.348 730.156C324.779 732.79 324.203 735.423 323.621 738.056C323.704 738.118 323.785 738.176 323.861 738.23C323.779 738.36 323.694 738.497 323.607 738.637C323.549 738.729 323.49 738.824 323.43 738.919C323.23 739.823 323.029 740.726 322.828 741.63C322.923 741.642 323.02 741.65 323.118 741.656ZM326.613 694.474C341.801 610.989 351.321 527.515 355.174 444.045C355.077 444.123 354.977 444.2 354.875 444.277C351.015 527.661 341.498 611.047 326.324 694.446C326.425 694.456 326.521 694.465 326.613 694.474ZM320.463 693.639H320.456C320.367 693.67 320.266 693.695 320.157 693.717C321.213 687.446 322.239 681.175 323.235 674.904C323.35 674.809 323.463 674.711 323.574 674.611C322.567 680.954 321.53 687.296 320.463 693.639ZM323.856 672.829H323.564C335.395 597.873 342.989 522.917 346.345 447.961C346.443 447.936 346.54 447.911 346.637 447.886C343.283 522.867 335.69 597.848 323.856 672.829ZM340.09 174.658H339.801C339.58 172.28 339.356 169.902 339.127 167.524C339.238 167.634 339.345 167.741 339.447 167.843C339.665 170.114 339.88 172.386 340.09 174.658ZM337.727 150.711L337.407 150.422C336.901 145.595 336.377 140.769 335.836 135.942L336.144 136.099C336.69 140.97 337.217 145.84 337.727 150.711ZM335.782 132.895L335.481 132.797C335.237 130.649 334.989 128.5 334.738 126.352L335.018 126.263C335.276 128.473 335.531 130.684 335.782 132.895ZM340.421 112.789C340.616 114.25 340.809 115.711 341.001 117.173L341.3 117.241C341.083 115.582 340.863 113.923 340.641 112.264L340.421 112.789ZM341.46 120.698L341.715 120.428C343.287 132.58 344.739 144.733 346.07 156.885L345.758 156.688C344.442 144.691 343.01 132.695 341.46 120.698ZM326.989 65.5509C326.376 61.3964 325.75 57.2419 325.111 53.0873H324.898L324.826 53.1304C325.441 57.1275 326.043 61.1246 326.634 65.1217L326.674 65.1348L326.989 65.5509ZM330.507 159.187C330.604 159.278 330.71 159.377 330.824 159.484C331.293 164.542 331.745 169.6 332.179 174.658H331.889C331.447 169.501 330.986 164.344 330.507 159.187ZM316.997 673.908C328.037 598.583 335.117 523.248 338.236 447.911C338.14 447.89 338.045 447.869 337.95 447.849C334.831 523.23 327.746 598.609 316.695 673.978C316.794 673.955 316.895 673.932 316.997 673.908ZM324.277 176.171C324.193 176.272 324.106 176.38 324.014 176.497C323.634 171.628 323.239 166.76 322.829 161.892C322.925 161.883 323.021 161.876 323.116 161.87C323.518 166.637 323.905 171.404 324.277 176.171ZM322.462 154.249C322.421 153.775 322.379 153.301 322.337 152.826C322.196 153.276 322.282 153.781 322.462 154.249ZM316.391 178.37C316.223 177.617 316.124 176.561 316.156 175.07C316.235 176.17 316.314 177.27 316.391 178.37ZM315.914 171.726C315.791 170.041 315.666 168.355 315.54 166.669C315.451 166.671 315.355 166.673 315.251 166.674C315.363 168.163 315.473 169.651 315.582 171.14C315.718 171.35 315.828 171.541 315.914 171.726ZM318.918 15.1637C318.814 15.1392 318.711 15.1139 318.612 15.0884C318.435 14.0594 318.256 13.0303 318.076 12.0013C318.186 12.0456 318.291 12.0879 318.391 12.1282C318.568 13.14 318.744 14.1519 318.918 15.1637ZM291.937 5.23539L291.656 5.30973C291.647 5.23781 291.638 5.1659 291.629 5.09399L291.931 5.18091C291.933 5.19907 291.935 5.21723 291.937 5.23539ZM288.31 33.7776C288.317 33.8477 288.324 33.9179 288.331 33.988V33.8426C288.324 33.8206 288.317 33.799 288.31 33.7776ZM290.218 52.7603C290.327 52.8194 290.429 52.8747 290.524 52.9267C290.634 54.0599 290.744 55.1931 290.853 56.3263C290.754 56.3608 290.661 56.395 290.574 56.429C290.456 55.2061 290.337 53.9832 290.218 52.7603ZM291.435 62.4264C291.334 61.3511 291.232 60.2757 291.129 59.2004C291.03 59.143 290.927 59.089 290.824 59.0364C290.96 60.4658 291.096 61.8952 291.23 63.3247C291.302 62.9984 291.372 62.6952 291.435 62.4264ZM503.587 348.195C503.63 350.954 503.656 353.714 503.666 356.474L503.955 356.763C503.946 353.921 503.92 351.079 503.876 348.236L503.587 348.195ZM324.333 12.6376C324.343 12.6931 324.354 12.7486 324.364 12.8041L324.601 12.7204L324.333 12.6376ZM233.411 1.45609L233.411 1.45521H233.408L233.411 1.45609ZM233.122 1.41888C233.123 1.46666 233.124 1.51443 233.125 1.5622L233.26 1.45521L233.122 1.41888ZM226.854 1.98865C226.843 1.99337 226.831 1.9981 226.82 2.00283C226.734 2.03912 226.648 2.07543 226.566 2.11172C226.566 1.99506 226.565 1.8784 226.564 1.76174C226.654 1.75259 226.752 1.7346 226.852 1.71415C226.853 1.80565 226.853 1.89715 226.854 1.98865ZM183.536 73.8681C183.611 72.4014 183.687 70.9346 183.764 69.4678C183.664 69.4872 183.567 69.5067 183.473 69.5259C183.382 71.2514 183.293 72.977 183.204 74.7025L183.222 74.679C183.335 74.3994 183.439 74.13 183.536 73.8681ZM176.129 75.9306H175.84C176.057 72.3662 176.277 68.8018 176.502 65.2373C176.579 65.3113 176.646 65.3825 176.708 65.4478C176.731 65.4657 176.753 65.4829 176.774 65.4995C176.555 68.9766 176.34 72.4536 176.129 75.9306ZM168.655 78.4579C168.562 78.4691 168.465 78.4796 168.364 78.4893C168.677 74.0079 168.997 69.5265 169.324 65.0452C169.423 65.0271 169.52 65.0076 169.618 64.9869C169.289 69.4772 168.968 73.9676 168.655 78.4579ZM161.716 73.9695C161.623 73.7717 161.542 73.6003 161.469 73.4514C161.761 69.8447 162.058 66.238 162.361 62.6313C162.457 62.6312 162.554 62.6309 162.65 62.6303C162.333 66.4101 162.022 70.1898 161.716 73.9695ZM154.637 72.3151C154.542 72.3178 154.445 72.3207 154.346 72.3236C154.367 72.0939 154.388 71.8642 154.409 71.6344C154.481 71.4989 154.554 71.3625 154.627 71.2249C154.671 71.143 154.715 71.0607 154.759 70.9779C154.718 71.4236 154.677 71.8693 154.637 72.3151ZM160.137 14.6795C160.114 14.8918 160.09 15.1042 160.067 15.3166C160.173 15.2819 160.273 15.2496 160.368 15.2196C160.392 14.9949 160.417 14.7702 160.442 14.5455C160.343 14.5887 160.242 14.6334 160.137 14.6795ZM160.316 13.0444C160.295 13.2426 160.273 13.4407 160.251 13.6389C160.354 13.6039 160.454 13.5696 160.552 13.5361C160.573 13.3467 160.594 13.1574 160.615 12.9681C160.516 12.9936 160.416 13.019 160.316 13.0444ZM167.045 11.2839C167.145 11.255 167.244 11.2263 167.344 11.1978C167.339 11.2393 167.335 11.2807 167.331 11.3222C167.23 11.3543 167.13 11.3858 167.032 11.4167C167.037 11.3724 167.041 11.3281 167.045 11.2839ZM173.77 9.48285C173.868 9.4609 173.966 9.43901 174.065 9.41731C174.033 9.78331 174.001 10.1493 173.97 10.5153C173.875 10.5465 173.776 10.5792 173.672 10.6136C173.683 10.4879 173.694 10.3622 173.704 10.2365L173.747 10.217L173.706 10.2244C173.727 9.97722 173.748 9.73003 173.77 9.48285ZM180.524 7.15582C180.503 7.4305 180.482 7.70519 180.462 7.97988C180.561 7.9603 180.659 7.94073 180.755 7.92115C180.776 7.64471 180.797 7.36826 180.818 7.09181C180.793 7.09711 180.769 7.10235 180.745 7.10754C180.668 7.12433 180.594 7.1405 180.524 7.15582ZM187.165 5.91098C187.284 5.89125 187.381 5.87615 187.457 5.86487C187.456 5.87495 187.455 5.88504 187.455 5.89513C187.357 5.92107 187.259 5.94469 187.161 5.96664C187.163 5.94809 187.164 5.92953 187.165 5.91098ZM187.35 7.53689C187.361 7.36164 187.372 7.18638 187.384 7.01113C187.288 7.03764 187.19 7.0621 187.09 7.08372C187.079 7.26283 187.067 7.44193 187.056 7.62104C187.154 7.59318 187.252 7.56514 187.35 7.53689ZM183.859 67.6672C183.958 65.7843 184.058 63.9013 184.159 62.0184L183.874 61.9433C183.769 63.9089 183.664 65.8745 183.561 67.8402L183.859 67.6672ZM190.927 63.7657C190.891 64.604 190.854 65.4423 190.818 66.2806C190.941 66.1163 191.043 65.9597 191.126 65.8108C191.152 65.2308 191.177 64.6507 191.202 64.0707C191.125 63.9576 191.031 63.8562 190.927 63.7657ZM180.637 9.49834C180.538 9.52935 180.439 9.56068 180.34 9.59226C180.345 9.5384 180.349 9.48455 180.353 9.43069C180.353 9.42257 180.354 9.41446 180.354 9.40634C180.37 9.20049 180.385 8.99463 180.401 8.78878C180.488 8.76432 180.586 8.73648 180.696 8.70477C180.68 8.91341 180.665 9.12206 180.649 9.3307C180.649 9.33623 180.648 9.34176 180.648 9.34729C180.644 9.39764 180.64 9.44799 180.637 9.49834ZM180.708 8.55286C180.596 8.58379 180.499 8.61168 180.412 8.63758C180.421 8.51929 180.43 8.401 180.439 8.2827C180.536 8.27113 180.633 8.25836 180.731 8.2445C180.723 8.34729 180.715 8.45007 180.708 8.55286ZM187.415 6.51392C187.318 6.53845 187.22 6.56313 187.122 6.58787C187.13 6.45451 187.139 6.32115 187.147 6.18778C187.148 6.1722 187.149 6.15661 187.15 6.14103C187.151 6.13012 187.152 6.11921 187.152 6.1083L187.445 6.04194C187.445 6.05319 187.444 6.06443 187.443 6.07567C187.442 6.09385 187.441 6.11203 187.44 6.13021C187.432 6.25811 187.423 6.38602 187.415 6.51392ZM187.109 6.78512C187.109 6.79337 187.108 6.80162 187.108 6.80986C187.106 6.84324 187.103 6.87661 187.101 6.90998C187.101 6.91715 187.1 6.92432 187.1 6.93148C187.2 6.8974 187.299 6.86169 187.395 6.82369C187.396 6.82111 187.396 6.81854 187.396 6.81596C187.397 6.80227 187.398 6.78858 187.399 6.77489H187.367L187.364 6.77526C187.279 6.77595 187.205 6.77789 187.131 6.78342C187.123 6.78395 187.116 6.78452 187.109 6.78512ZM173.91 11.2079C173.812 11.2294 173.714 11.2481 173.616 11.2635C173.626 11.1376 173.637 11.0117 173.648 10.8857C173.745 10.8478 173.845 10.8088 173.948 10.769C173.935 10.9153 173.922 11.0616 173.91 11.2079ZM167.182 12.8387C167.021 12.8619 166.945 12.871 166.889 12.8746C166.892 12.8399 166.896 12.8052 166.899 12.7706C166.957 12.7232 167.038 12.6734 167.208 12.5803C167.199 12.6665 167.191 12.7526 167.182 12.8387ZM167.23 12.3509C167.128 12.3724 167.032 12.3966 166.933 12.4271C166.955 12.2003 166.977 11.9735 167 11.7467C167.09 11.7151 167.19 11.6808 167.3 11.6434C167.276 11.8792 167.253 12.115 167.23 12.3509ZM107.863 417.672C107.771 417.797 107.678 417.922 107.585 418.047C106.796 389.369 106.581 360.692 106.94 332.014C107.042 332.278 107.136 332.521 107.219 332.74C106.874 361.051 107.089 389.362 107.863 417.672ZM99.5576 426.746C99.4641 426.82 99.3704 426.893 99.2768 426.964C97.9715 388.884 97.7624 350.804 98.6494 312.727C98.7399 312.898 98.8319 313.076 98.9253 313.258C98.0541 351.086 98.2649 388.915 99.5576 426.746ZM91.7189 441.935C91.6263 441.983 91.5323 442.03 91.4368 442.076C89.3994 396.892 89.0227 351.709 90.3068 306.525C90.3987 306.625 90.492 306.721 90.5868 306.815C89.3136 351.855 89.691 396.894 91.7189 441.935ZM83.4623 447.232C83.3745 447.412 83.2875 447.59 83.2014 447.767C80.6256 398.022 80.2134 348.279 81.9644 298.535C82.0604 298.53 82.1567 298.525 82.2532 298.52C80.5075 348.091 80.9106 397.661 83.4623 447.232ZM75.8974 460.466C75.8068 460.559 75.7162 460.648 75.6256 460.733C71.7139 399.207 71.3483 337.681 74.5287 276.155C74.6249 276.151 74.7213 276.148 74.8179 276.144C71.6408 337.585 72.0006 399.025 75.8974 460.466ZM67.4537 462.076C67.3853 461.961 67.3169 461.841 67.2488 461.718C62.5372 392.982 62.5552 324.245 67.3028 255.509C67.3955 255.694 67.4787 255.881 67.5531 256.069C62.8344 324.744 62.8379 393.418 67.5634 462.093C67.527 462.088 67.4904 462.082 67.4537 462.076ZM58.8058 457.313C58.7089 457.308 58.6122 457.303 58.5157 457.295C53.8927 391.292 53.9197 325.294 58.5968 259.3C58.6954 259.296 58.792 259.292 58.8868 259.286C54.2072 325.29 54.1802 391.298 58.8058 457.313ZM50.3603 457.198C50.2664 457.201 50.1704 457.205 50.0719 457.208C45.1666 391.37 45.1865 325.532 50.1316 259.694C50.2252 259.735 50.3183 259.779 50.4108 259.826C45.4746 325.617 45.4577 391.407 50.3603 457.198ZM42.1356 459.862C42.0408 459.863 41.9445 459.865 41.8467 459.866C36.3419 392.084 36.382 324.305 41.9668 256.523C42.0314 256.8 42.1061 257.076 42.1889 257.341C36.6697 324.849 36.6519 392.354 42.1356 459.862ZM33.3344 455.241C33.2308 455.142 33.1267 455.048 33.022 454.958C27.5044 387.63 27.7897 320.298 33.8778 252.97C33.9744 252.967 34.071 252.964 34.1679 252.962C28.0689 320.387 27.7911 387.815 33.3344 455.241ZM24.822 454.215C24.7283 454.237 24.6337 454.259 24.5384 454.281C18.6639 386.166 19.0829 318.044 25.7957 249.918C25.8893 249.93 25.9847 249.942 26.0818 249.955C19.3727 318.047 18.9528 386.134 24.822 454.215ZM16.3645 451.079C16.2672 451.061 16.1693 451.045 16.071 451.032C10.2857 385.232 10.7052 319.435 17.3295 253.635C17.3583 253.647 17.3871 253.659 17.4157 253.67C17.4906 253.599 17.5644 253.528 17.637 253.458C10.9921 319.333 10.5679 385.205 16.3645 451.079ZM9.15973 463.41C9.0725 463.464 8.98159 463.518 8.8868 463.571C1.39385 392.62 1.52726 321.67 9.28708 250.719C9.3812 250.726 9.47718 250.732 9.575 250.739C1.82068 321.629 1.68226 392.519 9.15973 463.41ZM50.4718 681.382C49.3795 678.208 48.3032 675.033 47.2432 671.859C47.125 671.794 47.0006 671.726 46.8698 671.656C47.9539 674.905 49.0549 678.155 50.1728 681.404C50.2736 681.398 50.3731 681.39 50.4718 681.382ZM44.7321 680.968C44.6159 680.924 44.4971 680.881 44.3763 680.837C36.2455 658.399 28.9647 635.962 22.5339 613.527C22.8379 614.168 23.1117 614.774 23.3584 615.345C24.1266 618.006 24.9067 620.666 25.6988 623.326L25.706 623.388C25.714 623.402 25.722 623.416 25.73 623.431C31.4428 642.609 37.7768 661.788 44.7321 680.968ZM38.9558 679.988C38.8527 679.986 38.7484 679.984 38.6424 679.981C23.2095 639.539 10.6925 599.098 1.09166 558.656L1.59897 559.539C11.1761 599.689 23.6284 639.838 38.9558 679.988ZM32.6444 677.495C32.4768 677.335 32.3089 677.175 32.1406 677.016C-19.2507 548.153 -39.4076 419.251 -28.33 290.358C-28.2323 290.342 -28.1345 290.325 -28.0364 290.309C-39.1415 419.377 -18.9146 548.454 32.6444 677.495ZM24.5737 670.333C24.4151 670.201 24.2563 670.07 24.0973 669.938C-27.6948 543.853 -47.9962 417.805 -36.807 291.774C-36.707 291.706 -36.6047 291.64 -36.5001 291.577C-47.7443 417.804 -27.3864 544.048 24.5737 670.333ZM16.7324 664.107C16.5768 663.988 16.421 663.869 16.2651 663.75C-35.649 541.47 -56.3294 419.221 -45.7757 296.966C-45.6833 296.986 -45.5882 297.007 -45.4917 297.028C-56.0478 419.38 -35.3065 541.725 16.7324 664.107ZM9.06755 658.373C8.9109 658.257 8.7542 658.142 8.59751 658.026C-46.0699 533.591 -66.6254 409.118 -53.069 284.655C-52.9672 284.606 -52.8652 284.558 -52.7631 284.51C-66.3702 409.136 -45.76 533.771 9.06755 658.373ZM1.34876 652.677C1.18768 652.557 1.02667 652.437 0.865714 652.317C-53.996 531.495 -74.9821 410.704 -62.0925 289.906C-61.9888 289.839 -61.885 289.773 -61.7813 289.707C-74.7343 410.69 -53.6909 531.665 1.34876 652.677ZM-6.59768 646.623C-6.76774 646.489 -6.93762 646.355 -7.10732 646.221C-51.9137 550.446 -74.3191 454.689 -74.3191 358.929C-74.3191 337.697 -73.2178 316.467 -71.0151 295.236C-70.9128 295.183 -70.8108 295.131 -70.7088 295.078C-72.9236 316.362 -74.0309 337.645 -74.0309 358.929C-74.0309 454.815 -51.5546 550.706 -6.59768 646.623ZM-15.0015 639.657C-15.1899 639.491 -15.3778 639.325 -15.5654 639.158C-60.5072 545.792 -82.9805 452.398 -82.9805 358.987C-82.9805 339.338 -81.9861 319.688 -79.9974 300.038C-79.8805 299.833 -79.763 299.628 -79.645 299.424C-81.6765 319.279 -82.6923 339.133 -82.6923 358.987C-82.6923 452.556 -60.1303 546.116 -15.0015 639.657ZM-25.6708 628.251L-26.5468 627.116C-69.9414 537.712 -91.6411 448.322 -91.6411 358.928C-91.6411 347.458 -91.2838 335.988 -90.5693 324.517C-90.4519 324.165 -90.3333 323.813 -90.2136 323.461C-90.9731 335.284 -91.3529 347.106 -91.3529 358.928C-91.3529 448.692 -69.4605 538.459 -25.6708 628.251ZM-39.5414 610.285L-40.3915 609.184C-79.4053 527.499 -99.3189 445.809 -100.128 364.116C-100.041 363.587 -99.9499 363.037 -99.8532 362.468C-99.2949 445.069 -79.1924 527.675 -39.5414 610.285ZM-54.0056 591.55L-54.8202 590.495C-83.8095 528.323 -101.126 466.157 -106.768 403.99C-106.694 403.747 -106.619 403.505 -106.544 403.262C-100.937 466.018 -83.4252 528.778 -54.0056 591.55ZM-31.209 643.395C-35.847 635.724 -40.2974 628.053 -44.56 620.383C-44.9666 619.845 -45.3741 619.308 -45.7835 618.776C-41.2888 626.92 -36.5827 635.063 -31.6653 643.206C-31.5036 643.287 -31.3514 643.35 -31.209 643.395ZM-41.744 632.657C-42.2647 631.999 -42.7924 631.324 -43.325 630.635C-50.838 618.315 -57.8397 605.995 -64.3304 593.675C-64.2266 593.652 -64.127 593.633 -64.0303 593.618C-57.1722 606.632 -49.7435 619.644 -41.744 632.657ZM-118.647 440.684C-117.368 447.663 -115.925 454.641 -114.318 461.619C-114.052 462.398 -113.765 463.204 -113.455 464.045C-115.65 454.744 -117.552 445.443 -119.164 436.141C-119.148 436.542 -119.113 436.949 -119.078 437.356C-118.927 438.529 -118.784 439.635 -118.647 440.684ZM-124.576 396.265C-124.5 397.175 -124.421 398.086 -124.339 398.996L-124.07 398.768C-124.437 394.662 -124.747 390.555 -125 386.448V390.791C-124.974 391.16 -124.947 391.529 -124.92 391.897L-124.704 391.669C-124.704 391.693 -124.7 391.777 -124.694 391.919C-124.671 392.484 -124.608 393.969 -124.576 396.265ZM-111.967 288.94L-112.559 290.988C-112.601 291.282 -112.643 291.575 -112.685 291.869C-112.734 292.212 -112.783 292.556 -112.831 292.899C-112.84 292.961 -112.849 293.023 -112.857 293.085C-112.858 293.089 -112.858 293.092 -112.859 293.096C-112.848 293.083 -112.838 293.07 -112.827 293.057C-112.851 293.164 -112.875 293.271 -112.898 293.378C-112.936 293.649 -112.974 293.92 -113.011 294.191L-113.009 294.194L-113.014 294.211C-114.161 302.545 -115.087 310.879 -115.792 319.214C-115.704 318.863 -115.615 318.503 -115.525 318.132C-115.461 317.846 -115.398 317.567 -115.336 317.294C-114.61 309.111 -113.671 300.928 -112.518 292.745C-112.512 292.7 -112.505 292.654 -112.499 292.608C-112.397 291.884 -112.293 291.159 -112.187 290.434C-112.158 290.234 -112.129 290.034 -112.099 289.834C-112.091 289.779 -112.083 289.723 -112.074 289.667C-112.039 289.425 -112.003 289.182 -111.967 288.94ZM-91.8808 230.406C-92.1337 230.991 -92.3839 231.578 -92.6336 232.172C-92.7321 232.558 -92.8302 232.944 -92.9278 233.33C-97.6476 251.99 -101.316 270.649 -103.932 289.309C-103.832 289.285 -103.732 289.26 -103.63 289.236C-100.931 270.019 -97.1159 250.8 -92.184 231.582C-92.0834 231.19 -91.9823 230.798 -91.8808 230.406ZM-74.8325 196.031C-74.6012 195.611 -74.3692 195.192 -74.1365 194.774C-74.2601 195.168 -74.3832 195.562 -74.506 195.957C-83.9956 226.449 -90.8218 256.942 -94.9848 287.434C-95.0849 287.453 -95.1845 287.472 -95.2838 287.492C-91.1845 257.423 -84.4971 227.355 -75.2218 197.288C-75.0925 196.869 -74.9628 196.45 -74.8325 196.031ZM-58.8815 169.571C-59.094 169.887 -59.3022 170.198 -59.5065 170.503C-59.5146 170.527 -59.5227 170.55 -59.5308 170.574C-72.6325 209.003 -81.7252 247.43 -86.8082 285.857C-86.7089 285.838 -86.6093 285.819 -86.5095 285.799C-81.3791 247.068 -72.1729 208.334 -58.8905 169.598C-58.8875 169.589 -58.8845 169.58 -58.8815 169.571ZM-45.8513 151.009C-59.1393 188.227 -68.8609 225.446 -75.0156 262.663C-74.9169 262.653 -74.8176 262.642 -74.7176 262.63C-68.5206 225.19 -58.7119 187.748 -45.2911 150.304C-45.4793 150.541 -45.666 150.776 -45.8513 151.009ZM-79.3393 293.86C-79.2351 293.814 -79.132 293.765 -79.0328 293.714C-79.0932 294.253 -79.1528 294.792 -79.2117 295.33C-79.3189 295.406 -79.4174 295.464 -79.522 295.516C-79.4619 294.964 -79.401 294.412 -79.3393 293.86ZM-89.7094 316.329C-88.9489 306.474 -87.9246 296.618 -86.6363 286.763C-86.7353 286.776 -86.8341 286.79 -86.9325 286.803C-88.1075 295.803 -89.0626 304.802 -89.7978 313.801L-89.7662 313.751C-89.7029 314.153 -89.7208 314.583 -89.7389 315.017C-89.7573 315.459 -89.7758 315.904 -89.7094 316.329ZM-99.6737 344.765C-99.7749 345.038 -99.8783 345.31 -99.9834 345.582C-99.495 326.41 -97.9546 307.239 -95.3621 288.069C-95.2633 288.052 -95.164 288.036 -95.0644 288.02C-97.6257 306.935 -99.1621 325.85 -99.6737 344.765ZM-108.525 358.929C-108.525 335.836 -106.913 312.743 -103.688 289.65C-103.789 289.672 -103.89 289.695 -103.989 289.717C-107.205 312.787 -108.813 335.858 -108.813 358.929C-108.813 365.759 -108.672 372.589 -108.39 379.419L-108.163 377.863C-108.404 371.551 -108.525 365.24 -108.525 358.929ZM-94.0494 506.532C-101.649 482.304 -107.376 458.076 -111.231 433.85C-111.231 433.871 -111.232 433.892 -111.232 433.913C-111.311 433.997 -111.39 434.09 -111.469 434.19C-107.675 457.941 -102.083 481.692 -94.6931 505.443C-94.4793 505.806 -94.2646 506.169 -94.0494 506.532ZM-112.972 421.966C-113.068 421.979 -113.164 421.985 -113.261 421.983C-116.069 400.991 -117.474 379.999 -117.474 359.007C-117.474 348.763 -117.139 338.518 -116.471 328.274C-116.349 327.833 -116.223 327.392 -116.093 326.952C-116.822 337.637 -117.186 348.322 -117.186 359.007C-117.186 379.993 -115.781 400.979 -112.972 421.966ZM-33.915 136.187C-49.1414 178.161 -60.0644 220.132 -66.6837 262.103C-66.5849 262.055 -66.4801 262.014 -66.3716 261.977C-59.7115 219.824 -48.7078 177.669 -33.3602 135.51C-33.5452 135.735 -33.7302 135.961 -33.915 136.187ZM-22.6192 122.698C-38.5187 166.208 -50.0245 209.715 -57.1366 253.22L-56.901 252.888C-56.8467 252.792 -56.7946 252.701 -56.7446 252.613C-49.5876 209.104 -38.034 165.594 -22.0838 122.079C-22.2615 122.284 -22.4399 122.491 -22.6192 122.698ZM-14.3409 117.473C-27.685 155.125 -37.9065 192.779 -45.0054 230.435C-44.9789 230.415 -44.9524 230.395 -44.9259 230.375C-44.8383 230.308 -44.7506 230.242 -44.6628 230.176C-37.5578 192.581 -27.3388 154.987 -14.0059 117.396C-14.119 117.422 -14.2306 117.447 -14.3409 117.473ZM-7.3963 116.151C-20.4003 154.605 -30.3151 193.057 -37.1405 231.507L-36.8054 231.271C-29.9753 192.882 -20.0645 154.492 -7.07286 116.099C-7.18128 116.117 -7.28911 116.134 -7.3963 116.151ZM-37.7998 235.277C-37.6679 235.071 -37.5339 234.86 -37.3976 234.644C-38.4285 240.596 -39.3854 246.547 -40.2682 252.499C-40.4135 252.902 -40.5649 253.301 -40.735 253.687C-39.8353 247.55 -38.8569 241.414 -37.7998 235.277ZM-44.5849 287.283C-44.4009 285.441 -44.2099 283.599 -44.0117 281.756C-44.1102 281.771 -44.2085 281.786 -44.3065 281.802C-44.5911 284.45 -44.861 287.099 -45.1164 289.748C-44.9443 288.924 -44.7648 288.103 -44.5849 287.283ZM-0.509017 115.157C-13.5853 155.734 -23.3968 196.311 -29.9434 236.89C-29.7916 236.589 -29.6452 236.285 -29.5034 235.978C-22.9524 195.69 -13.1817 155.403 -0.191335 115.116C-0.297599 115.13 -0.403501 115.144 -0.509017 115.157ZM6.21554 114.344C-4.26665 148.532 -12.5508 182.721 -18.637 216.912C-18.5403 216.852 -18.4434 216.791 -18.3467 216.731C-18.3335 216.723 -18.3203 216.714 -18.3072 216.706C-12.2199 182.572 -3.94115 148.44 6.52917 114.309C6.42436 114.321 6.31982 114.332 6.21554 114.344ZM13.1495 113.612C3.82843 145.579 -3.67079 177.546 -9.34802 209.512C-9.25833 209.417 -9.13674 209.287 -8.98647 209.128C-3.3135 177.279 4.16867 145.43 13.46 113.581C13.3563 113.591 13.2528 113.602 13.1495 113.612ZM-11.1527 220.046C-11.0429 219.981 -10.9343 219.914 -10.8269 219.844C-11.48 223.793 -12.1053 227.742 -12.7028 231.691C-12.8209 231.822 -12.9379 231.953 -13.0539 232.084C-12.4489 228.071 -11.8152 224.058 -11.1527 220.046ZM14.0655 135.903C8.68657 157.309 4.08201 178.715 0.251846 200.121C0.367782 200.02 0.483526 199.919 0.599067 199.82C4.42496 178.485 9.02034 157.151 14.3852 135.817C14.2832 135.844 14.1768 135.873 14.0655 135.903ZM-1.57459 210.68C-1.45228 210.546 -1.33192 210.411 -1.21405 210.274C-1.92159 214.497 -2.59896 218.719 -3.24617 222.942C-3.35718 223.033 -3.46836 223.123 -3.57963 223.214C-2.94078 219.036 -2.27245 214.858 -1.57459 210.68ZM20.9486 137.114C14.803 163.085 9.7367 189.057 5.7498 215.028C5.84903 214.939 5.95836 214.851 6.08335 214.757C10.0445 189.01 15.0669 163.264 21.1502 137.517C21.0765 137.367 21.0096 137.233 20.9486 137.114ZM1.13117 249.289C1.22196 249.313 1.31103 249.337 1.39844 249.36C-6.99615 321.154 -7.13998 392.948 0.966861 464.741C0.870577 464.746 0.774387 464.75 0.678235 464.755C-7.42979 392.935 -7.28403 321.116 1.11561 249.296C1.1208 249.294 1.12599 249.292 1.13117 249.289ZM-7.31265 465.168C-14.8288 402.359 -15.6787 339.557 -9.8625 276.759C-9.96468 276.827 -10.0674 276.895 -10.1707 276.961C-15.9649 339.698 -15.1082 402.439 -7.60088 465.186C-7.5049 465.18 -7.40885 465.174 -7.31265 465.168ZM-0.741993 510.433C-2.77481 498.521 -4.56793 486.609 -6.12122 474.697C-6.25914 474.324 -6.40635 473.929 -6.56695 473.498C-6.56748 473.495 -6.56801 473.493 -6.56853 473.49C-4.95466 486.001 -3.07634 498.513 -0.933648 511.025C-0.862249 510.83 -0.798708 510.632 -0.741993 510.433ZM22.1435 611.103C19.3465 601.255 16.7133 591.406 14.2439 581.558L13.7159 580.639C16.3188 591.066 19.1054 601.494 22.0756 611.922C22.0966 611.71 22.1201 611.434 22.1435 611.103ZM-0.31556 551.346C-0.611358 550.053 -0.90419 548.76 -1.19401 547.467C-1.39137 546.863 -1.53646 546.48 -1.6815 546.096C-1.75198 545.959 -1.82075 545.822 -1.88762 545.685C-1.3978 547.892 -0.899361 550.098 -0.392178 552.305C-0.350982 551.982 -0.325012 551.66 -0.31556 551.346ZM-4.09851 534.033C-4.11214 534.476 -4.11829 534.919 -4.11587 535.362C-21.9054 450.533 -26.8653 365.704 -18.9953 280.875C-18.8952 280.834 -18.7948 280.792 -18.6942 280.751C-26.5424 365.178 -21.6771 449.605 -4.09851 534.033ZM-21.9883 239.113C-22.0817 239.072 -22.174 239.036 -22.2639 239.006C-22.0579 237.636 -21.8485 236.265 -21.6354 234.895H-21.3435C-21.5622 236.301 -21.7771 237.707 -21.9883 239.113ZM-20.8488 231.754C-20.6003 230.195 -20.3471 228.636 -20.0893 227.077C-20.1963 227.141 -20.304 227.203 -20.4126 227.264C-20.6667 228.804 -20.9163 230.343 -21.1615 231.883C-21.0856 231.845 -21.0074 231.805 -20.927 231.766C-20.9008 231.762 -20.8748 231.758 -20.8488 231.754ZM-15.53 251.999C-15.6279 252.007 -15.7258 252.015 -15.8236 252.022C-15.5135 249.581 -15.1926 247.14 -14.8612 244.699C-14.7664 244.718 -14.6717 244.736 -14.5774 244.752C-14.9053 247.168 -15.2229 249.583 -15.53 251.999ZM27.2869 141.361C22.685 162.296 18.7471 183.23 15.4732 204.165C15.583 204.071 15.6946 203.98 15.8082 203.89C19.0832 182.992 23.0201 162.095 27.6187 141.197C27.5095 141.26 27.3988 141.315 27.2869 141.361ZM35.4093 137.754C30.6105 160.458 26.5504 183.161 23.2289 205.863C23.3162 205.873 23.4114 205.884 23.5154 205.897C26.7214 183.986 30.6157 162.075 35.1981 140.162C35.1919 140.136 35.1861 140.108 35.1807 140.08L35.243 139.948C35.3922 139.235 35.5421 138.522 35.6928 137.81C35.5964 137.789 35.5002 137.769 35.4093 137.754ZM42.9872 135.499C38.0426 159.982 33.9107 184.465 30.5915 208.947C30.6924 208.892 30.7972 208.834 30.9061 208.774C34.5161 182.185 39.0851 155.594 44.6132 129.003C44.4928 129.119 44.372 129.217 44.2567 129.299C43.8753 131.137 43.4985 132.974 43.1263 134.811C43.1949 134.887 43.2606 134.974 43.323 135.073L42.9872 135.499ZM49.0189 142.803C44.2548 168.631 40.3448 194.459 37.2888 220.288C37.3833 220.297 37.4791 220.306 37.5761 220.314C40.6342 194.47 44.5476 168.625 49.3164 142.782C49.2114 142.788 49.1126 142.795 49.0189 142.803ZM54.678 153.783C50.8008 177.274 47.5896 200.765 45.0443 224.256H45.2475C45.2475 224.444 45.2561 224.641 45.2711 224.84C47.8229 201.193 51.0498 177.545 54.9516 153.897C54.8628 153.851 54.772 153.813 54.678 153.783ZM43.623 241.099C43.795 239.284 43.9711 237.469 44.1512 235.654C44.0413 235.836 43.926 236.026 43.805 236.225C43.6483 237.812 43.4947 239.398 43.3441 240.985C43.4302 241.02 43.5232 241.058 43.623 241.099ZM60.7967 163.939C56.8256 190.835 53.6765 217.731 51.3493 244.627C51.4412 244.673 51.5337 244.719 51.6267 244.765C53.9549 217.831 57.1076 190.897 61.0848 163.963C60.9903 163.953 60.8949 163.945 60.7967 163.939ZM63.1056 208.594C61.668 222.034 60.4232 235.474 59.3713 248.914C59.4633 248.967 59.5555 249.02 59.648 249.073C60.7057 235.541 61.9591 222.01 63.408 208.478C63.307 208.516 63.2062 208.554 63.1056 208.594ZM71.6324 205.101C70.0702 220.31 68.7397 235.519 67.6406 250.729C67.745 250.566 67.8524 250.405 67.9645 250.248C69.0576 235.191 70.3776 220.133 71.9247 205.076C71.8279 205.084 71.7305 205.092 71.6324 205.101ZM79.817 204.698C78.4628 218.758 77.2936 232.818 76.3098 246.878C76.408 246.85 76.5063 246.822 76.6046 246.794C77.5883 232.75 78.7568 218.705 80.1102 204.661C80.038 204.673 79.9643 204.685 79.8892 204.698C79.8651 204.698 79.841 204.698 79.817 204.698ZM85.895 228.027C85.6832 230.802 85.4782 233.578 85.28 236.354C85.3909 236.161 85.5015 235.968 85.6103 235.775C85.7869 233.316 85.9687 230.857 86.1558 228.398C86.0748 228.275 85.988 228.151 85.895 228.027ZM86.9275 218.622C86.8254 218.76 86.718 218.896 86.6051 219.029C86.9789 214.444 87.3712 209.859 87.7818 205.273C87.8769 205.296 87.9716 205.317 88.0658 205.335C87.6692 209.764 87.2898 214.193 86.9275 218.622ZM93.9019 150.087C93.8696 150.089 93.8373 150.091 93.8051 150.093L93.9617 149.596C93.9418 149.76 93.9219 149.923 93.9019 150.087ZM96.7893 127.581C96.6727 127.721 96.5553 127.867 96.4397 128.015C97.0003 123.85 97.5761 119.684 98.1671 115.518C98.2652 115.51 98.3635 115.502 98.462 115.493C97.8902 119.522 97.3327 123.552 96.7893 127.581ZM105.609 115.652C105.712 115.61 105.815 115.567 105.917 115.522C105.773 116.611 105.631 117.701 105.489 118.79C105.387 118.814 105.286 118.841 105.187 118.872C105.327 117.798 105.468 116.725 105.609 115.652ZM103.803 129.754C103.897 129.789 103.99 129.829 104.079 129.869C103.233 136.683 102.424 143.496 101.653 150.31C101.609 150.202 101.503 150.133 101.39 150.065C102.157 143.295 102.961 136.524 103.803 129.754ZM110.89 135.205C110.928 135.231 110.968 135.258 111.009 135.285C110.76 137.489 110.515 139.693 110.274 141.897C110.169 141.908 110.073 141.917 109.981 141.924C110.23 139.651 110.482 137.378 110.739 135.105C110.786 135.134 110.837 135.169 110.89 135.205ZM109.278 151.195C109.331 150.694 109.383 150.193 109.436 149.692C109.364 149.619 109.274 149.552 109.169 149.481C109.091 150.214 109.014 150.947 108.938 151.68C109.038 151.573 109.128 151.461 109.201 151.345C109.228 151.293 109.254 151.244 109.278 151.195ZM109.554 145.863C109.513 146.25 109.471 146.636 109.43 147.022C109.542 146.64 109.612 146.256 109.554 145.863ZM104.497 124.233C104.433 124.737 104.369 125.242 104.305 125.746C104.63 125.089 104.772 124.713 104.666 124.449C104.633 124.368 104.578 124.298 104.497 124.233ZM88.2838 135.391C88.6556 132.728 89.0341 130.065 89.4193 127.402C89.3211 127.419 89.2215 127.436 89.1207 127.451C88.7107 130.287 88.3083 133.122 87.9134 135.958C87.9528 135.898 87.9921 135.837 88.0314 135.777C88.1154 135.648 88.1993 135.519 88.2838 135.391ZM77.3003 159.504C78.4235 151.07 79.6179 142.636 80.8835 134.202C80.7908 134.326 80.7054 134.459 80.6294 134.604L80.5261 134.64C79.2825 142.945 78.108 151.251 77.0025 159.556C77.0998 159.539 77.1991 159.522 77.3003 159.504ZM84.1629 74.4103C84.3086 73.691 84.4548 72.9716 84.6016 72.2523C84.5587 72.222 84.5172 72.1961 84.4784 72.1756C84.5182 72.0496 84.5473 71.9575 84.5628 71.8628C84.5882 71.708 84.5775 71.5465 84.518 71.2195C84.2946 72.3105 84.0724 73.4015 83.8515 74.4926L84.1629 74.4103ZM82.4895 82.7956C82.6265 82.0988 82.764 81.402 82.902 80.7052C82.7931 80.7478 82.685 80.7982 82.5785 80.8523C81.3516 87.0513 80.1658 93.2504 79.021 99.4494C79.1176 99.436 79.2176 99.4262 79.3202 99.419C80.305 94.0883 81.3201 88.7575 82.3656 83.4268L82.2579 82.9714C82.3351 82.917 82.4123 82.8579 82.4895 82.7956ZM69.5663 159.078C70.3914 153.278 71.2524 147.478 72.1494 141.678C72.0075 141.937 71.8722 142.183 71.743 142.419C70.8769 148.04 70.0445 153.661 69.2459 159.283C69.3536 159.217 69.4602 159.149 69.5663 159.078ZM63.1629 150.364C63.2804 149.621 63.3984 148.877 63.5172 148.133C63.4107 148.21 63.3017 148.284 63.1898 148.354C63.0815 149.033 62.9737 149.712 62.8665 150.391C62.9651 150.385 63.0632 150.377 63.1629 150.364ZM55.6024 149.989C55.7545 149.085 55.9075 148.181 56.0615 147.277H55.7687C55.6043 148.242 55.441 149.208 55.2789 150.174L55.6024 149.989ZM62.6932 109.909C62.4024 111.361 62.1138 112.812 61.8282 114.264C61.9287 114.279 62.0251 114.287 62.1179 114.288C62.4064 112.823 62.6975 111.357 62.9912 109.891C62.8917 109.897 62.7924 109.903 62.6932 109.909ZM51.8004 129.715C52.423 126.534 53.0586 123.352 53.7072 120.17C53.6471 120.129 53.5904 120.09 53.5378 120.053C53.6333 119.38 53.7083 118.852 53.7671 118.436C52.964 122.349 52.1804 126.262 51.4164 130.175C51.5501 130.015 51.678 129.862 51.8004 129.715ZM56.2666 107.927C56.1162 108.117 55.9782 108.301 55.8545 108.473C58.5444 95.8892 61.437 83.3062 64.5323 70.7235C64.5722 70.6828 64.6086 70.6452 64.641 70.611C64.6184 70.599 64.594 70.588 64.5682 70.5778C65.9609 64.9194 67.3945 59.261 68.8692 53.6027C68.9855 53.542 69.1012 53.4806 69.2161 53.4184C64.4768 71.5875 60.1603 89.7571 56.2666 107.927ZM46.8587 118.444C47.4234 115.847 47.9972 113.25 48.5802 110.653C48.4799 110.66 48.3797 110.667 48.2795 110.673C47.6781 113.353 47.0864 116.034 46.5045 118.714C46.6023 118.627 46.7165 118.54 46.8587 118.444ZM36.2046 135.401C36.2669 135.11 36.3294 134.818 36.392 134.526C36.2757 134.773 36.1672 135.009 36.069 135.229L36.2046 135.401ZM37.3029 130.319C38.7011 123.921 40.158 117.523 41.6736 111.124C41.5727 111.132 41.4719 111.139 41.3713 111.146C39.8193 117.701 38.3289 124.256 36.9001 130.81C37.0154 130.666 37.1344 130.523 37.2533 130.379C37.2698 130.359 37.2863 130.339 37.3029 130.319ZM30.8183 127.113C30.8018 127.054 30.7764 126.996 30.7395 126.937C30.6943 126.889 30.6491 126.856 30.5871 126.833C30.7685 126.059 30.9508 125.286 31.134 124.512L31.4797 123.964C31.4074 123.964 31.3352 123.966 31.263 123.968C31.4364 123.238 31.6106 122.507 31.7857 121.777C31.8859 121.806 31.9805 121.822 32.0706 121.828C31.6485 123.589 31.231 125.351 30.8183 127.113ZM37.5441 99.9908C37.4225 100.081 37.299 100.172 37.1736 100.265C39.6225 90.8937 42.2044 81.5228 44.9194 72.1518C45.0441 72.0667 45.1691 71.982 45.2944 71.8978C42.5781 81.2621 39.9947 90.6264 37.5441 99.9908ZM46.1058 69.114C45.9965 69.1334 45.8904 69.1543 45.7851 69.1794C46.21 67.7277 46.6382 66.276 47.0695 64.8243C47.197 64.7322 47.3249 64.6408 47.453 64.55C47.0004 66.0713 46.5514 67.5926 46.1058 69.114ZM54.7133 60.0602C54.1372 62.0775 53.5669 64.0948 53.0026 66.1122C53.1192 66.0537 53.2358 65.9955 53.3518 65.9376C53.9185 63.914 54.491 61.8904 55.0694 59.8668C54.9516 59.9305 54.8328 59.9949 54.7133 60.0602ZM47.7644 63.5051C47.6362 63.5965 47.5081 63.6884 47.3801 63.7808C47.4776 63.4537 47.5753 63.1266 47.6731 62.7995C47.6788 62.7956 47.6845 62.7918 47.6902 62.7879C47.811 62.7058 47.9319 62.6237 48.0527 62.5412C47.9565 62.8625 47.8603 63.1838 47.7644 63.5051ZM55.2964 58.0251C55.2302 58.255 55.1642 58.485 55.0983 58.7149C55.2305 58.6237 55.3578 58.5325 55.4779 58.4413C55.5261 58.2734 55.5743 58.1055 55.6226 57.9376H55.6104C55.4847 57.9708 55.3857 57.997 55.2964 58.0251ZM55.7195 56.557C55.6919 56.6525 55.6643 56.7481 55.6367 56.8437C55.7592 56.7671 55.8818 56.6904 56.0044 56.6135C56.0334 56.513 56.0625 56.4124 56.0916 56.3118C55.9794 56.3844 55.8683 56.4569 55.7585 56.5295C55.7451 56.5389 55.7321 56.5481 55.7195 56.557ZM48.414 61.3371L48.3564 61.3798L48.2083 61.5362C48.137 61.6037 48.0648 61.6702 47.992 61.7358C48.0357 61.5899 48.0796 61.444 48.1235 61.298C48.1517 61.2774 48.18 61.2532 48.2083 61.2233L48.4936 61.0725C48.4671 61.1607 48.4405 61.2489 48.414 61.3371ZM40.5901 66.599C40.5921 66.5925 40.5942 66.586 40.5963 66.5794L40.2031 66.8673C40.2025 66.8693 40.202 66.8712 40.2013 66.8731C40.3309 66.7817 40.4605 66.6903 40.5901 66.599ZM32.5927 72.4201C32.4583 72.5216 32.324 72.6233 32.1898 72.7251C32.1883 72.7295 32.1869 72.7339 32.1855 72.7383L32.5841 72.4464C32.587 72.4376 32.5899 72.4289 32.5927 72.4201ZM40.1682 66.9793C40.298 66.8877 40.4277 66.7962 40.5571 66.7048C40.4737 66.9723 40.3905 67.2397 40.3073 67.5071C40.1329 67.7103 39.9654 67.9225 39.8059 68.145C39.9265 67.7564 40.0473 67.3679 40.1682 66.9793ZM39.6197 68.7456C39.7475 68.6591 39.8754 68.5728 40.0031 68.4869C39.9436 68.6789 39.8842 68.8709 39.8248 69.0629C39.6824 69.1545 39.5593 69.2011 39.4784 69.2028C39.5255 69.0504 39.5726 68.898 39.6197 68.7456ZM30.6749 78.4216C31.3036 76.4331 31.939 74.4445 32.5811 72.4559C32.4471 72.5557 32.3134 72.6554 32.1801 72.7551C31.5382 74.7457 30.9031 76.7363 30.2747 78.7269C30.4078 78.6247 30.5412 78.523 30.6749 78.4216ZM29.6651 81.6339C29.8518 81.0367 30.0391 80.4394 30.2269 79.8422H29.9993C29.9683 79.8586 29.9379 79.8744 29.9083 79.8896C29.714 80.5077 29.5203 81.1258 29.3273 81.7439C29.4418 81.7005 29.5543 81.6639 29.6651 81.6339ZM36.8409 77.8659C36.9904 77.7326 37.1282 77.6085 37.2533 77.4953L37.2545 77.4948C34.4814 86.7281 31.8448 95.9615 29.3447 105.195C29.2296 105.243 29.1176 105.288 29.0089 105.328C31.4855 96.1742 34.0961 87.02 36.8409 77.8659ZM23.2606 102.945C25.1022 96.5617 27.0127 90.1789 28.992 83.7961C28.8694 83.8635 28.7482 83.9281 28.6288 83.9895C26.6668 90.3231 24.7726 96.6568 22.9462 102.99C23.0496 102.975 23.1544 102.959 23.2606 102.945ZM21.2648 109.257C21.3369 109.257 21.4021 109.257 21.4619 109.257C21.1314 110.431 20.8032 111.605 20.4774 112.78C20.3746 112.789 20.272 112.798 20.1695 112.807C20.5074 111.589 20.8477 110.371 21.1906 109.152L21.2648 109.257ZM19.6576 115.753C19.9158 114.811 20.1755 113.869 20.4367 112.927C20.3339 112.936 20.2313 112.945 20.1288 112.954C19.851 113.957 19.5747 114.96 19.3003 115.962C19.4193 115.889 19.5385 115.819 19.6576 115.753ZM15.512 131.38C16.3601 128.074 17.2266 124.767 18.1115 121.461H18.0079C17.9217 121.534 17.8371 121.605 17.7549 121.675C16.8209 125.168 15.9077 128.662 15.015 132.156C15.1848 131.902 15.3501 131.644 15.512 131.38ZM13.5027 113.435C13.3989 113.445 13.2955 113.456 13.1921 113.466C16.5674 101.897 20.1813 90.3288 24.0338 78.7602C24.1698 78.6547 24.3072 78.5482 24.4457 78.4408C20.5553 90.1056 16.9077 101.77 13.5027 113.435ZM6.57361 114.164C9.55362 104.456 12.7109 94.7477 16.0456 85.0397C15.9031 85.155 15.7615 85.2699 15.6208 85.3844C12.327 94.9892 9.20675 104.594 6.25998 114.199C6.36426 114.188 6.4688 114.176 6.57361 114.164ZM-0.145136 114.973C2.27251 107.479 4.80158 99.9858 7.44204 92.4924C7.29124 92.6319 7.13911 92.773 6.98559 92.9158C4.39515 100.282 1.91236 107.648 -0.462862 115.014C-0.357345 115 -0.251444 114.987 -0.145136 114.973ZM-7.02534 115.959C-5.40228 111.165 -3.73119 106.371 -2.01206 101.578C-2.16906 101.732 -2.32756 101.888 -2.48759 102.045C-4.15331 106.7 -5.77373 111.356 -7.34887 116.011C-7.24164 115.994 -7.1338 115.976 -7.02534 115.959ZM-13.9586 117.262C-13.2504 115.267 -12.5334 113.272 -11.8078 111.276C-11.9676 111.435 -12.1287 111.595 -12.2908 111.756C-12.9661 113.617 -13.6337 115.479 -14.2937 117.34C-14.1835 117.314 -14.0717 117.288 -13.9586 117.262ZM32.2373 72.5777C32.3705 72.4791 32.5039 72.3806 32.6372 72.2823C32.6398 72.2741 32.6424 72.266 32.6451 72.2578C32.511 72.3582 32.3771 72.4587 32.2433 72.5591C32.2413 72.5653 32.2393 72.5715 32.2373 72.5777ZM40.258 66.6913C40.2461 66.7293 40.2343 66.7673 40.2225 66.8052C40.3527 66.712 40.4829 66.6188 40.6131 66.5255C40.6246 66.4886 40.6361 66.4517 40.6476 66.4148C40.5176 66.5069 40.3877 66.5991 40.258 66.6913ZM61.7419 56.5751L62.0925 56.3898C60.5638 61.9786 59.0773 67.5673 57.6333 73.1561C57.5185 73.2395 57.396 73.3291 57.2651 73.4252C58.7146 67.8085 60.2069 62.1918 61.7419 56.5751ZM48.6982 110.128C50.0195 104.255 51.3875 98.3812 52.8024 92.5078C52.6622 92.68 52.5215 92.8529 52.3803 93.0263C51.0084 98.7345 49.6805 104.443 48.3969 110.151C48.4972 110.143 48.5976 110.136 48.6982 110.128ZM41.7899 110.633C42.467 107.781 43.1557 104.928 43.8561 102.075C43.7281 102.181 43.6021 102.289 43.4788 102.4C42.8042 105.152 42.1405 107.904 41.4876 110.656C41.5883 110.648 41.689 110.641 41.7899 110.633ZM52.6818 67.2611C50.4254 75.3578 48.2629 83.4543 46.1944 91.5508C46.3469 91.3567 46.4961 91.1604 46.6442 90.9589C48.6874 82.9817 50.8218 75.0045 53.0473 67.0271C52.9256 67.1054 52.8038 67.1834 52.6818 67.2611ZM70.5038 47.394L70.8559 47.1956C70.855 47.1987 70.8542 47.2019 70.8533 47.205C70.8268 47.3044 70.8004 47.4038 70.774 47.5032C70.6584 47.5656 70.5418 47.629 70.4241 47.6936C70.4496 47.5976 70.4752 47.5017 70.5007 47.4057C70.5017 47.4018 70.5027 47.3979 70.5038 47.394ZM76.106 50.1287C71.2084 69.8451 66.7797 89.5607 62.8201 109.276C62.9194 109.27 63.0188 109.264 63.1183 109.258C67.0937 89.4707 71.5417 69.6829 76.4622 49.8943C76.3353 49.978 76.2169 50.0559 76.106 50.1287ZM77.9062 42.9646C77.8907 43.0256 77.8752 43.0865 77.8597 43.1474L78.2039 42.9672C78.22 42.9037 78.2362 42.8403 78.2523 42.7768C78.1372 42.839 78.0218 42.9016 77.9062 42.9646ZM85.0973 39.2415C85.2106 39.184 85.3235 39.1269 85.4362 39.0701C85.426 39.1122 85.4158 39.1543 85.4056 39.1965L85.065 39.3748C85.0758 39.3304 85.0865 39.286 85.0973 39.2415ZM85.2962 39.6487C85.2979 39.6415 85.2997 39.6344 85.3014 39.6272C85.2491 39.6547 85.1969 39.6823 85.1446 39.7099C85.0832 39.7424 85.0218 39.7748 84.9605 39.8071C84.9594 39.8116 84.9583 39.8161 84.9572 39.8207L85.2962 39.6487ZM92.1825 35.9517C92.1766 35.9774 92.1707 36.0031 92.1648 36.0288C92.2181 36.0041 92.2714 35.9795 92.3246 35.9549C92.382 35.9284 92.4393 35.9019 92.4966 35.8753C92.5044 35.8413 92.5122 35.8074 92.52 35.7734L92.1825 35.9517ZM99.5925 32.5192C99.4817 32.5693 99.3721 32.6191 99.2644 32.6682C99.2617 32.6803 99.2591 32.6925 99.2564 32.7046C99.3657 32.6572 99.4747 32.6098 99.5831 32.5624C99.5862 32.548 99.5894 32.5336 99.5925 32.5192ZM96.8928 45.1513C97.0109 44.5877 97.1293 44.0241 97.248 43.4605C97.1242 43.5667 97.0056 43.6624 96.8922 43.7487C96.7833 44.2663 96.6747 44.7839 96.5663 45.3016C96.6778 45.2524 96.7866 45.2023 96.8928 45.1513ZM96.593 46.5856C96.5994 46.5552 96.6057 46.5248 96.6121 46.4944C96.5198 46.5094 96.4177 46.514 96.3127 46.5154C96.2908 46.6201 96.269 46.7247 96.2472 46.8294C96.3575 46.7516 96.4727 46.6704 96.593 46.5856ZM96.01 49.394C96.1213 48.8552 96.2329 48.3165 96.3449 47.7778C96.2345 47.8371 96.124 47.896 96.0132 47.9546C95.8882 48.5566 95.7636 49.1587 95.6394 49.7607C95.752 49.6403 95.8764 49.5177 96.01 49.394ZM95.5187 51.7806C95.6076 51.347 95.6967 50.9135 95.786 50.48C95.6884 50.4933 95.5937 50.4921 95.4907 50.4818C95.3914 50.9641 95.2923 51.4464 95.1935 51.9288C95.301 51.8766 95.4096 51.8276 95.5187 51.7806ZM94.8164 55.2244C95.0014 54.312 95.1873 53.3995 95.3739 52.4871C95.2626 52.5477 95.1521 52.6072 95.0428 52.6652C94.891 53.4079 94.7396 54.1506 94.5889 54.8933C94.6501 55.0036 94.7281 55.114 94.8164 55.2244ZM97.141 42.568C97.133 42.6061 97.125 42.6443 97.1169 42.6824C97.1479 42.6567 97.179 42.6307 97.21 42.6045L97.141 42.568ZM90.0591 46.6538C90.1794 46.1123 90.3002 45.5708 90.4211 45.0294C90.3113 45.1057 90.1946 45.1876 90.07 45.2759C88.3043 53.1854 86.6053 61.095 84.9732 69.0046C85.1142 68.7851 85.2607 68.5535 85.411 68.3132C86.8986 61.1227 88.4415 53.9322 90.0395 46.7418C90.046 46.7124 90.0526 46.6831 90.0591 46.6538ZM90.346 44.0421C90.2616 44.4186 90.1774 44.795 90.0933 45.1715C90.196 45.0976 90.3103 45.0195 90.4411 44.9398C90.5307 44.5394 90.6203 44.139 90.7102 43.7386C90.6335 43.7997 90.5538 43.867 90.4742 43.9344C90.4313 43.9706 90.3884 44.0069 90.346 44.0421ZM83.5902 46.516C83.6144 46.5028 83.6384 46.4896 83.6625 46.4766C78.7433 67.2604 74.3151 88.0442 70.3779 108.828C70.2789 108.833 70.1801 108.837 70.0813 108.842C73.9979 88.1614 78.4005 67.4805 83.289 46.7997C83.3983 46.706 83.5003 46.611 83.5902 46.516ZM69.796 111.919C69.9494 111.099 70.1035 110.279 70.2584 109.46C70.1594 109.464 70.0606 109.469 69.9618 109.474C69.8064 110.296 69.6519 111.119 69.4981 111.941L69.796 111.919ZM62.0182 157.741C62.0759 157.363 62.1337 156.984 62.1917 156.606C62.0267 156.905 61.8983 157.232 61.8282 157.603C61.8915 157.657 61.9548 157.702 62.0182 157.741ZM68.2217 166.627C68.3516 166.537 68.4583 166.455 68.5468 166.379C68.2635 168.446 67.9848 170.512 67.7107 172.579C67.6251 172.835 67.5394 173.068 67.4537 173.249C67.5096 173.254 67.565 173.258 67.6202 173.262C67.1928 176.497 66.7765 179.731 66.3714 182.966C66.2191 183.352 66.0757 183.729 65.9394 184.099C66.664 178.275 67.4247 172.451 68.2217 166.627ZM75.5138 171.073C75.2478 173.194 74.9862 175.316 74.7291 177.437C74.823 177.426 74.9217 177.412 75.0249 177.393C75.2859 175.24 75.5516 173.087 75.8219 170.934C75.7961 170.923 75.7702 170.913 75.744 170.902C75.7243 170.902 75.662 170.953 75.5556 171.039C75.5424 171.05 75.5284 171.061 75.5138 171.073ZM84.5669 161.448C84.5021 161.974 84.4376 162.499 84.3733 163.024C84.4764 163.042 84.5708 163.054 84.6596 163.059C84.7148 162.607 84.7703 162.156 84.8259 161.704C84.7455 161.629 84.6606 161.545 84.5669 161.448ZM85.9243 152.981C85.8843 152.956 85.8464 152.932 85.8108 152.909C85.7882 152.898 85.731 152.893 85.6446 152.894C86.0484 149.756 86.4615 146.618 86.8838 143.479C86.986 143.431 87.0892 143.383 87.1939 143.338C87.015 144.666 86.8378 145.994 86.6622 147.322C86.432 147.61 86.2845 147.998 86.2549 148.529H86.5032C86.3082 150.013 86.1152 151.497 85.9243 152.981ZM84.9887 158.057C85.0155 158.062 85.0428 158.067 85.0706 158.073C85.0253 158.197 84.9826 158.314 84.9426 158.424C84.958 158.302 84.9733 158.179 84.9887 158.057ZM96.0283 131.093C95.9776 131.475 95.927 131.857 95.8765 132.24C96.2152 131.749 96.3596 131.342 96.0283 131.093ZM-47.3313 245.17C-47.1783 244.253 -47.0234 243.337 -46.8667 242.421C-46.984 242.578 -47.1111 242.758 -47.2525 242.966C-47.3802 243.716 -47.5066 244.467 -47.6318 245.217C-47.5392 245.209 -47.4366 245.191 -47.3313 245.17ZM-112.781 292.85C-112.731 292.625 -112.681 292.403 -112.631 292.181C-112.689 292.411 -112.747 292.642 -112.804 292.872C-112.796 292.865 -112.789 292.857 -112.781 292.85ZM115.721 359.144C115.721 355.935 115.727 352.725 115.74 349.515C115.641 349.429 115.545 349.339 115.453 349.245C115.439 352.564 115.433 355.883 115.433 359.203C115.527 359.184 115.623 359.164 115.721 359.144ZM116.01 395.677C115.995 394.743 115.981 393.808 115.968 392.874C115.868 392.769 115.77 392.666 115.675 392.565C115.696 394.031 115.718 395.497 115.742 396.963C115.84 396.534 115.931 396.106 116.01 395.677Z" stroke="url(#paint0_linear_27_435)" stroke-width="0.72" stroke-miterlimit="10"/>
<defs>
<linearGradient id="paint0_linear_27_435" x1="110.065" y1="105.988" x2="324.757" y2="507.449" gradientUnits="userSpaceOnUse">
<stop stop-color="#9C9C9C"/>
<stop offset="1" stop-color="#BBBBBB" stop-opacity="0"/>
</linearGradient>
</defs>
</svg>
