<svg width="44" height="44" viewBox="0 0 44 44" fill="none" xmlns="http://www.w3.org/2000/svg">
<path d="M22.0653 4.88892C24.3823 4.88892 26.5878 5.33448 28.6819 6.2256C30.8206 7.11673 32.6474 8.34202 34.1624 9.90149C35.6773 11.461 36.8803 13.2878 37.7714 15.3819C38.7071 17.4315 39.1527 19.637 39.1081 21.9985C39.1527 24.36 38.7071 26.5878 37.7714 28.6819C36.8803 30.7315 35.6773 32.5361 34.1624 34.0955C32.6474 35.655 30.8206 36.8803 28.6819 37.7714C26.5878 38.6625 24.3823 39.1081 22.0653 39.1081C19.7039 39.1081 17.4761 38.6625 15.3819 37.7714C13.3323 36.8803 11.5278 35.655 9.96833 34.0955C8.40886 32.5361 7.18356 30.7315 6.29244 28.6819C5.40131 26.5878 4.93347 24.36 4.88892 21.9985C4.93347 19.637 5.40131 17.4315 6.29244 15.3819C7.18356 13.2878 8.40886 11.461 9.96833 9.90149C11.5278 8.34202 13.3323 7.11673 15.3819 6.2256C17.4761 5.33448 19.7039 4.88892 22.0653 4.88892ZM6.96078 23.001C7.04989 23.5357 7.11673 24.0704 7.16128 24.605C7.2504 25.1397 7.38406 25.6744 7.56229 26.2091C7.74051 26.6992 7.89646 27.1893 8.03013 27.6794C8.20836 28.125 8.45341 28.5706 8.76531 29.0161H13.9116C13.8224 28.526 13.711 28.0359 13.5774 27.5458C13.4437 27.0556 13.3323 26.5655 13.2432 26.0754C13.1987 25.5853 13.1318 25.0952 13.0427 24.605C12.9536 24.0704 12.9313 23.5357 12.9759 23.001H6.96078ZM12.9759 20.996C12.9313 20.4613 12.9536 19.9489 13.0427 19.4588C13.1318 18.9241 13.1987 18.4117 13.2432 17.9216C13.2878 17.4315 13.3769 16.9414 13.5105 16.4513C13.6888 15.9611 13.8224 15.471 13.9116 14.9809H8.76531C8.45341 15.4265 8.20836 15.8943 8.03013 16.3844C7.89646 16.83 7.74051 17.3201 7.56229 17.8548C7.38406 18.3449 7.2504 18.8573 7.16128 19.392C7.11673 19.9266 7.04989 20.4613 6.96078 20.996H12.9759ZM16.0503 14.9809C15.9166 15.4265 15.7606 15.9166 15.5824 16.4513C15.4487 16.9414 15.3374 17.4315 15.2482 17.9216C15.2037 18.4117 15.1368 18.9241 15.0477 19.4588C14.9586 19.9489 14.9363 20.4613 14.9809 20.996H29.0829C29.0829 20.4613 29.0384 19.9489 28.9493 19.4588C28.9047 18.9241 28.8379 18.4117 28.7488 17.9216C28.6597 17.4315 28.526 16.9414 28.3478 16.4513C28.2141 15.9166 28.1027 15.4265 28.0136 14.9809H16.0503ZM14.9809 23.001C14.9363 23.5357 14.9586 24.0704 15.0477 24.605C15.1368 25.0952 15.226 25.5853 15.3151 26.0754C15.4042 26.5655 15.5156 27.0779 15.6492 27.6126C15.7829 28.1027 15.9166 28.5706 16.0503 29.0161H28.0136C28.1027 28.5706 28.2141 28.1027 28.3478 27.6126C28.526 27.0779 28.6597 26.5655 28.7488 26.0754C28.8379 25.5853 28.9047 25.0952 28.9493 24.605C29.0384 24.0704 29.0829 23.5357 29.0829 23.001H14.9809ZM31.088 23.001C31.088 23.5357 31.0434 24.0704 30.9543 24.605C30.9098 25.0952 30.8429 25.5853 30.7538 26.0754C30.7093 26.5655 30.6201 27.0556 30.4865 27.5458C30.3528 28.0359 30.2191 28.526 30.0855 29.0161H35.3654C35.6773 28.5706 35.9001 28.125 36.0337 27.6794C36.2119 27.1893 36.3902 26.6992 36.5684 26.2091C36.7466 25.6744 36.858 25.1397 36.9026 24.605C36.9917 24.0704 37.0808 23.5357 37.1699 23.001H31.088ZM31.1548 20.996H37.1031C37.1031 20.4613 37.0362 19.9266 36.9026 19.392C36.8135 18.8573 36.7021 18.3449 36.5684 17.8548C36.4347 17.3201 36.2565 16.83 36.0337 16.3844C35.8555 15.8943 35.655 15.4265 35.4322 14.9809H30.0855C30.2637 15.471 30.3974 15.9611 30.4865 16.4513C30.5756 16.9414 30.6647 17.4315 30.7538 17.9216C30.8875 18.4117 30.9543 18.9241 30.9543 19.4588C30.9989 19.9489 31.0657 20.4613 31.1548 20.996ZM34.0955 12.909H34.1624C33.6277 12.2852 33.0707 11.706 32.4915 11.1713C31.9568 10.5921 31.333 10.0797 30.6201 9.63415C29.9518 9.14404 29.2612 8.72075 28.5483 8.3643C27.8354 8.00785 27.0556 7.71824 26.2091 7.49546C26.5655 7.94102 26.8774 8.38658 27.1448 8.83214C27.4121 9.23315 27.6794 9.67871 27.9468 10.1688C28.2587 10.6144 28.5037 11.0822 28.6819 11.5724C28.9047 12.0179 29.1498 12.4635 29.4171 12.909H34.0955ZM23.1347 6.96078H23.2015C23.0679 6.96078 22.9565 6.96078 22.8674 6.96078C22.8228 6.96078 22.7337 6.96078 22.6 6.96078C22.5109 6.91622 22.4218 6.89395 22.3327 6.89395C22.2881 6.89395 22.1767 6.89395 21.9985 6.89395C21.954 6.89395 21.8648 6.89395 21.7312 6.89395C21.6421 6.89395 21.5529 6.91622 21.4638 6.96078C21.3747 6.96078 21.2633 6.96078 21.1297 6.96078C21.0405 6.96078 20.9514 6.96078 20.8623 6.96078C20.4168 7.40634 20.0158 7.87418 19.6593 8.3643C19.3029 8.85442 18.9464 9.34454 18.59 9.83466C18.2335 10.3248 17.9216 10.8372 17.6543 11.3718C17.4315 11.862 17.1642 12.3744 16.8523 12.909H27.2116C26.8997 12.3744 26.6101 11.862 26.3427 11.3718C26.0754 10.8372 25.7635 10.3248 25.4071 9.83466C25.0506 9.34454 24.6942 8.85442 24.3377 8.3643C24.0258 7.87418 23.6248 7.40634 23.1347 6.96078ZM17.7211 7.56229H17.7879C16.9859 7.78507 16.2285 8.07469 15.5156 8.43114C14.8027 8.78759 14.1121 9.18859 13.4437 9.63415C12.7754 10.0797 12.1516 10.5921 11.5724 11.1713C11.0377 11.706 10.503 12.2852 9.96833 12.909H14.7136C14.8472 12.4635 15.0477 12.0179 15.3151 11.5724C15.5824 11.0822 15.8275 10.6144 16.0503 10.1688C16.273 9.72327 16.5404 9.2777 16.8523 8.83214C17.1642 8.38658 17.4538 7.9633 17.7211 7.56229ZM9.96833 31.088H10.0352C10.4807 31.7118 10.9931 32.3133 11.5724 32.8925C12.1961 33.4272 12.8199 33.9173 13.4437 34.3629C14.0675 34.8084 14.7581 35.2094 15.5156 35.5659C16.273 35.9223 17.0305 36.2342 17.7879 36.5016C17.4761 36.056 17.1642 35.6104 16.8523 35.1649C16.5404 34.7193 16.273 34.2737 16.0503 33.8282C15.8275 33.3826 15.5824 32.9371 15.3151 32.4915C15.0477 32.0014 14.8472 31.5335 14.7136 31.088H9.96833ZM20.8623 37.0362H20.9292C20.9737 37.0362 21.0405 37.0362 21.1297 37.0362C21.2633 37.0362 21.3747 37.0362 21.4638 37.0362C21.5529 37.0808 21.6421 37.1031 21.7312 37.1031C21.8648 37.1031 21.954 37.1031 21.9985 37.1031C22.1767 37.1031 22.2881 37.1031 22.3327 37.1031C22.4218 37.1031 22.5109 37.0808 22.6 37.0362C22.7337 37.0362 22.8228 37.0362 22.8674 37.0362C22.9565 37.0362 23.0679 37.0362 23.2015 37.0362C23.558 36.5907 23.9367 36.1228 24.3377 35.6327C24.7387 35.1426 25.0952 34.6525 25.4071 34.1624C25.719 33.6722 26.0308 33.1821 26.3427 32.692C26.6546 32.1573 26.922 31.6227 27.1448 31.088H16.9191C17.1419 31.6227 17.4092 32.1573 17.7211 32.692C18.033 33.1821 18.3449 33.6722 18.6568 34.1624C18.9687 34.6525 19.3029 35.1426 19.6593 35.6327C20.0603 36.1228 20.4613 36.5907 20.8623 37.0362ZM26.2091 36.5016H26.2759C27.0334 36.2788 27.7908 35.9892 28.5483 35.6327C29.3057 35.2763 29.9964 34.8753 30.6201 34.4297C31.2885 33.9396 31.9123 33.4272 32.4915 32.8925C33.1153 32.3133 33.65 31.7118 34.0955 31.088H29.4171C29.1498 31.5335 28.9047 32.0014 28.6819 32.4915C28.5037 32.9371 28.2587 33.4049 27.9468 33.895C27.6794 34.3406 27.4121 34.7861 27.1448 35.2317C26.8774 35.6327 26.5655 36.056 26.2091 36.5016Z" fill="#111111"/>
</svg>
