<svg width="28" height="26" viewBox="0 0 28 26" fill="none" xmlns="http://www.w3.org/2000/svg">
<path d="M18.5674 15.2668C19.251 15.2668 19.8057 15.8215 19.8057 16.5051V17.7424C19.8057 18.4261 19.251 18.9807 18.5674 18.9807H1.23828C0.554635 18.9807 0 18.4261 0 17.7424V16.5051C0 15.8215 0.554635 15.2668 1.23828 15.2668H3.71387L4.58398 7.42993C4.79295 5.54927 6.38315 4.12622 8.27539 4.12622H11.5303C13.4225 4.12622 15.0127 5.54927 15.2217 7.42993L16.0918 15.2668H18.5674Z" fill="white"/>
<rect x="7.427" y="20.2183" width="4.9514" height="4.9514" rx="1.85678" fill="#F76301"/>
<g filter="url(#filter0_d_27_7146)">
<path fill-rule="evenodd" clip-rule="evenodd" d="M17.3299 13.2037C20.976 13.2037 23.9318 10.248 23.9318 6.60187C23.9318 2.95576 20.976 0 17.3299 0C13.6838 0 10.728 2.95576 10.728 6.60187C10.728 10.248 13.6838 13.2037 17.3299 13.2037Z" fill="#F76301"/>
</g>
<path d="M17.2574 10.216C16.6764 10.216 16.1813 10.0806 15.7719 9.80996C15.3626 9.53268 15.0523 9.13657 14.8411 8.62162C14.6298 8.10007 14.5242 7.47289 14.5242 6.74009C14.5242 5.95446 14.643 5.28768 14.8807 4.73972C15.1184 4.18516 15.4617 3.76264 15.9106 3.47216C16.3595 3.18168 16.8976 3.03644 17.5247 3.03644C17.7822 3.03644 18.0331 3.06615 18.2774 3.12556C18.5216 3.18498 18.7527 3.27411 18.9706 3.39294C19.195 3.50517 19.3964 3.64711 19.5746 3.81876L19.1488 4.78923C18.8979 4.55817 18.6339 4.38982 18.3566 4.28419C18.0859 4.17856 17.8053 4.12575 17.5148 4.12575C17.2244 4.12575 16.9669 4.17856 16.7424 4.28419C16.5246 4.38322 16.3397 4.53506 16.1879 4.73972C16.036 4.93778 15.9205 5.18535 15.8413 5.48243C15.762 5.77952 15.7224 6.12611 15.7224 6.52223V7.10649H15.663C15.729 6.8028 15.8446 6.54203 16.0096 6.32417C16.1747 6.09971 16.3826 5.93136 16.6335 5.81913C16.891 5.70029 17.1748 5.64088 17.4851 5.64088C17.8878 5.64088 18.2443 5.7366 18.5546 5.92806C18.8715 6.11291 19.1191 6.37698 19.2973 6.72028C19.4756 7.05698 19.5647 7.44319 19.5647 7.87891C19.5647 8.32784 19.4657 8.73055 19.2676 9.08705C19.0762 9.43695 18.8055 9.71423 18.4556 9.91889C18.1057 10.1169 17.7063 10.216 17.2574 10.216ZM17.188 9.17618C17.4257 9.17618 17.6337 9.12666 17.8119 9.02763C17.9968 8.92201 18.1387 8.77346 18.2377 8.58201C18.3368 8.39055 18.3863 8.16939 18.3863 7.91852C18.3863 7.66765 18.3368 7.44979 18.2377 7.26494C18.1387 7.08008 17.9968 6.93484 17.8119 6.82921C17.6337 6.72358 17.4224 6.67077 17.1781 6.67077C16.9405 6.67077 16.7292 6.72358 16.5444 6.82921C16.3661 6.93484 16.2275 7.08338 16.1284 7.27484C16.0294 7.45969 15.9799 7.67425 15.9799 7.91852C15.9799 8.16939 16.0294 8.39055 16.1284 8.58201C16.2275 8.77346 16.3661 8.92201 16.5444 9.02763C16.7292 9.12666 16.9438 9.17618 17.188 9.17618Z" fill="#1B1B1B"/>
<defs>
<filter id="filter0_d_27_7146" x="6.72803" y="0" width="21.2039" height="21.2039" filterUnits="userSpaceOnUse" color-interpolation-filters="sRGB">
<feFlood flood-opacity="0" result="BackgroundImageFix"/>
<feColorMatrix in="SourceAlpha" type="matrix" values="0 0 0 0 0 0 0 0 0 0 0 0 0 0 0 0 0 0 127 0" result="hardAlpha"/>
<feOffset dy="4"/>
<feGaussianBlur stdDeviation="2"/>
<feComposite in2="hardAlpha" operator="out"/>
<feColorMatrix type="matrix" values="0 0 0 0 0 0 0 0 0 0 0 0 0 0 0 0 0 0 0.25 0"/>
<feBlend mode="normal" in2="BackgroundImageFix" result="effect1_dropShadow_27_7146"/>
<feBlend mode="normal" in="SourceGraphic" in2="effect1_dropShadow_27_7146" result="shape"/>
</filter>
</defs>
</svg>
