<svg width="89" height="32" viewBox="0 0 89 32" fill="none" xmlns="http://www.w3.org/2000/svg">
<path d="M25.664 0L12.224 11.68L12.096 12.288L19.552 22.4H13.952L7.648 13.696H6.912L5.088 22.4H0L4.768 0H9.824L7.904 9.056H8.48L18.816 0H25.664Z" fill="white"/>
<path d="M29.1698 15.456L33.8738 6.784H39.3138L28.0818 27.68C27.0898 29.504 25.0738 31.296 21.9377 31.296C18.8017 31.296 17.1057 31.296 16.7537 31.296L17.6497 26.976C18.3217 26.976 22.0658 26.976 22.4178 26.976C22.8658 26.976 23.1858 26.688 23.3458 26.336L25.4578 22.4H23.4417L21.5217 6.784H26.3538L27.4418 15.456C27.7298 16.96 27.5058 17.76 27.5058 17.76H28.1458C28.1458 17.76 28.2417 16.96 29.1698 15.456Z" fill="white"/>
<path d="M55.7108 14.24L53.9827 22.4H48.9268L50.6548 13.984C50.9428 12.512 50.5907 10.72 48.2547 10.336C45.9507 9.952 44.8307 11.488 44.5107 12.96C44.3187 13.824 43.7747 16.352 43.5187 17.632L42.5268 22.4H37.4388L40.7668 6.784H45.8548L45.8228 6.88C45.4068 8.16 44.1268 10.048 44.1268 10.048H44.7668C46.5588 6.368 49.8868 6.144 51.7108 6.592C56.1268 7.712 56.1908 11.936 55.7108 14.24Z" fill="white"/>
<path d="M59.7882 15.872L60.7483 11.424H57.6443L58.6043 6.784H61.7083L63.1483 0H68.2043L66.7643 6.784H71.9163L70.9242 11.424H65.8043L64.6203 16.96C64.5243 17.408 64.7802 17.76 65.2282 17.76C65.6442 17.76 69.1963 17.76 69.5803 17.76L68.5882 22.4C67.4042 22.4 68.6203 22.4 65.0683 22.4C60.6523 22.4 59.1163 19.072 59.7882 15.872Z" fill="white"/>
<path d="M78.734 19.04C81.71 19.04 83.438 16.48 83.95 14.208C84.334 12.32 84.014 10.144 81.486 10.144C78.51 10.144 76.75 12.704 76.238 14.976C75.854 16.864 76.206 19.04 78.734 19.04ZM81.422 6.4C87.534 6.4 88.974 11.008 88.11 14.976C87.374 18.56 84.462 22.784 78.798 22.784C72.654 22.784 71.214 18.176 72.078 14.208C72.814 10.624 75.726 6.4 81.422 6.4Z" fill="white"/>
</svg>
