<svg width="100" height="79" viewBox="0 0 100 79" fill="none" xmlns="http://www.w3.org/2000/svg">
<path d="M73.0337 24.1948C87.4906 24.1948 100 36.6292 100 51.0112C100 66.5918 88.015 78.6517 72.1348 78.6517C57.7528 78.6517 45.2434 68.6142 45.2434 52.4345V0H53.5581V32.0599L54.5318 31.0112C58.2023 27.4906 63.3708 24.1948 73.0337 24.1948ZM72.2097 71.0861C84.0449 71.0861 91.5356 62.7715 91.5356 51.7603C91.5356 41.6479 84.4195 31.985 72.4345 31.985C60.3745 31.985 52.9588 40.9738 52.9588 51.985C52.8839 62.9213 61.7228 71.0861 72.2097 71.0861ZM28.6142 6.36704C34.8315 12.8839 35.5056 16.4794 37.6779 22.8464L41.3483 34.8315C41.3483 34.8315 37.6779 34.1573 34.6816 33.7079C31.236 33.1835 29.6629 32.6592 25.2434 30.8614C20.824 29.0637 16.8539 24.7191 12.9588 19.8502C9.13858 15.0562 0 7.41573 0 7.41573C0 7.41573 2.84644 7.56554 5.69288 8.31461C8.01498 8.91386 14.1573 10.8614 20.4494 14.0824C21.8727 14.8315 22.6217 15.2809 23.97 16.1049C26.0674 17.3783 28.2397 19.3258 30.3371 21.4232C32.809 23.8951 34.9813 25.9176 36.8539 28.1648C34.8315 24.4944 29.588 11.236 19.4007 0.299625C18.427 -0.82397 26.4419 4.11985 28.6142 6.36704Z" fill="white"/>
</svg>
