<svg width="125" height="125" viewBox="0 0 125 125" fill="none" xmlns="http://www.w3.org/2000/svg">
<path d="M62.5 125C97.0101 125 125 97.0101 125 62.5C125 27.9899 97.0101 0 62.5 0C27.9899 0 0 27.9899 0 62.5C0 97.0101 27.9696 125 62.5 125Z" fill="#2CA01C"/>
<path d="M41.6594 38.1868C28.2332 38.1868 17.3459 49.0741 17.3459 62.5003C17.3459 75.9265 28.2129 86.7934 41.6594 86.7934H45.1328V77.7749H41.6594C33.2299 77.7749 26.3848 70.9298 26.3848 62.5003C26.3848 54.0708 33.2299 47.2257 41.6594 47.2257H50.0076V94.4511C50.0076 99.4275 54.0497 103.47 59.0262 103.47V38.1868H41.6594ZM83.3396 86.7934C96.7658 86.7934 107.653 75.9062 107.653 62.5003C107.653 49.0944 96.7862 38.2072 83.3396 38.2072H79.8663V47.2257H83.3396C91.7691 47.2257 98.6142 54.0708 98.6142 62.5003C98.6142 70.9298 91.7691 77.7749 83.3396 77.7749H74.9914V30.5495C74.9914 25.5731 70.9493 21.531 65.9729 21.531V86.7934H83.3396Z" fill="white"/>
</svg>
