<svg width="125" height="125" viewBox="0 0 125 125" fill="none" xmlns="http://www.w3.org/2000/svg">
<g clip-path="url(#clip0_27_7319)">
<path fill-rule="evenodd" clip-rule="evenodd" d="M45.8653 0C38.9692 0.00509684 33.3882 5.60143 33.3933 12.4974C33.3882 19.3935 38.9743 24.9898 45.8704 24.9949H58.3474V12.5025C58.3525 5.60652 52.7664 0.0101937 45.8653 0C45.8704 0 45.8704 0 45.8653 0ZM45.8653 33.3333H12.6033C5.70727 33.3384 0.121138 38.9348 0.126235 45.8308C0.116041 52.7268 5.70218 58.3231 12.5982 58.3333H45.8653C52.7613 58.3282 58.3474 52.7319 58.3423 45.8359C58.3474 38.9348 52.7613 33.3384 45.8653 33.3333Z" fill="#36C5F0"/>
<path fill-rule="evenodd" clip-rule="evenodd" d="M124.875 45.8308C124.88 38.9348 119.294 33.3384 112.398 33.3333C105.502 33.3384 99.9158 38.9348 99.9209 45.8308V58.3333H112.398C119.294 58.3282 124.88 52.7319 124.875 45.8308ZM91.608 45.8308V12.4974C91.6131 5.60652 86.032 0.0101937 79.136 0C72.24 0.00509684 66.6539 5.60143 66.6589 12.4974V45.8308C66.6488 52.7268 72.2349 58.3231 79.1309 58.3333C86.0269 58.3282 91.6131 52.7319 91.608 45.8308Z" fill="#2EB67D"/>
<path fill-rule="evenodd" clip-rule="evenodd" d="M79.1321 125C86.0281 124.995 91.6143 119.399 91.6092 112.503C91.6143 105.607 86.0281 100.01 79.1321 100.005H66.655V112.503C66.6499 119.394 72.2361 124.99 79.1321 125ZM79.1321 91.6616H112.399C119.295 91.6565 124.881 86.0602 124.876 79.1642C124.886 72.2681 119.3 66.6718 112.404 66.6616H79.1372C72.2412 66.6667 66.655 72.263 66.6601 79.1591C66.655 86.0602 72.2361 91.6565 79.1321 91.6616Z" fill="#ECB22E"/>
<path fill-rule="evenodd" clip-rule="evenodd" d="M0.12598 79.1642C0.120883 86.0602 5.70702 91.6566 12.603 91.6616C19.4991 91.6566 25.0852 86.0602 25.0801 79.1642V66.6667H12.603C5.70702 66.6718 0.120883 72.2682 0.12598 79.1642ZM33.3931 79.1642V112.498C33.3829 119.394 38.969 124.99 45.865 125C52.761 124.995 58.3472 119.399 58.3421 112.503V79.1744C58.3523 72.2784 52.7661 66.682 45.8701 66.6718C38.969 66.6718 33.388 72.2682 33.3931 79.1642Z" fill="#E01E5A"/>
</g>
<defs>
<clipPath id="clip0_27_7319">
<rect width="125" height="125" fill="white"/>
</clipPath>
</defs>
</svg>
