<svg width="184" height="50" viewBox="0 0 184 50" fill="none" xmlns="http://www.w3.org/2000/svg">
<g clip-path="url(#clip0_27_7336)">
<path d="M43.1671 34.1338L43.1414 34.0517L59.4859 19.0887V11.8792H33.2638V19.0887H48.9263L48.9521 19.1578L32.7673 34.1338V41.3435H59.7491V34.1338H43.1671Z" fill="#FFFDF9"/>
<path d="M75.8437 11.1926C72.8191 11.1926 70.354 11.6488 68.4485 12.5612C66.6739 13.3563 65.1787 14.6663 64.1573 16.3213C63.1805 17.9873 62.5669 19.841 62.3574 21.7609L70.3136 22.879C70.6015 21.1838 71.1772 19.9823 72.0404 19.2742C73.0221 18.5337 74.2316 18.1596 75.4596 18.2166C77.0743 18.2166 78.2456 18.6483 78.9739 19.5117C79.6948 20.3751 80.0618 21.5709 80.0618 23.1467V23.9324H72.4118C68.5176 23.9324 65.7202 24.7958 64.0195 26.5226C62.3184 28.2495 61.4695 30.5289 61.4724 33.3609C61.4724 36.262 62.3213 38.4206 64.0195 39.8365C65.7173 41.2526 67.8529 41.9563 70.4261 41.9475C73.6176 41.9475 76.0728 40.8497 77.7908 38.6537C78.8055 37.3041 79.5301 35.7594 79.9191 34.1164H80.2085L81.3051 41.3258H88.5147V23.069C88.5147 19.2958 87.5202 16.3732 85.5316 14.301C83.5426 12.2288 80.3136 11.1926 75.8437 11.1926ZM78.3651 33.6977C77.221 34.6517 75.7232 35.1266 73.8581 35.1266C72.321 35.1266 71.2533 34.8575 70.6548 34.3193C70.3632 34.0647 70.1309 33.749 69.975 33.3945C69.8191 33.0402 69.743 32.6558 69.7526 32.2687C69.7353 31.9037 69.793 31.539 69.9213 31.1968C70.0496 30.8547 70.2463 30.5423 70.4993 30.2785C70.7728 30.0219 71.0956 29.8235 71.4482 29.6951C71.8007 29.5667 72.1754 29.5111 72.55 29.5316H80.0746V30.0281C80.0901 30.7299 79.9437 31.4258 79.6474 32.062C79.3507 32.6983 78.9121 33.2579 78.3651 33.6977Z" fill="#FFFDF9"/>
<path d="M132.106 11.8792H123.588V41.3475H132.106V11.8792Z" fill="#FFFDF9"/>
<path d="M182.393 11.8792C179.987 11.8792 178.09 12.7282 176.703 14.4262C175.707 15.6465 174.95 17.4497 174.432 19.8355H174.182L173.068 11.8792H165.794V41.3435H174.312V26.2335C174.312 24.3282 174.758 22.8676 175.65 21.8516C176.542 20.8357 178.188 20.3277 180.589 20.3277H183.822V11.8792H182.393Z" fill="#FFFDF9"/>
<path d="M157.35 12.8423C155.361 11.6594 152.853 11.0694 149.825 11.0723C145.059 11.0723 141.329 12.4293 138.636 15.1433C135.941 17.8573 134.595 21.5988 134.595 26.3678C134.526 29.251 135.155 32.108 136.429 34.6954C137.595 37.0011 139.412 38.9147 141.653 40.1996C143.909 41.5036 146.593 42.1569 149.704 42.1595C152.395 42.1595 154.643 41.7452 156.448 40.9165C158.144 40.172 159.622 39.0051 160.739 37.5275C161.803 36.0768 162.593 34.444 163.07 32.7096L155.731 30.6546C155.422 31.7825 154.827 32.8115 154.004 33.642C153.175 34.4709 151.787 34.8854 149.838 34.8854C147.522 34.8854 145.795 34.222 144.658 32.8952C143.833 31.9368 143.315 30.5683 143.086 28.7939H163.183C163.265 27.9651 163.308 27.27 163.308 26.7088V24.874C163.356 22.4092 162.847 19.9653 161.818 17.7249C160.855 15.684 159.298 13.9821 157.35 12.8423ZM149.579 18.0962C153.033 18.0962 154.991 19.7957 155.455 23.1947H143.237C143.431 22.0605 143.901 20.9916 144.606 20.0821C145.726 18.7553 147.383 18.0933 149.579 18.0962Z" fill="#FFFDF9"/>
<path d="M127.939 0.00276425C127.298 -0.0190279 126.66 0.0882092 126.061 0.31811C125.462 0.548011 124.916 0.895871 124.455 1.34103C124 1.79046 123.644 2.32956 123.408 2.92408C123.172 3.51861 123.063 4.15559 123.087 4.79467C123.064 5.43787 123.173 6.0789 123.409 6.67776C123.645 7.27665 124.002 7.82051 124.457 8.2754C124.912 8.73029 125.457 9.08647 126.055 9.32173C126.655 9.55698 127.296 9.66625 127.939 9.64272C128.578 9.66687 129.215 9.55765 129.81 9.32202C130.404 9.08643 130.943 8.72956 131.393 8.27419C131.838 7.81412 132.186 7.26871 132.415 6.67073C132.644 6.07276 132.75 5.43463 132.726 4.79467C132.756 4.15849 132.653 3.52316 132.422 2.92925C132.193 2.33534 131.841 1.79591 131.391 1.34538C130.941 0.894857 130.402 0.543143 129.808 0.312708C129.215 0.0822746 128.579 -0.0218078 127.943 0.00708552L127.939 0.00276425Z" fill="#FFFDF9"/>
<path d="M110.346 11.0723C107.445 11.0723 105.114 11.9831 103.353 13.8049C102.048 15.1548 101.092 17.1694 100.482 19.8489H100.21L99.0959 11.8925H91.8213V49.8139H100.339V34.1946H100.65C100.91 35.2361 101.274 36.2485 101.738 37.2165C102.458 38.7933 103.64 40.115 105.127 41.0069C106.668 41.8481 108.405 42.2669 110.16 42.2202C113.726 42.2202 116.442 40.8316 118.307 38.054C120.172 35.2768 121.104 31.4015 121.104 26.4282C121.104 21.6247 120.202 17.8645 118.397 15.1476C116.593 12.4307 113.909 11.0723 110.346 11.0723ZM111.21 32.4246C110.217 33.8636 108.662 34.5831 106.547 34.5831C105.675 34.6234 104.805 34.4553 104.011 34.0927C103.217 33.7301 102.521 33.1834 101.98 32.498C100.877 31.1137 100.328 29.2184 100.33 26.8124V26.2512C100.33 23.8077 100.88 21.9369 101.98 20.6389C103.079 19.3409 104.601 18.6991 106.547 18.7135C108.7 18.7135 110.264 19.397 111.24 20.7641C112.215 22.1312 112.703 24.0379 112.703 26.4843C112.709 29.0141 112.214 30.9942 111.218 32.4246H111.21Z" fill="#FFFDF9"/>
<path d="M29.4685 34.1335H0V41.3518H29.4685V34.1335Z" fill="#FFFDF9"/>
</g>
<defs>
<clipPath id="clip0_27_7336">
<rect width="183.824" height="50" fill="white"/>
</clipPath>
</defs>
</svg>
