<svg width="160" height="44" viewBox="0 0 160 44" fill="none" xmlns="http://www.w3.org/2000/svg">
<g clip-path="url(#clip0_87_987)">
<path d="M42.5919 1.07394C40.7797 1.06758 39.7966 1.1049 40.1221 1.17415C41.6135 1.49142 41.5755 1.23259 41.5132 9.67988C41.4538 17.7444 41.4591 17.6897 40.4522 17.8437C40.1745 17.8862 40.497 17.9442 41.1713 17.9734C41.8456 18.0026 43.3735 18.0899 44.5665 18.162C48.0634 18.3735 48.5571 18.3643 49.901 18.0795C54.6795 17.0669 57.6616 12.3143 56.6149 7.38104C56.167 5.27039 54.5177 3.02758 52.7658 2.15263C51.0337 1.28762 50.2269 1.18208 44.6609 1.09752C43.8894 1.08581 43.1959 1.07606 42.5919 1.07394ZM45.6158 1.59265C48.1245 1.52937 50.9878 2.54217 52.5418 4.12139C54.9518 6.57058 55.6081 10.7074 54.092 13.9121C53.4757 15.2148 52.0609 16.5069 50.6438 17.0598C48.6486 17.8382 44.6055 17.7172 43.7413 16.8535C43.5914 16.7036 43.5291 14.4731 43.5291 9.24959V1.85791L44.5665 1.68697C44.9055 1.63254 45.2574 1.6017 45.6158 1.59265Z" fill="#490314"/>
<path d="M104.915 18.1783C103.651 17.7948 103.606 17.7194 103.606 16.0039C103.606 15.1319 103.691 14.3659 103.794 14.3018C103.908 14.2319 103.983 14.4729 103.984 14.9037C103.985 16.5142 105.355 17.6027 107.38 17.6027C108.715 17.6027 109.429 17.291 110.095 16.4177C110.686 15.6424 110.874 14.5276 110.591 13.4763C110.357 12.6058 109.702 11.8816 106.779 9.26078C104.845 7.52705 104.172 6.38248 104.172 4.82753C104.172 2.29884 105.777 0.752456 108.416 0.73956C110.495 0.729393 111.956 0.977008 111.825 1.31756C111.766 1.47321 111.708 2.16656 111.698 2.85834C111.68 4.05736 111.671 4.08131 111.504 3.37108C111.19 2.02946 110.214 1.38109 108.51 1.38109C106.581 1.38109 105.494 2.33866 105.493 4.04058C105.492 5.18836 106.118 6.10047 107.944 7.60949C111.005 10.1394 111.759 11.0547 112.103 12.6599C112.573 14.848 111.589 16.8555 109.584 17.8042C108.58 18.2792 108.204 18.3546 106.907 18.3408C106.077 18.332 105.181 18.2589 104.915 18.1783Z" fill="#490314"/>
<path d="M117.331 18.0662C116.264 17.7252 116.187 17.514 116.411 15.5273C116.499 14.7493 116.582 14.3617 116.596 14.6661C116.645 15.7249 117.33 16.7916 118.245 17.2344C119.43 17.8085 121.385 17.7091 122.226 17.0321C122.998 16.4096 123.412 15.514 123.412 14.4649C123.412 13.1887 122.959 12.4444 121.266 10.9406C117.797 7.85842 117.151 7.01112 116.921 5.24737C116.776 4.13407 116.994 3.28332 117.676 2.2996C118.643 0.904657 120.419 0.469405 123.459 0.882941L124.544 1.03048L124.531 2.47874C124.521 3.65109 124.482 3.83716 124.327 3.45544C123.621 1.71767 122.992 1.33086 121.016 1.42001C119.813 1.47431 119.592 1.5446 119.08 2.035C117.968 3.10008 117.94 4.82591 119.013 6.10112C119.285 6.42451 120.333 7.35757 121.342 8.17461C124.093 10.4029 124.921 11.6567 124.921 13.5958C124.921 15.4143 124.117 16.7958 122.512 17.7368C121.765 18.1746 121.393 18.2557 119.932 18.2999C118.797 18.3343 117.926 18.2561 117.331 18.0662Z" fill="#490314"/>
<path d="M31.3196 14.7315C29.4797 12.835 26.5514 9.69856 24.8121 7.7615C23.0729 5.82443 21.5803 4.23292 21.4952 4.22481C21.3013 4.20632 21.529 14.6565 21.7555 16.173C21.8473 16.7873 22.0079 17.3756 22.1125 17.4801C22.2171 17.5847 22.665 17.7292 23.108 17.8013C23.6051 17.8822 22.9024 17.9319 21.2727 17.9311C19.8203 17.9304 18.929 17.8774 19.2921 17.8133C20.3711 17.6226 20.4012 17.3728 20.4132 8.50715C20.4216 2.29152 20.4734 0.657546 20.6596 0.730848C20.7893 0.781892 23.8595 4.04678 27.4823 7.98614C31.1051 11.9255 34.0972 15.1206 34.1314 15.0864C34.1656 15.0522 34.1233 12.0783 34.0375 8.47763C33.8633 1.16932 33.9323 1.4929 32.4855 1.20921C31.8441 1.08345 32.2679 1.04447 34.2877 1.04343C35.9843 1.04249 36.703 1.09536 36.2979 1.19114C35.9511 1.27312 35.5692 1.43837 35.4491 1.55836C35.2922 1.7152 35.2159 4.07998 35.1779 9.97235C35.1373 16.261 35.0714 18.1695 34.895 18.1738C34.7684 18.1769 33.1596 16.6279 31.3196 14.7315Z" fill="#490314"/>
<path d="M79.0853 17.9797C77.8923 17.9173 77.1466 17.8494 77.4282 17.8287C78.4035 17.757 78.4251 17.5744 78.4251 9.42799V1.91371L77.9798 1.55296C77.7349 1.35454 77.2681 1.1739 76.9424 1.15153C76.5408 1.12394 84.8641 0.897033 85.8133 0.90969C85.8308 0.909878 85.7846 1.54653 85.7105 2.32436C85.5967 3.51953 85.5535 3.64668 85.4321 3.14515C85.1651 2.04167 84.759 1.86154 82.3672 1.78561L80.2171 1.71736V5.13294V8.54852H82.5371C84.072 8.54852 84.9327 8.47297 85.0804 8.32531C85.4481 7.95759 85.4942 8.21235 85.3445 9.78464C85.2158 11.1363 85.1877 11.2143 85.0591 10.5785C84.9806 10.1907 84.7623 9.79101 84.574 9.69023C84.3857 9.58945 83.3216 9.44816 82.2093 9.37625L80.1869 9.2455L80.2491 12.8296C80.2957 15.5086 80.3765 16.492 80.5691 16.7238C80.9859 17.2251 82.1662 17.4409 83.7209 17.3001C85.3515 17.1523 85.7628 16.9026 86.1742 15.8105L86.4584 15.056L86.3577 16.2436C86.1914 18.2044 86.2359 18.1744 83.5585 18.1307C82.2913 18.11 80.2784 18.042 79.0853 17.9797Z" fill="#490314"/>
<path d="M92.2884 17.9797C91.0954 17.9173 90.3497 17.8494 90.6314 17.8287C91.6066 17.757 91.6283 17.5744 91.6283 9.42799V1.91371L91.183 1.55296C90.938 1.35454 90.4712 1.1739 90.1455 1.15153C89.7439 1.12394 98.0672 0.897033 99.0164 0.90969C99.034 0.909878 98.9877 1.54653 98.9136 2.32436C98.7998 3.51953 98.7567 3.64668 98.6353 3.14515C98.3636 2.02273 97.9659 1.85239 95.6169 1.85239H93.5145L93.463 5.20045L93.4115 8.54852H95.5974C96.8032 8.54852 97.9542 8.45709 98.1643 8.34461C98.3739 8.23246 98.5806 8.17598 98.6237 8.21909C98.6668 8.26221 98.6435 8.96935 98.5718 9.79052C98.4488 11.1998 98.4318 11.2437 98.269 10.5723C98.1741 10.1812 97.9476 9.78144 97.7656 9.68406C97.5837 9.58668 96.5315 9.4486 95.4275 9.37722L93.4202 9.24744L93.4308 12.4347C93.4437 16.3006 93.581 16.8391 94.6421 17.1866C95.6145 17.505 98.1847 17.3053 98.719 16.8698C98.9247 16.7022 99.221 16.2255 99.3773 15.8105L99.6615 15.056L99.5608 16.2436C99.3945 18.2044 99.439 18.1744 96.7616 18.1307C95.4944 18.11 93.4815 18.042 92.2884 17.9797Z" fill="#490314"/>
<path d="M130.956 17.9795C129.763 17.9171 129.01 17.8492 129.283 17.8285C130.294 17.7517 130.292 17.7696 130.351 9.65087L130.407 2.13423L129.935 1.66312C129.656 1.38352 129.212 1.17486 128.843 1.14983C128.501 1.12663 130.343 1.06297 132.937 1.00836C135.53 0.953754 137.675 0.917893 137.703 0.928671C137.731 0.939442 137.697 1.5617 137.628 2.31145L137.501 3.67462L137.259 2.97088C137.126 2.58383 136.905 2.19748 136.769 2.11233C136.36 1.85752 135.099 1.73072 133.597 1.79328L132.182 1.85219L132.131 5.20026L132.079 8.54832H134.265C135.471 8.54832 136.622 8.4569 136.832 8.34442C137.042 8.23227 137.256 8.18352 137.309 8.23608C137.361 8.28864 137.334 8.99577 137.249 9.8075C137.153 10.7155 137.069 11.0461 137.031 10.6667C136.937 9.75059 136.434 9.52823 134.115 9.37832L132.088 9.24725L132.099 12.4345C132.105 14.3813 132.197 15.8784 132.334 16.2812C132.645 17.1918 133.543 17.4772 135.546 17.3024C137.251 17.1537 137.858 16.7809 138.135 15.713C138.268 15.2 138.287 15.3399 138.22 16.3508C138.173 17.063 138.036 17.7632 137.917 17.9069C137.685 18.1861 135.371 18.2103 130.956 17.9795Z" fill="#490314"/>
<path d="M154.538 14.9789C152.753 13.173 149.765 10.0112 147.897 7.95268C146.028 5.89415 144.454 4.2099 144.398 4.2099C144.241 4.2099 144.547 15.719 144.726 16.5404C144.925 17.4544 145.096 17.6241 145.99 17.7972C146.437 17.8838 145.749 17.9328 144.16 17.9275C142.76 17.9228 141.89 17.8848 142.227 17.843C142.605 17.796 142.93 17.609 143.076 17.3544C143.252 17.0462 143.326 14.8744 143.37 8.76151L143.428 0.581055L143.912 1.02795C144.178 1.27375 147.196 4.50934 150.618 8.21814C154.04 11.927 156.894 14.9614 156.96 14.9614C157.269 14.9614 156.865 2.11002 156.543 1.67075C156.424 1.50869 155.945 1.30151 155.478 1.21036C154.814 1.08081 155.185 1.04366 157.175 1.04018C158.962 1.03705 159.553 1.08605 159.156 1.20437C158.105 1.51787 158.12 1.39483 158.1 9.66887C158.089 13.8766 158.013 17.5314 157.931 17.7908C157.789 18.2375 157.61 18.0893 154.538 14.9789Z" fill="#490314"/>
<path d="M8.63908 0.697504C8.40511 0.718009 7.96438 1.88717 5.59163 8.41927C4.18996 12.278 2.88793 15.7732 2.70333 16.1882C2.27129 17.1594 1.73381 17.6264 0.852466 17.7974C0.416652 17.882 1.1574 17.9374 2.78586 17.9389C4.50208 17.9404 5.20423 17.8893 4.78998 17.7915C4.03374 17.613 3.80114 17.3029 3.94117 16.6598C4.18762 15.5278 5.59743 11.4571 5.78615 11.3311C6.06441 11.1454 10.4612 11.1562 10.7552 11.3429C10.8827 11.4239 11.486 12.7989 12.0991 14.4022C12.9157 16.5375 13.1699 17.4082 13.0423 17.65C12.8805 17.9564 13.0312 17.98 15.1819 17.9624C17.049 17.9472 17.3528 17.9091 16.7499 17.7679C15.2289 17.4117 15.0913 17.15 11.5274 7.82983C10.0718 4.02338 8.81229 0.8395 8.72749 0.750554C8.69743 0.719022 8.6725 0.694575 8.63908 0.697504ZM8.23825 4.08094C8.38807 4.13088 10.5943 10.091 10.6078 10.4823C10.6105 10.5601 9.56777 10.6238 8.28541 10.6238H5.95119L7.0063 7.3229C7.58748 5.50709 8.14246 4.049 8.23825 4.08094Z" fill="#490314"/>
<path d="M61.4543 1.06252C60.078 1.07086 59.4083 1.11288 59.739 1.18041C60.1455 1.26341 60.5785 1.47211 60.7057 1.64607C61.2454 2.38415 61.3129 16.1001 60.7823 17.2606C60.6179 17.6201 60.3781 17.7917 59.963 17.8441C59.64 17.8849 60.6467 17.9198 62.2029 17.9207C63.759 17.9217 64.6537 17.871 64.1893 17.8087C62.9684 17.6451 62.8723 17.3484 62.869 13.7828L62.8631 10.812H64.4664H66.0756L66.9656 12.0734C68.6209 14.4054 70.7423 16.9763 71.3806 17.4315C71.9481 17.8363 72.2269 17.8871 74.0862 17.9148C75.4869 17.9357 75.8852 17.9059 75.3122 17.8146C73.6195 17.5451 72.7561 16.7902 69.6712 12.8927L67.6376 10.3227L68.2919 9.57415C71.1072 6.35558 70.9611 2.87812 67.9559 1.49282C67.1897 1.13964 66.7122 1.10059 63.0517 1.06841C62.4469 1.06309 61.913 1.05973 61.4543 1.06252ZM64.5902 1.56944C67.1126 1.58219 68.6757 3.53377 68.4864 6.6387C68.3965 8.11274 67.9419 9.15225 67.1425 9.72151C66.5717 10.1279 64.976 10.3445 64.0891 10.1341C63.8816 10.0849 63.5209 10.0012 63.2875 9.9514C62.8634 9.86091 62.8631 9.856 62.8631 5.83115V1.80522L63.4525 1.68733C63.8497 1.60789 64.2298 1.56762 64.5902 1.56944Z" fill="#490314"/>
<path d="M36.8737 25.3882C34.9489 25.4055 33.0513 25.9216 31.6571 26.9443C30.4754 27.8111 29.1489 29.5202 28.6627 30.8052C26.7381 35.8919 29.2503 41.3994 34.1328 42.8004C35.4929 43.1907 38.8953 43.0431 40.1864 42.5352C42.5056 41.6229 44.58 39.3753 45.3146 36.9767C45.8817 35.1254 45.8779 32.3215 45.3087 30.7403C44.84 29.4384 43.8439 28.0279 42.833 27.2272C41.2691 25.9886 39.0551 25.3684 36.8737 25.3882ZM36.0249 26.1073C36.2948 26.1051 36.6029 26.1099 36.9798 26.1249C38.5277 26.1869 38.913 26.2724 39.7856 26.7498C42.865 28.4343 44.3992 32.6179 43.4991 36.8647C42.9762 39.3315 41.8875 40.8173 39.9035 41.7689C38.9508 42.2258 38.5478 42.307 37.357 42.2935C36.579 42.2847 35.7302 42.2135 35.4708 42.1344C32.9035 41.3506 30.925 38.9873 30.2778 35.9334C29.3567 31.5876 30.9313 27.6561 34.0738 26.4727C34.7769 26.208 35.2152 26.1139 36.0249 26.1073Z" fill="#490314"/>
<path d="M73.6549 25.3882C71.7302 25.4055 69.8325 25.9216 68.4383 26.9443C67.2566 27.8111 65.9301 29.5202 65.4439 30.8052C63.5193 35.8919 66.0315 41.3994 70.914 42.8004C72.2741 43.1907 75.6766 43.0431 76.9676 42.5352C79.2868 41.6229 81.3612 39.3753 82.0958 36.9767C82.6629 35.1254 82.6592 32.3215 82.09 30.7403C81.6213 29.4384 80.6252 28.0279 79.6143 27.2272C78.0503 25.9886 75.8363 25.3684 73.6549 25.3882ZM72.8061 26.1073C73.076 26.1051 73.3841 26.1099 73.761 26.1249C75.3089 26.1869 75.6942 26.2724 76.5668 26.7498C79.6463 28.4343 81.1805 32.6179 80.2803 36.8647C79.7575 39.3315 78.6687 40.8173 76.6847 41.7689C75.7321 42.2258 75.329 42.307 74.1383 42.2935C73.3602 42.2847 72.5114 42.2135 72.2521 42.1344C69.6847 41.3506 67.7063 38.9873 67.059 35.9334C66.138 31.5876 67.7125 27.6561 70.8551 26.4727C71.5582 26.208 71.9965 26.1139 72.8061 26.1073Z" fill="#490314"/>
<path d="M90.0742 42.8294C90.0266 42.6997 89.1754 39.8774 88.1826 36.5577C85.6273 28.0128 85.2976 26.9828 84.989 26.5802C84.8382 26.3835 84.3089 26.1133 83.8127 25.9799C82.9767 25.7551 83.1249 25.7384 85.8342 25.7528C87.4422 25.7614 88.5306 25.8031 88.253 25.8456C87.4091 25.9747 87.2643 26.315 87.5138 27.5829C87.7493 28.7802 90.7165 39.5223 90.8479 39.6537C90.8914 39.6972 90.9572 39.6975 90.994 39.6543C91.0308 39.6111 92.1756 36.5678 93.538 32.8914C95.8847 26.559 96.2523 25.6928 96.492 25.9325C96.5476 25.9882 97.659 29.0801 98.9617 32.8034C100.264 36.5268 101.366 39.6091 101.41 39.653C101.454 39.697 101.527 39.6957 101.573 39.6502C101.827 39.3961 105.262 27.4752 105.262 26.8476C105.262 26.2211 105.192 26.0813 104.838 26.0058C104.605 25.9559 104.244 25.8793 104.036 25.8354C103.829 25.7915 104.805 25.7545 106.206 25.7531C107.695 25.7516 108.51 25.8083 108.17 25.8897C107.849 25.9663 107.487 26.0909 107.364 26.1667C106.877 26.4677 106.151 28.3704 103.864 35.3317C102.551 39.3258 101.394 42.721 101.292 42.8766C101.129 43.1235 101.073 43.1169 100.85 42.8253C100.709 42.6414 99.9927 40.7741 99.2583 38.6756C98.524 36.5771 97.4837 33.6024 96.9465 32.0652C96.4093 30.528 95.9013 29.3397 95.8176 29.4245C95.7338 29.5093 94.5938 32.4591 93.2842 35.9795C91.9745 39.5 90.8206 42.5345 90.7198 42.7228C90.5077 43.1191 90.1992 43.17 90.0742 42.8294Z" fill="#490314"/>
<path d="M138.173 42.682C138.106 42.5748 138.838 41.2804 139.798 39.8055C144.798 32.1263 148.117 26.9665 148.207 26.7309C148.29 26.5138 147.927 26.4683 146.166 26.475C144.988 26.4796 143.143 26.5562 142.065 26.6455C140.255 26.7954 140.065 26.8494 139.555 27.3593C139.252 27.6627 138.885 28.2438 138.74 28.6507C138.414 29.5639 138.398 29.2592 138.67 27.3156L138.881 25.8066L144.753 25.8702C147.983 25.9052 150.65 25.9578 150.68 25.987C150.709 26.0163 148.439 29.5787 145.634 33.9036C142.829 38.2284 140.534 41.8045 140.534 41.8504C140.534 41.9811 148.149 41.9482 148.817 41.8147C149.601 41.6579 150.504 40.7959 150.651 40.0652C150.715 39.7443 150.851 39.4818 150.953 39.4818C151.139 39.4818 151.099 39.8613 150.7 41.8868L150.505 42.877H144.399C140.399 42.877 138.252 42.8098 138.173 42.682Z" fill="#490314"/>
<path d="M9.34203 42.5236C10.357 42.3062 10.3787 42.1298 10.3818 34.0949C10.3839 28.4911 10.3281 26.6521 10.1488 26.4126C10.0191 26.2394 9.57346 26.0195 9.15849 25.9239C8.58658 25.7922 9.08868 25.7503 11.2333 25.7505C13.0934 25.7507 13.8397 25.8034 13.4117 25.9041C12.339 26.1567 12.2708 26.3899 12.2708 29.8037V32.88H17.2693H22.2678V29.8037C22.2678 27.6398 22.1979 26.6322 22.032 26.4063C21.9024 26.2296 21.4143 26.0105 20.9475 25.9193C20.3014 25.7932 20.7744 25.7525 22.928 25.7492C24.8806 25.7461 25.5821 25.797 25.1917 25.9133C24.8806 26.0061 24.5198 26.2272 24.39 26.4047C24.049 26.8712 24.0555 41.2555 24.397 41.9339C24.5796 42.2965 24.8296 42.4316 25.4788 42.5186C25.9432 42.5808 25.05 42.6318 23.4938 42.6318C21.9377 42.6318 20.8917 42.5971 21.1694 42.5546C22.1206 42.4091 22.1689 42.1917 22.2338 37.7556L22.2942 33.6345H17.2825H12.2708V37.3788C12.2708 42.1946 12.3056 42.3008 13.9684 42.5627C14.2277 42.6036 13.1667 42.6385 11.6106 42.6404C10.0545 42.6423 9.0336 42.5897 9.34203 42.5236Z" fill="#490314"/>
<path d="M51.0376 25.7354C48.9031 25.7483 47.739 25.8118 48.167 25.8946C49.5852 26.1689 49.5227 25.7806 49.5227 34.1586C49.5227 42.2482 49.5042 42.4052 48.5324 42.5524C48.2471 42.5956 49.2445 42.6336 50.7488 42.6349C52.253 42.6362 53.2716 42.605 53.0122 42.5642C51.8799 42.3858 51.7222 42.2928 51.5209 41.7154C51.406 41.3856 51.3146 39.8702 51.3146 38.3142V35.5085L52.9651 35.5615L54.6155 35.6146L55.5586 36.9173C57.8286 40.0529 59.4343 41.9304 60.1681 42.3048C60.7822 42.6181 61.2552 42.6825 62.7676 42.6644C64.3821 42.645 64.4982 42.6217 63.6989 42.4875C63.1962 42.4032 62.4692 42.1295 62.0838 41.8745C61.2903 41.3493 59.5928 39.4781 57.5038 36.8347L56.0833 35.0369L56.9085 34.0997C59.1861 31.5113 59.4437 28.7951 57.5863 26.9851C56.4994 25.9257 55.3598 25.7093 51.0376 25.7354ZM53.2421 26.2895C54.7015 26.333 55.7597 27.01 56.4487 28.329C56.9013 29.1954 56.9733 29.5593 56.9733 30.8813C56.9733 32.6208 56.5326 33.7868 55.6176 34.4534C55.1462 34.7967 53.413 35.0664 52.9179 34.8719C52.8142 34.8311 52.411 34.7424 52.022 34.6773L51.3146 34.5595V30.5276V26.4899L52.1634 26.3602C52.5433 26.3033 52.9053 26.2795 53.2421 26.2895Z" fill="#490314"/>
<path d="M112.082 42.5556C113.039 42.4086 113.091 41.9701 113.088 33.9827C113.086 27.1627 113.064 26.6663 112.739 26.3068C112.547 26.0954 112.124 25.8888 111.797 25.8478C111.471 25.8068 112.435 25.7683 113.939 25.7623C115.662 25.7555 116.441 25.8066 116.044 25.9005C115.697 25.9825 115.315 26.1479 115.195 26.268C115.037 26.4262 114.977 28.5849 114.977 34.0964C114.977 41.2451 114.998 41.7299 115.327 42.0932C115.519 42.3059 115.986 42.5127 116.364 42.5527C116.742 42.5928 115.821 42.6271 114.316 42.629C112.812 42.6309 111.806 42.5979 112.082 42.5556Z" fill="#490314"/>
<path d="M125.119 42.553C125.417 42.5081 125.783 42.2594 125.968 41.9766C126.263 41.5264 126.294 40.7704 126.294 34.0202V26.5612L123.914 26.5887C121.304 26.6187 120.904 26.7386 120.343 27.6579C119.99 28.2364 119.977 28.2413 119.994 27.7873C120.004 27.5279 120.111 26.8913 120.233 26.3726C120.435 25.5097 120.493 25.4375 120.922 25.5238C121.179 25.5757 124.255 25.6181 127.756 25.6181H134.122L134.111 27.0328C134.101 28.3766 134.089 28.4145 133.875 27.7895C133.561 26.8711 133.01 26.6737 130.36 26.5312L128.066 26.4079L128.123 34.0571C128.176 41.1982 128.203 41.732 128.53 42.0929C128.723 42.3056 129.19 42.5123 129.568 42.5523C129.946 42.5924 128.982 42.6267 127.426 42.6286C125.87 42.6305 124.832 42.5965 125.119 42.553Z" fill="#490314"/>
</g>
<defs>
<clipPath id="clip0_87_987">
<rect width="160" height="43.6364" fill="white"/>
</clipPath>
</defs>
</svg>
