<svg preserveAspectRatio="none" width="100%" height="100%" overflow="visible" style="display: block;" viewBox="0 0 158.545 17.7608" fill="none" xmlns="http://www.w3.org/2000/svg">
<g id="g3184">
<path id="path3176" d="M41.8624 0.492975C40.0503 0.486618 39.0671 0.523935 39.3926 0.593181C40.8841 0.910459 40.846 0.651624 40.7837 9.09892C40.7243 17.1634 40.7297 17.1087 39.7227 17.2628C39.445 17.3053 39.7675 17.3633 40.4419 17.3925C41.1162 17.4216 42.644 17.5089 43.8371 17.5811C47.334 17.7926 47.8277 17.7833 49.1716 17.4986C53.95 16.486 56.9321 11.7333 55.8854 6.80007C55.4376 4.68942 53.7882 2.44661 52.0363 1.57166C50.3043 0.706649 49.4975 0.601111 43.9314 0.516553C43.1599 0.504839 42.4665 0.495093 41.8624 0.492975ZM44.8863 1.01169C47.3951 0.948404 50.2583 1.96121 51.8123 3.54042C54.2224 5.98962 54.8786 10.1265 53.3626 13.3312C52.7463 14.6339 51.3315 15.9259 49.9143 16.4788C47.9191 17.2572 43.8761 17.1362 43.0119 16.2725C42.8619 16.1227 42.7997 13.8922 42.7997 8.66862V1.27694L43.8371 1.106C44.1761 1.05157 44.5279 1.02073 44.8863 1.01169Z" fill="var(--fill-0, #490314)"/>
<path id="path3172" d="M104.186 17.5968C102.922 17.2133 102.876 17.1379 102.876 15.4224C102.876 14.5504 102.961 13.7844 103.065 13.7203C103.178 13.6504 103.254 13.8914 103.254 14.3222C103.256 15.9327 104.626 17.0212 106.651 17.0212C107.985 17.0212 108.699 16.7095 109.365 15.8362C109.957 15.0609 110.145 13.9461 109.862 12.8948C109.627 12.0243 108.972 11.3001 106.049 8.67928C104.115 6.94555 103.442 5.80098 103.442 4.24603C103.442 1.71734 105.048 0.170957 107.686 0.158061C109.766 0.147894 111.227 0.39551 111.096 0.73606C111.036 0.891712 110.979 1.58506 110.968 2.27685C110.95 3.47586 110.941 3.49981 110.775 2.78958C110.46 1.44796 109.485 0.799587 107.781 0.799587C105.851 0.799587 104.765 1.75716 104.763 3.45909C104.762 4.60686 105.389 5.51897 107.215 7.02799C110.276 9.55788 111.03 10.4732 111.374 12.0785C111.843 14.2665 110.86 16.274 108.855 17.2227C107.851 17.6977 107.474 17.7731 106.177 17.7593C105.347 17.7505 104.451 17.6774 104.186 17.5968Z" fill="var(--fill-0, #490314)"/>
<path id="path3170" d="M116.602 17.4849C115.534 17.1439 115.458 16.9327 115.682 14.946C115.769 14.1679 115.853 13.7804 115.867 14.0848C115.916 15.1436 116.6 16.2102 117.515 16.6531C118.701 17.2272 120.656 17.1278 121.496 16.4508C122.269 15.8283 122.683 14.9327 122.683 13.8835C122.683 12.6074 122.23 11.8631 120.537 10.3592C117.068 7.2771 116.421 6.4298 116.192 4.66604C116.047 3.55275 116.265 2.702 116.946 1.71828C117.913 0.323336 119.69 -0.111916 122.73 0.30162L123.815 0.44916L123.802 1.89742C123.791 3.06977 123.752 3.25584 123.597 2.87412C122.891 1.13635 122.262 0.74954 120.287 0.838685C119.084 0.892986 118.862 0.963283 118.35 1.45367C117.239 2.51876 117.21 4.24459 118.283 5.5198C118.555 5.84319 119.603 6.77625 120.612 7.59329C123.364 9.82158 124.192 11.0754 124.192 13.0145C124.192 14.833 123.388 16.2145 121.782 17.1555C121.035 17.5933 120.664 17.6744 119.203 17.7186C118.067 17.753 117.196 17.6747 116.602 17.4849Z" fill="var(--fill-0, #490314)"/>
<path id="path3158" d="M30.5901 14.15C28.7502 12.2536 25.8218 9.11715 24.0826 7.18009C22.3434 5.24302 20.8508 3.65151 20.7656 3.6434C20.5718 3.62491 20.7995 14.0751 21.026 15.5915C21.1177 16.2059 21.2784 16.7942 21.383 16.8987C21.4875 17.0033 21.9355 17.1478 22.3785 17.2199C22.8755 17.3008 22.1729 17.3505 20.5431 17.3497C19.0907 17.349 18.1995 17.296 18.5626 17.2319C19.6416 17.0412 19.6717 16.7914 19.6837 7.92574C19.6921 1.71011 19.7439 0.0761358 19.9301 0.149439C20.0598 0.200482 23.13 3.46537 26.7528 7.40473C30.3756 11.3441 33.3677 14.5392 33.4019 14.505C33.4361 14.4708 33.3938 11.4969 33.308 7.89622C33.1337 0.587908 33.2028 0.91149 31.756 0.627795C31.1146 0.50204 31.5384 0.463058 33.5582 0.462019C35.2548 0.461076 35.9735 0.513953 35.5684 0.609726C35.2216 0.691713 34.8396 0.856962 34.7196 0.976945C34.5626 1.13379 34.4864 3.49857 34.4484 9.39094C34.4078 15.6796 34.3419 17.5881 34.1654 17.5924C34.0389 17.5955 32.43 16.0465 30.5901 14.15Z" fill="var(--fill-0, #490314)"/>
<path id="path3156" d="M78.3558 17.3987C77.1628 17.3364 76.4171 17.2684 76.6988 17.2477C77.674 17.1761 77.6957 16.9934 77.6957 8.84702V1.33275L77.2504 0.971993C77.0054 0.773579 76.5386 0.592933 76.2129 0.570564C75.8113 0.542978 84.1346 0.316067 85.0838 0.328724C85.1014 0.328912 85.0551 0.965561 84.981 1.7434C84.8672 2.93856 84.8241 3.06571 84.7027 2.56418C84.4356 1.4607 84.0295 1.28057 81.6378 1.20465L79.4876 1.13639V4.55197V7.96755H81.8077C83.3425 7.96755 84.2033 7.892 84.3509 7.74434C84.7186 7.37663 84.7647 7.63138 84.615 9.20368C84.4863 10.5554 84.4583 10.6333 84.3296 9.99754C84.2511 9.60977 84.0329 9.21004 83.8446 9.10926C83.6563 9.00848 82.5921 8.86719 81.4798 8.79528L79.4574 8.66453L79.5197 12.2486C79.5662 14.9276 79.647 15.911 79.8396 16.1428C80.2564 16.6442 81.4367 16.86 82.9914 16.7191C84.622 16.5713 85.0333 16.3216 85.4447 15.2295L85.7289 14.4751L85.6282 15.6627C85.4619 17.6234 85.5064 17.5934 82.829 17.5497C81.5618 17.529 79.5489 17.4611 78.3558 17.3987Z" fill="var(--fill-0, #490314)"/>
<path id="path3154" d="M91.559 17.3987C90.3659 17.3364 89.6202 17.2684 89.9019 17.2477C90.8771 17.1761 90.8988 16.9934 90.8988 8.84702V1.33275L90.4535 0.971993C90.2086 0.773579 89.7417 0.592933 89.4161 0.570564C89.0145 0.542978 97.3378 0.316067 98.287 0.328724C98.3045 0.328912 98.2582 0.965561 98.1841 1.7434C98.0703 2.93856 98.0272 3.06571 97.9058 2.56418C97.6341 1.44176 97.2364 1.27142 94.8875 1.27142H92.785L92.7335 4.61949L92.682 7.96755H94.8679C96.0737 7.96755 97.2247 7.87612 97.4348 7.76364C97.6444 7.6515 97.8511 7.59501 97.8942 7.63813C97.9374 7.68124 97.914 8.38838 97.8423 9.20955C97.7193 10.6188 97.7023 10.6627 97.5395 9.99137C97.4446 9.6002 97.2181 9.20047 97.0361 9.10309C96.8542 9.00571 95.802 8.86763 94.698 8.79625L92.6907 8.66648L92.7013 11.8537C92.7143 15.7197 92.8515 16.2582 93.9126 16.6056C94.8851 16.924 97.4552 16.7244 97.9895 16.2889C98.1953 16.1212 98.4915 15.6445 98.6478 15.2295L98.932 14.4751L98.8313 15.6627C98.6651 17.6234 98.7096 17.5934 96.0321 17.5497C94.7649 17.529 92.752 17.4611 91.559 17.3987Z" fill="var(--fill-0, #490314)"/>
<path id="path3152" d="M130.227 17.3987C129.034 17.3363 128.281 17.2684 128.553 17.2477C129.564 17.1709 129.562 17.1888 129.622 9.07009L129.677 1.55344L129.206 1.08233C128.926 0.802729 128.482 0.594075 128.113 0.569041C127.771 0.54584 129.614 0.48218 132.207 0.427574C134.801 0.372965 136.946 0.337105 136.974 0.347883C137.002 0.358653 136.968 0.980909 136.898 1.73066L136.772 3.09384L136.53 2.3901C136.397 2.00304 136.176 1.6167 136.039 1.53155C135.631 1.27674 134.37 1.14993 132.867 1.2125L131.453 1.27141L131.401 4.61947L131.35 7.96754H133.536C134.741 7.96754 135.892 7.87611 136.103 7.76363C136.312 7.65148 136.527 7.60273 136.579 7.65529C136.632 7.70785 136.605 8.41499 136.519 9.22671C136.424 10.1347 136.34 10.4653 136.301 10.0859C136.208 9.1698 135.705 8.94744 133.386 8.79753L131.358 8.66646L131.369 11.8537C131.376 13.8005 131.467 15.2976 131.605 15.7004C131.916 16.611 132.813 16.8964 134.816 16.7217C136.521 16.5729 137.129 16.2001 137.406 15.1322C137.539 14.6192 137.558 14.7591 137.49 15.77C137.443 16.4822 137.307 17.1824 137.188 17.3261C136.956 17.6053 134.642 17.6295 130.227 17.3987Z" fill="var(--fill-0, #490314)"/>
<path id="path3150" d="M153.808 14.3979C152.024 12.592 149.036 9.43024 147.167 7.37171C145.299 5.31318 143.724 3.62893 143.669 3.62893C143.512 3.62893 143.817 15.138 143.996 15.9594C144.196 16.8735 144.366 17.0432 145.26 17.2163C145.708 17.3028 145.019 17.3519 143.431 17.3466C142.03 17.3419 141.16 17.3038 141.497 17.262C141.875 17.2151 142.2 17.028 142.346 16.7735C142.522 16.4653 142.597 14.2934 142.64 8.18055L142.698 8.87784e-05L143.182 0.446987C143.449 0.692782 146.466 3.92837 149.888 7.63718C153.31 11.346 156.164 14.3805 156.231 14.3805C156.54 14.3805 156.136 1.52905 155.813 1.08978C155.694 0.92772 155.215 0.720546 154.748 0.629394C154.085 0.49984 154.455 0.462696 156.446 0.459214C158.232 0.456082 158.824 0.505087 158.427 0.623407C157.375 0.936907 157.391 0.813868 157.37 9.0879C157.36 13.2956 157.284 16.9505 157.202 17.2098C157.06 17.6565 156.881 17.5083 153.808 14.3979Z" fill="var(--fill-0, #490314)"/>
<path id="path3146" d="M7.90958 0.116094C7.67562 0.136599 7.23489 1.30576 4.86214 7.83786C3.46047 11.6966 2.15844 15.1918 1.97384 15.6068C1.5418 16.578 1.00432 17.045 0.122974 17.216C-0.31284 17.3006 0.427907 17.3559 2.05636 17.3575C3.77259 17.359 4.47474 17.3079 4.06049 17.2101C3.30424 17.0316 3.07165 16.7215 3.21168 16.0783C3.45812 14.9464 4.86793 10.8757 5.05665 10.7497C5.33492 10.564 9.73168 10.5747 10.0257 10.7615C10.1532 10.8425 10.7566 12.2175 11.3696 13.8208C12.1862 15.9561 12.4404 16.8268 12.3128 17.0686C12.151 17.375 12.3017 17.3986 14.4525 17.381C16.3195 17.3658 16.6233 17.3277 16.0204 17.1865C14.4994 16.8303 14.3618 16.5686 10.7979 7.24842C9.34233 3.44197 8.0828 0.25809 7.998 0.169144C7.96794 0.137612 7.94301 0.113165 7.90958 0.116094ZM7.50876 3.49953C7.65858 3.54947 9.8648 9.50963 9.87834 9.90093C9.88104 9.97874 8.83828 10.0424 7.55591 10.0424H5.2217L6.27681 6.74149C6.85799 4.92568 7.41296 3.46759 7.50876 3.49953Z" fill="var(--fill-0, #490314)"/>
<path id="path3142" d="M60.7248 0.481197C59.3485 0.489535 58.6788 0.531564 59.0095 0.599087C59.416 0.682091 59.849 0.890789 59.9762 1.06475C60.5159 1.80283 60.5834 15.5188 60.0528 16.6792C59.8884 17.0387 59.6486 17.2104 59.2335 17.2628C58.9105 17.3036 59.9172 17.3385 61.4734 17.3394C63.0295 17.3404 63.9242 17.2896 63.4598 17.2274C62.2389 17.0638 62.1428 16.7671 62.1395 13.2015L62.1336 10.2307H63.7369H65.3461L66.2361 11.4921C67.8914 13.8241 70.0128 16.395 70.6511 16.8502C71.2186 17.2549 71.4974 17.3058 73.3567 17.3335C74.7574 17.3544 75.1557 17.3246 74.5827 17.2333C72.89 16.9638 72.0266 16.2089 68.9417 12.3114L66.9081 9.74143L67.5624 8.99283C70.3777 5.77426 70.2316 2.2968 67.2264 0.911495C66.4602 0.55832 65.9827 0.519273 62.3222 0.487092C61.7174 0.481773 61.1835 0.478406 60.7248 0.481197ZM63.8606 0.988123C66.3831 1.00087 67.9462 2.95245 67.7569 6.05738C67.667 7.53142 67.2124 8.57093 66.413 9.14019C65.8422 9.54657 64.2465 9.76319 63.3596 9.5528C63.1521 9.50358 62.7914 9.41988 62.558 9.37008C62.1339 9.27959 62.1336 9.27468 62.1336 5.24983V1.2239L62.723 1.10601C63.1202 1.02657 63.5003 0.986301 63.8606 0.988123Z" fill="var(--fill-0, #490314)"/>
</g>
</svg>
