<svg preserveAspectRatio="none" width="100%" height="100%" overflow="visible" style="display: block;" viewBox="0 0 160.001 24.8579" fill="none" xmlns="http://www.w3.org/2000/svg">
<g id="Frame 2147227758">
<path id="Shape" d="M8.18862 16.1363C8.482 16.8031 8.88207 17.4165 9.36215 17.9499C8.32197 18.51 7.25513 18.7767 6.05493 18.7767C2.53434 18.7767 0.000579834 16.4297 0.000579834 12.669C0.000579834 8.88174 2.66769 6.53468 6.05493 6.53468C7.25513 6.53468 8.21529 6.80139 9.17545 7.30814C8.72204 7.86824 8.34864 8.50834 8.08193 9.20179C7.49517 8.96175 6.9084 8.85507 6.29497 8.85507C4.21462 8.85507 2.58768 10.2153 2.58768 12.669C2.58768 14.9894 4.16128 16.483 6.37498 16.483C7.04176 16.483 7.62852 16.3763 8.18862 16.1363ZM15.2565 6.56135C18.7237 6.56135 21.2041 9.04177 21.2041 12.6957C21.2041 16.323 18.697 18.8034 15.2565 18.8034C11.8159 18.8034 9.33548 16.323 9.33548 12.6957C9.33548 9.04177 11.8426 6.56135 15.2565 6.56135ZM15.2565 8.80173C13.3361 8.80173 11.9226 10.2953 11.9226 12.6957C11.9226 15.0428 13.3361 16.563 15.2565 16.563C17.2301 16.563 18.617 15.0694 18.617 12.6957C18.617 10.2953 17.2568 8.80173 15.2565 8.80173ZM22.8577 18.51V6.80139H25.4448V18.51H22.8577ZM22.5377 3.22746C22.5377 2.32064 23.2845 1.62719 24.138 1.62719C24.9914 1.62719 25.7382 2.34731 25.7382 3.22746C25.7382 4.16095 24.9914 4.88108 24.138 4.88108C23.2845 4.88108 22.5377 4.13428 22.5377 3.22746ZM27.6852 7.54819C29.2855 6.90808 31.2858 6.53468 32.9661 6.53468C35.8999 6.53468 37.7936 7.68154 37.7936 10.9621V18.4834H35.2331V11.2288C35.2331 9.54852 34.193 8.93508 32.7527 8.93508C31.8459 8.93508 30.9391 9.06844 30.2456 9.28181V18.5367H27.6585V7.54819H27.6852ZM39.9539 0.560349H42.541V7.14812C43.0745 6.85474 44.1413 6.56135 45.1815 6.56135C48.5154 6.56135 51.0225 8.72172 51.0225 12.4823C51.0225 16.2696 48.542 18.8034 44.2747 18.8034C42.621 18.8034 41.1541 18.4567 39.9806 18.0299V0.560349H39.9539ZM42.5144 16.2963C43.0211 16.4563 43.6612 16.5364 44.3013 16.5364C46.6751 16.5364 48.3553 15.2028 48.3553 12.509C48.3553 10.242 46.7551 8.88174 44.8081 8.88174C43.7946 8.88174 43.0211 9.14845 42.4877 9.44183V16.2963H42.5144ZM58.4104 10.6687C58.4104 9.38849 57.4769 8.8284 56.1967 8.8284C54.8631 8.8284 53.8229 9.22847 52.8628 9.78856V7.49484C53.8763 6.90808 55.1831 6.53468 56.5967 6.53468C59.1305 6.53468 60.9174 7.60153 60.9174 10.5353V18.27C59.8239 18.5634 58.277 18.7501 56.9701 18.7501C53.9829 18.7501 51.7959 17.8166 51.7959 15.1761C51.7959 12.8024 53.7963 11.6289 57.1301 11.6289H58.4104V10.6687ZM58.4104 13.3892H57.3168C55.5299 13.3892 54.3563 13.9226 54.3563 15.0961C54.3563 16.323 55.4499 16.7764 57.0235 16.7764C57.4235 16.7764 57.9569 16.7231 58.437 16.643L58.4104 13.3892ZM62.8111 15.3362C63.8779 16.163 65.1582 16.6697 66.3317 16.6697C67.4785 16.6697 68.2253 16.2696 68.2253 15.3362C68.2253 14.376 67.5586 14.0293 66.065 13.6559C63.6646 13.0958 62.6511 12.1356 62.6511 10.0819C62.6511 7.70822 64.4114 6.53468 66.7584 6.53468C68.0653 6.53468 69.1055 6.82806 70.0656 7.4415V9.8419C69.0521 9.09511 68.0653 8.6417 66.8384 8.6417C65.7182 8.6417 65.1315 9.20179 65.1315 9.97525C65.1315 10.7487 65.6382 11.1488 66.9451 11.4955C69.5856 12.0823 70.7057 13.0691 70.7057 15.2028C70.7057 17.6565 68.8654 18.7767 66.3584 18.7767C64.9981 18.7767 63.6646 18.4033 62.7844 17.8166V15.3362H62.8111ZM74.253 13.2558V13.3091C74.413 15.3895 76.1733 16.5364 77.987 16.5364C79.5872 16.5364 80.7074 16.163 81.8543 15.3895V17.6832C80.8141 18.43 79.2672 18.7767 77.8003 18.7767C74.1997 18.7767 71.7726 16.4563 71.7726 12.7491C71.7726 9.0151 74.173 6.53468 77.3469 6.53468C80.7074 6.53468 82.281 8.72172 82.281 11.9223V13.2558H74.253ZM79.8539 11.5755C79.8006 9.76189 78.9205 8.74839 77.2402 8.74839C75.7466 8.74839 74.6531 9.81523 74.333 11.5755H79.8539Z" fill="var(--fill-0, #0667D0)"/>
<path id="Rectangle-path" d="M91.4556 0.000359569H91.6956C91.9356 0.000359569 92.1223 0.187059 92.1223 0.427099V24.4311C92.1223 24.6712 91.9356 24.8579 91.6956 24.8579H91.4556C91.2155 24.8579 91.0288 24.6712 91.0288 24.4311V0.427099C91.0288 0.187059 91.2422 0.000359569 91.4556 0.000359569Z" fill="var(--fill-0, #AAB4C0)"/>
<path id="a" d="M106.312 18.5366H104.871L100.444 6.72128H101.751L105.645 17.3097L109.539 6.72128H110.792L106.312 18.5366ZM117.807 14.2692H111.406V14.2959C111.406 16.4296 112.899 17.6831 114.553 17.6831C115.753 17.6831 116.58 17.3631 117.433 16.6963V17.8965C116.687 18.4832 115.593 18.7233 114.553 18.7233C112.099 18.7233 110.232 17.0163 110.232 14.1892C110.232 11.5754 111.966 9.6551 114.26 9.6551C116.393 9.6551 117.807 10.962 117.807 13.4424V14.2692ZM111.486 13.2557H116.66C116.58 11.4421 115.62 10.7219 114.206 10.7219C112.899 10.7219 111.833 11.6288 111.486 13.2557ZM119.114 18.5366V10.3219C120.234 9.89514 121.514 9.6551 122.661 9.6551C124.795 9.6551 126.102 10.5086 126.102 12.6689V18.5099H124.928V12.909C124.928 11.1487 123.701 10.7486 122.554 10.7486C121.674 10.7486 120.874 10.9086 120.261 11.0687V18.5099H119.114V18.5366ZM126.822 10.882V9.86847H128.129V7.76145H129.302V9.86847H131.676V10.882H129.302V16.1629C129.302 17.283 129.729 17.7098 130.529 17.7098C131.062 17.7098 131.516 17.5231 132.103 17.2297V18.2965C131.596 18.5633 131.009 18.7233 130.289 18.7233C129.062 18.7233 128.155 18.0565 128.155 16.2695V10.8553H126.822V10.882ZM139.784 9.86847V18.4299C138.744 18.6166 137.704 18.7233 136.823 18.7233C134.37 18.7233 132.983 17.8698 132.983 15.7094V9.86847H134.156V15.6561C134.156 17.283 135.41 17.7098 136.77 17.7098C137.357 17.7098 138.024 17.6831 138.637 17.6031V9.89514H139.784V9.86847ZM142.931 11.3087V18.5366H141.758V10.6686C142.638 10.0818 143.731 9.73511 144.905 9.73511C145.358 9.73511 145.838 9.78846 146.318 9.92181V11.0953C145.812 10.9086 145.225 10.882 144.825 10.882C143.998 10.8553 143.358 11.042 142.931 11.3087ZM153.866 14.2692H147.465V14.2959C147.465 16.4296 148.959 17.6831 150.612 17.6831C151.813 17.6831 152.639 17.3631 153.493 16.6963V17.8965C152.746 18.4832 151.653 18.7233 150.612 18.7233C148.159 18.7233 146.292 17.0163 146.292 14.1892C146.292 11.5754 148.025 9.6551 150.319 9.6551C152.453 9.6551 153.866 10.962 153.866 13.4424V14.2692ZM147.545 13.2557H152.719C152.639 11.4421 151.679 10.7219 150.266 10.7219C148.932 10.7219 147.865 11.6288 147.545 13.2557ZM154.746 18.0298V16.6696C155.466 17.3364 156.213 17.7098 157.12 17.7098C158.187 17.7098 158.854 17.283 158.854 16.3229C158.854 15.2827 158.107 15.016 156.773 14.5626C155.28 14.0558 154.64 13.4157 154.64 12.0288C154.64 10.5086 155.76 9.68177 157.307 9.68177C158.134 9.68177 158.96 9.86847 159.627 10.3486V11.6288C158.96 11.0687 158.294 10.6953 157.307 10.6953C156.373 10.6953 155.787 11.202 155.787 12.0288C155.787 12.829 156.24 13.229 157.547 13.6558C159.014 14.1092 160.001 14.6959 160.001 16.2695C160.001 17.9765 158.694 18.75 157.12 18.75C156.187 18.7233 155.28 18.4566 154.746 18.0298Z" fill="var(--fill-0, #2E3742)"/>
</g>
</svg>
