<svg preserveAspectRatio="none" width="100%" height="100%" overflow="visible" style="display: block;" viewBox="0 0 142.12 17.6681" fill="none" xmlns="http://www.w3.org/2000/svg">
<g id="g3196">
<path id="path3168" d="M27.9339 0.000455932C26.0091 0.017847 24.1114 0.533877 22.7173 1.5566C21.5356 2.42343 20.2091 4.13248 19.7229 5.41748C17.7983 10.5042 20.3105 16.0117 25.193 17.4128C26.5531 17.803 29.9555 17.6554 31.2466 17.1475C33.5658 16.2352 35.6401 13.9876 36.3748 11.589C36.9419 9.7377 36.9381 6.9338 36.3689 5.35264C35.9002 4.05074 34.9041 2.64021 33.8932 1.83953C32.3293 0.600859 30.1153 -0.0192646 27.9339 0.000455932ZM27.0851 0.719583C27.355 0.717395 27.6631 0.722165 28.04 0.737254C29.5879 0.799249 29.9732 0.884737 30.8458 1.36207C33.9252 3.04663 35.4594 7.23023 34.5593 11.477C34.0364 13.9438 32.9477 15.4296 30.9636 16.3812C30.011 16.8381 29.608 16.9193 28.4172 16.9058C27.6392 16.897 26.7904 16.8258 26.531 16.7467C23.9637 15.9629 21.9852 13.5996 21.338 10.5457C20.4169 6.19991 21.9915 2.26838 25.134 1.08503C25.8371 0.820271 26.2754 0.726169 27.0851 0.719583Z" fill="var(--fill-0, #490314)"/>
<path id="path3164" d="M64.7151 0.000455932C62.7904 0.017847 60.8927 0.533877 59.4985 1.5566C58.3168 2.42343 56.9903 4.13248 56.5041 5.41748C54.5795 10.5042 57.0917 16.0117 61.9742 17.4128C63.3343 17.803 66.7367 17.6554 68.0278 17.1475C70.347 16.2352 72.4214 13.9876 73.156 11.589C73.7231 9.7377 73.7194 6.9338 73.1501 5.35264C72.6815 4.05074 71.6854 2.64021 70.6745 1.83953C69.1105 0.600859 66.8965 -0.0192646 64.7151 0.000455932ZM63.8663 0.719583C64.1362 0.717395 64.4443 0.722165 64.8212 0.737254C66.3691 0.799249 66.7544 0.884737 67.627 1.36207C70.7065 3.04663 72.2407 7.23023 71.3405 11.477C70.8177 13.9438 69.7289 15.4296 67.7449 16.3812C66.7923 16.8381 66.3892 16.9193 65.1985 16.9058C64.4204 16.897 63.5716 16.8258 63.3122 16.7467C60.7449 15.9629 58.7665 13.5996 58.1192 10.5457C57.1981 6.19991 58.7727 2.26838 61.9153 1.08503C62.6183 0.820271 63.0567 0.726169 63.8663 0.719583Z" fill="var(--fill-0, #490314)"/>
<path id="path3160" d="M81.1343 17.4419C81.0867 17.3122 80.2356 14.4899 79.2428 11.1702C76.6875 2.62532 76.3578 1.59528 76.0491 1.19269C75.8983 0.995962 75.369 0.72583 74.8728 0.592392C74.0368 0.367564 74.1851 0.350911 76.8943 0.365305C78.5024 0.37385 79.5908 0.415594 79.3131 0.45808C78.4693 0.587177 78.3245 0.927495 78.5739 2.1954C78.8095 3.39266 81.7766 14.1347 81.9081 14.2662C81.9516 14.3097 82.0173 14.3099 82.0541 14.2668C82.0909 14.2235 83.2357 11.1803 84.5981 7.50392C86.9448 1.17145 87.3125 0.305305 87.5521 0.544994C87.6078 0.600636 88.7192 3.69255 90.0218 7.41591C91.3245 11.1393 92.4263 14.2216 92.4702 14.2655C92.5141 14.3094 92.5873 14.3082 92.6328 14.2627C92.8869 14.0086 96.3226 2.08773 96.3226 1.46013C96.3226 0.833555 96.2521 0.693761 95.8982 0.618238C95.6647 0.568428 95.304 0.491778 95.0965 0.447902C94.889 0.404025 95.8651 0.366967 97.2657 0.365552C98.7553 0.364043 99.5704 0.420756 99.2298 0.502196C98.9095 0.578766 98.5471 0.703405 98.4245 0.779173C97.9375 1.08014 97.2107 2.98293 94.9238 9.94416C93.6116 13.9383 92.4542 17.3335 92.3518 17.4891C92.1894 17.736 92.133 17.7294 91.9096 17.4378C91.7688 17.2539 91.0528 15.3866 90.3185 13.2881C89.5841 11.1896 88.5438 8.2149 88.0066 6.67771C87.4694 5.14053 86.9614 3.9522 86.8777 4.03698C86.7939 4.12177 85.6539 7.07154 84.3443 10.592C83.0347 14.1125 81.8807 17.147 81.7799 17.3353C81.5678 17.7316 81.2593 17.7825 81.1343 17.4419Z" fill="var(--fill-0, #490314)"/>
<path id="path3148" d="M129.233 17.2944C129.167 17.1872 129.898 15.8928 130.858 14.4179C135.858 6.73869 139.177 1.57889 139.267 1.34326C139.35 1.12622 138.987 1.08068 137.226 1.08744C136.048 1.09196 134.203 1.16864 133.125 1.25785C131.315 1.40775 131.125 1.46184 130.615 1.97166C130.312 2.27505 129.945 2.85619 129.8 3.26308C129.475 4.17632 129.459 3.87164 129.73 1.92802L129.941 0.419034L135.813 0.482624C139.043 0.517599 141.71 0.570147 141.74 0.599403C141.77 0.628658 139.499 4.19111 136.694 8.51595C133.889 12.8408 131.595 16.4169 131.595 16.4628C131.595 16.5935 139.209 16.5606 139.877 16.4271C140.661 16.2703 141.565 15.4082 141.711 14.6776C141.775 14.3567 141.911 14.0942 142.013 14.0942C142.199 14.0942 142.159 14.4737 141.76 16.4992L141.565 17.4894H135.459C131.459 17.4894 129.312 17.4222 129.233 17.2944Z" fill="var(--fill-0, #490314)"/>
<path id="path3138" d="M0.402208 17.1361C1.41715 16.9187 1.43891 16.7423 1.44194 8.70739C1.44405 3.10354 1.38829 1.2646 1.20895 1.02509C1.07927 0.851902 0.633645 0.632005 0.218673 0.536428C-0.353238 0.404703 0.14886 0.362733 2.29353 0.363007C4.15355 0.363195 4.89985 0.415873 4.47191 0.51662C3.3992 0.769161 3.33096 1.00242 3.33096 4.41621V7.49244H8.32948H13.328V4.41621C13.328 2.25229 13.2581 1.24471 13.0922 1.01876C12.9625 0.842094 12.4745 0.622969 12.0076 0.531817C11.3615 0.405669 11.8346 0.365026 13.9882 0.361637C15.9408 0.358562 16.6422 0.409442 16.2519 0.52583C15.9408 0.618588 15.58 0.839719 15.4502 1.01723C15.1091 1.48369 15.1156 15.868 15.4572 16.5464C15.6398 16.909 15.8898 17.0441 16.539 17.1311C17.0034 17.1933 16.1101 17.2442 14.554 17.2443C12.9979 17.2443 11.9519 17.2096 12.2296 17.1671C13.1808 17.0216 13.229 16.8042 13.294 12.3681L13.3544 8.24694H8.34266H3.33096V11.9913C3.33096 16.807 3.36576 16.9133 5.02857 17.1752C5.28793 17.2161 4.22692 17.251 2.67078 17.2529C1.11463 17.2547 0.0937787 17.2022 0.402208 17.1361Z" fill="var(--fill-0, #490314)"/>
<path id="path3136" d="M42.0977 0.347903C39.9632 0.360805 38.7991 0.42425 39.2271 0.507054C40.6453 0.781418 40.5828 0.393091 40.5828 8.77112C40.5828 16.8607 40.5643 17.0177 39.5925 17.1649C39.3072 17.2081 40.3046 17.2461 41.8089 17.2474C43.3131 17.2487 44.3317 17.2175 44.0723 17.1766C42.94 16.9983 42.7823 16.9053 42.581 16.3278C42.4661 15.9981 42.3747 14.4827 42.3747 12.9267V10.121L44.0252 10.174L45.6756 10.2271L46.6188 11.5297C48.8887 14.6654 50.4944 16.5429 51.2282 16.9173C51.8423 17.2305 52.3153 17.295 53.8277 17.2769C55.4422 17.2575 55.5583 17.2341 54.759 17.1C54.2563 17.0156 53.5293 16.742 53.1439 16.487C52.3504 15.9618 50.6529 14.0905 48.5639 11.4472L47.1434 9.64939L47.9686 8.71217C50.2462 6.12377 50.5038 3.40756 48.6465 1.59753C47.5595 0.538231 46.4199 0.321797 42.0977 0.347903ZM44.3022 0.901984C45.7616 0.945471 46.8198 1.6225 47.5088 2.94147C47.9614 3.80789 48.0334 4.1718 48.0334 5.49378C48.0334 7.23325 47.5927 8.39933 46.6777 9.06584C46.2063 9.40921 44.4731 9.67888 43.978 9.48435C43.8743 9.44358 43.4711 9.3549 43.0821 9.28983L42.3747 9.17194V5.14012V1.1024L43.2235 0.972718C43.6034 0.915757 43.9654 0.891949 44.3022 0.901984Z" fill="var(--fill-0, #490314)"/>
<path id="path3132" d="M103.142 17.1675C104.099 17.0205 104.151 16.5819 104.149 8.59459C104.147 1.77459 104.124 1.2782 103.799 0.918663C103.607 0.707248 103.184 0.500702 102.858 0.45967C102.531 0.418637 103.495 0.380172 104.999 0.374189C106.722 0.367342 107.501 0.418497 107.104 0.512375C106.757 0.594362 106.375 0.759737 106.255 0.879871C106.097 1.03807 106.037 3.19677 106.037 8.70829C106.037 15.8569 106.058 16.3417 106.387 16.705C106.579 16.9178 107.046 17.1245 107.424 17.1646C107.802 17.2046 106.881 17.2389 105.377 17.2408C103.872 17.2427 102.867 17.2097 103.142 17.1675Z" fill="var(--fill-0, #490314)"/>
<path id="path3128" d="M116.18 17.1649C116.477 17.12 116.843 16.8713 117.028 16.5885C117.323 16.1383 117.354 15.3823 117.354 8.63207V1.1731L114.974 1.20053C112.364 1.23059 111.964 1.3505 111.403 2.26972C111.05 2.8483 111.037 2.85313 111.054 2.39916C111.064 2.1398 111.171 1.50319 111.293 0.98448C111.495 0.121521 111.554 0.04938 111.982 0.135675C112.239 0.187547 115.315 0.229987 118.816 0.229987H125.182L125.171 1.64466C125.161 2.98849 125.149 3.02638 124.936 2.40137C124.621 1.48298 124.07 1.28556 121.42 1.14308L119.126 1.01974L119.183 8.66895C119.237 15.8101 119.264 16.3438 119.591 16.7048C119.783 16.9174 120.25 17.1241 120.628 17.1642C121.006 17.2042 120.042 17.2385 118.486 17.2404C116.93 17.2423 115.892 17.2083 116.18 17.1649Z" fill="var(--fill-0, #490314)"/>
</g>
</svg>
