<svg preserveAspectRatio="none" width="100%" height="100%" overflow="visible" style="display: block;" viewBox="0 0 160 22.2248" fill="none" xmlns="http://www.w3.org/2000/svg">
<g id="Frame 2147227757">
<path id="Vector" d="M12.3529 0H0V2.45456H12.3529V0ZM24.7324 4.93581H7.41705V7.39037H24.7324V4.93581ZM27.2136 9.87162H7.44373V12.3262H27.2136V9.87162ZM24.7324 14.8074H7.41705V17.262H24.7324V14.8074ZM19.7699 19.7699H7.41705V22.2245H19.7699V19.7699Z" fill="var(--fill-0, #E42313)"/>
<path id="Vector_2" d="M37.4852 17.5287V5.17588H35.5376V4.34879H40.5001V5.17588H38.5524V17.5287H40.5001V18.3558H35.5376V17.5287H37.4852ZM41.3005 18.3558V17.5287H42.8746V9.09784H41.3005V8.27076H43.9151V9.84488H43.9418C44.4754 8.6176 45.4626 7.97728 46.9033 7.97728C47.9705 7.97728 48.7175 8.27076 49.1978 8.8844C49.678 9.49804 49.9181 10.4318 49.9181 11.7125V17.5287H51.3589V18.3558H47.1968V17.5287H48.8776V11.7125C48.8776 9.76484 48.1039 8.80436 46.5831 8.80436C45.7827 8.80436 45.1424 9.1512 44.6622 9.8182C44.1819 10.5119 43.9418 11.419 43.9418 12.5929V17.5287H45.5159V18.3558H41.3005ZM59.8431 9.97828V5.20256H58.1623V4.34879H60.9103V17.5287H62.271V18.3558H59.8698V16.6216H59.8164C59.4162 17.342 58.9627 17.8756 58.4558 18.1691C57.9488 18.4625 57.3085 18.6226 56.5081 18.6226C56.0546 18.6226 55.601 18.5426 55.2008 18.3825C54.7739 18.2224 54.347 17.9556 53.9202 17.5821C53.4933 17.2086 53.1464 16.675 52.9063 15.9279C52.6395 15.1809 52.5328 14.3271 52.5328 13.2866C52.5328 11.6858 52.8796 10.4052 53.6 9.44468C54.2937 8.45752 55.2808 7.97728 56.5348 7.97728C58.0822 7.97728 59.1761 8.64428 59.8431 9.9516V9.97828ZM54.4271 10.085C53.8668 10.9388 53.5733 12.006 53.5733 13.3133C53.5733 14.6206 53.8668 15.6878 54.4271 16.5416C54.9874 17.3953 55.7878 17.8222 56.8283 17.8222C57.3886 17.8222 57.8688 17.6888 58.2957 17.422C58.7226 17.1552 59.0427 16.8084 59.2828 16.3548C59.523 15.9013 59.683 15.3943 59.7898 14.8607C59.8965 14.3271 59.9498 13.7668 59.9498 13.1532C59.9498 12.3528 59.8431 11.6591 59.6564 11.0722C59.4696 10.4852 59.2028 10.0316 58.8826 9.71148C58.5625 9.418 58.2423 9.17788 57.8955 9.04448C57.5486 8.91108 57.2018 8.83104 56.8283 8.83104C55.7878 8.80436 54.9874 9.23124 54.4271 10.085ZM71.7958 13.5H64.4588C64.4854 14.834 64.7789 15.8746 65.3392 16.6483C65.8995 17.422 66.6999 17.7955 67.7137 17.7955C69.3946 17.7955 70.3817 16.9685 70.6752 15.341H71.609C71.4223 16.4349 70.9954 17.2353 70.3284 17.7955C69.6614 18.3558 68.7809 18.6226 67.7404 18.6226C66.3264 18.6226 65.2325 18.1424 64.5121 17.1819C63.7918 16.2214 63.4182 14.9408 63.4182 13.3133C63.4182 11.6858 63.7918 10.4052 64.5121 9.44468C65.2325 8.4842 66.3264 8.00396 67.7404 8.00396C68.6742 8.00396 69.4746 8.27076 70.1149 8.80436C70.7553 9.33797 71.2088 10.005 71.4489 10.8054C71.6624 11.6058 71.7958 12.5129 71.7958 13.5ZM64.4321 12.673H70.7286C70.7019 11.4457 70.4084 10.4852 69.8748 9.8182C69.3145 9.1512 68.5675 8.80436 67.5803 8.80436C66.6999 8.80436 66.0062 9.15121 65.4459 9.87157C64.8856 10.5919 64.5388 11.5257 64.4321 12.673ZM72.7296 18.3558V17.5287H73.61L76.8383 13.1532L73.8768 9.09784H73.0231V8.27076H76.4648V9.09784H75.0507L77.5053 12.4595L79.9866 9.09784H78.7326V8.27076H82.1743V9.09784H81.1605L78.119 13.1532L81.3472 17.5287H82.2277V18.3558H78.786V17.5287H80.1733L77.4786 13.8469L74.7839 17.5287H76.1713V18.3558H72.7296ZM85.9362 5.17588V4.34879H90.4184V5.17588H88.3374L92.4728 17.1819H92.4995L96.6349 5.17588H94.5539V4.34879H99.0628V5.17588H97.8355L93.1398 18.3558H91.8592L87.1635 5.17588H85.9362ZM107.067 13.5H99.7298C99.7565 14.834 100.05 15.8746 100.61 16.6483C101.171 17.422 101.971 17.7955 102.985 17.7955C104.666 17.7955 105.653 16.9685 105.946 15.341H106.88C106.693 16.4349 106.266 17.2353 105.599 17.7955C104.932 18.3558 104.052 18.6226 103.011 18.6226C101.597 18.6226 100.504 18.1424 99.7831 17.1819C99.0628 16.2214 98.6893 14.9408 98.6893 13.3133C98.6893 11.6858 99.0628 10.4052 99.7831 9.44468C100.504 8.4842 101.597 8.00396 103.011 8.00396C103.945 8.00396 104.746 8.27076 105.386 8.80436C106.026 9.33797 106.48 10.005 106.72 10.8054C106.933 11.6058 107.067 12.5129 107.067 13.5ZM99.7298 12.673H106.026C106 11.4457 105.706 10.4852 105.173 9.8182C104.612 9.1512 103.865 8.80436 102.878 8.80436C101.998 8.80436 101.304 9.15121 100.744 9.87157C100.157 10.5919 99.8365 11.5257 99.7298 12.673ZM108.081 18.3558V17.5287H109.655V9.09784H108.081V8.27076H110.695V9.84488H110.722C111.256 8.6176 112.243 7.97728 113.683 7.97728C114.751 7.97728 115.498 8.27076 115.978 8.8844C116.458 9.49804 116.698 10.4318 116.698 11.7125V17.5287H118.139V18.3558H113.95V17.5287H115.631V11.7125C115.631 9.76484 114.857 8.80436 113.337 8.80436C112.536 8.80436 111.896 9.1512 111.416 9.8182C110.935 10.5119 110.695 11.419 110.695 12.5929V17.5287H112.269V18.3558H108.081ZM120.514 8.27076V6.10968L121.581 5.70948V8.24408H124.302V9.07117H121.581V16.1147C121.581 16.7017 121.687 17.1019 121.874 17.3687C122.061 17.6355 122.301 17.7689 122.595 17.7689C123.395 17.7689 123.795 17.1285 123.795 15.8212V15.6078H124.622V15.9813C124.622 16.755 124.435 17.3953 124.062 17.8756C123.688 18.3558 123.155 18.5959 122.488 18.5959C121.181 18.5959 120.54 17.8489 120.54 16.3548V9.07117H118.753V8.24408H120.514V8.27076ZM125.476 9.09784V8.27076H127.984V14.8874C127.984 16.8351 128.758 17.7955 130.278 17.7955C131.052 17.7955 131.692 17.4754 132.173 16.8084C132.653 16.1414 132.92 15.2609 132.92 14.1404V9.09784H131.346V8.27076H133.96V17.5287H135.534V18.3558H132.92V16.7017H132.893C132.626 17.3153 132.253 17.7955 131.719 18.1157C131.212 18.4359 130.599 18.6226 129.932 18.6226C128.864 18.6226 128.117 18.3291 127.637 17.7155C127.157 17.1019 126.917 16.1681 126.917 14.8874V9.07117H125.476V9.09784ZM136.335 18.3558V17.5287H137.909V9.09784H136.335V8.27076H138.949V10.0583H138.976C139.163 9.39132 139.51 8.8844 139.99 8.51088C140.47 8.16404 141.004 7.97728 141.617 7.97728C141.858 7.97728 142.044 8.00396 142.178 8.03064V8.96444C142.098 8.93776 141.938 8.91108 141.697 8.91108C140.79 8.91108 140.123 9.25792 139.643 9.92492C139.163 10.5919 138.949 11.4724 138.949 12.5929V17.5287H140.87V18.3558H136.335ZM151.596 13.5H144.259C144.285 14.834 144.579 15.8746 145.139 16.6483C145.699 17.422 146.5 17.7955 147.514 17.7955C149.195 17.7955 150.182 16.9685 150.475 15.341H151.409C151.222 16.4349 150.795 17.2353 150.128 17.7955C149.461 18.3558 148.581 18.6226 147.54 18.6226C146.126 18.6226 145.032 18.1424 144.312 17.1819C143.592 16.2214 143.218 14.9408 143.218 13.3133C143.218 11.6858 143.592 10.4052 144.312 9.44468C145.032 8.4842 146.126 8.00396 147.54 8.00396C148.474 8.00396 149.275 8.27076 149.915 8.80436C150.555 9.33797 151.009 10.005 151.249 10.8054C151.462 11.6058 151.596 12.5129 151.596 13.5ZM144.259 12.673H150.529C150.502 11.4457 150.208 10.4852 149.675 9.8182C149.115 9.1512 148.367 8.80436 147.38 8.80436C146.5 8.80436 145.806 9.15121 145.246 9.87157C144.686 10.5919 144.365 11.5257 144.259 12.673ZM153.037 18.3558V14.8074H153.864C153.89 15.7945 154.157 16.5149 154.664 17.0485C155.144 17.5554 155.785 17.8222 156.558 17.8222C157.305 17.8222 157.919 17.6355 158.346 17.2353C158.799 16.8617 159.013 16.3014 159.013 15.6344C159.013 15.0475 158.853 14.5939 158.533 14.3538C158.212 14.087 157.652 13.9002 156.825 13.7668L155.544 13.5801C153.917 13.2866 153.09 12.4862 153.09 11.1789C153.09 10.1917 153.41 9.44468 154.05 8.8844C154.691 8.32412 155.438 8.03064 156.345 8.03064C157.679 8.03064 158.559 8.51088 159.013 9.49804H159.04V8.29744H159.867V11.7658H159.04V11.2056C159.04 10.4585 158.799 9.87157 158.319 9.47137C157.839 9.04449 157.225 8.85772 156.478 8.85772C155.758 8.85772 155.198 9.07117 154.771 9.47137C154.344 9.87157 154.13 10.4052 154.13 11.0455C154.13 11.9526 154.717 12.4862 155.918 12.673L157.385 12.9131C158.319 13.0465 158.986 13.34 159.386 13.7668C159.813 14.1937 160 14.8074 160 15.5544C160 16.5683 159.707 17.342 159.093 17.8756C158.479 18.4092 157.625 18.676 156.532 18.676C155.171 18.676 154.264 18.1424 153.81 17.0485V18.4092H153.037V18.3558Z" fill="var(--fill-0, #181818)"/>
</g>
</svg>
