<svg preserveAspectRatio="none" width="100%" height="100%" overflow="visible" style="display: block;" viewBox="0 0 160 21.1166" fill="none" xmlns="http://www.w3.org/2000/svg">
<g id="Imported-Layers">
<path id="Fill-1" d="M56.5774 20.9032L54.5245 17.3571C55.4843 15.5174 55.4843 13.3845 55.4843 10.5583C55.4843 7.01218 55.4843 4.42594 53.4313 2.26629C52.0182 0.746543 50.2052 0 47.8322 0C45.4593 0 43.6196 0.853192 42.2332 2.26629C40.1802 4.31929 40.1802 6.90553 40.1802 10.5583C40.1802 14.1043 40.0735 16.6906 42.2332 18.8502C43.7529 20.37 45.4593 21.1165 47.8322 21.1165C48.4721 21.1165 49.0054 21.0099 49.5653 20.9032H56.5774ZM45.1393 16.3706C44.3928 15.5174 44.1795 14.5309 44.1795 10.5583C44.1795 6.58558 44.3928 5.59908 45.1393 4.74589C45.6726 4.10599 46.6591 3.6794 47.7256 3.6794C48.7921 3.6794 49.7786 4.10599 50.3118 4.74589C51.0584 5.59908 51.2717 6.58558 51.2717 10.5583C51.2717 14.5309 51.0584 15.5174 50.3118 16.3706C49.7786 17.0105 48.7921 17.4371 47.7256 17.4371C46.6591 17.4371 45.6992 17.0105 45.1393 16.3706Z" fill="var(--fill-0, #3C3C3C)"/>
<path id="Fill-2" d="M103.85 0.213246H107.822V20.9032H103.85V0.213246Z" fill="var(--fill-0, #3C3C3C)"/>
<path id="Fill-3" d="M7.54542 21.1166C4.42594 21.1166 2.05299 20.4767 0 18.4237L2.58624 15.8375C3.86603 17.1173 5.70572 17.5705 7.54542 17.5705C9.91836 17.5705 11.1981 16.7173 11.1981 14.9843C11.1981 14.2378 10.9849 13.7045 10.5583 13.2513C10.1317 12.8247 9.70506 12.718 8.71856 12.5047L6.23897 12.1848C4.50592 11.9715 3.11948 11.3316 2.26629 10.4517C1.30645 9.49187 0.746543 8.07877 0.746543 6.34573C0.746543 2.693 3.43943 0.106753 7.97202 0.106753C10.7716 0.106753 12.9312 0.746654 14.6642 2.4797L12.078 4.95929C10.7982 3.6795 9.17182 3.54619 7.86537 3.54619C5.70572 3.54619 4.63923 4.71933 4.63923 6.13242C4.63923 6.66567 4.85253 7.19892 5.27913 7.65218C5.70572 8.07877 6.34562 8.29207 7.22547 8.50536L9.70506 8.82531C11.6514 9.03861 12.8245 9.57186 13.6777 10.4517C14.7442 11.5182 15.3041 13.038 15.3041 14.8777C15.3041 18.8503 11.8647 21.1166 7.54542 21.1166Z" fill="var(--fill-0, #3C3C3C)"/>
<path id="Fill-4" d="M21.1163 20.9032V0.213246H34.794V3.75932H25.1956V8.61186H33.3809V12.2912H25.1956V17.3571H34.794V20.9032H21.1163Z" fill="var(--fill-0, #3C3C3C)"/>
<path id="Fill-5" d="M69.1617 21.1165C64.9491 21.1165 61.5096 18.2103 61.5096 13.7843V0.213246H65.6156V13.6777C65.6156 16.0506 67.0287 17.4371 69.1617 17.4371C71.2947 17.4371 72.7078 16.024 72.7078 13.6777V0.213246H76.6804V13.7843C76.7071 18.2103 73.3743 21.1165 69.1617 21.1165Z" fill="var(--fill-0, #3C3C3C)"/>
<path id="Fill-6" d="M95.8774 18.8502C94.4643 20.37 92.6513 21.1165 90.2783 21.1165C87.9054 21.1165 86.0657 20.2633 84.6793 18.8502C82.6263 16.7972 82.6263 14.211 82.6263 10.5583C82.6263 7.01218 82.5196 4.42594 84.6793 2.26629C86.0924 0.746543 87.9054 0 90.2783 0C92.6513 0 94.3843 0.853192 95.8774 2.26629C97.9304 4.31929 97.9304 6.90553 97.9304 10.5583C97.9304 14.1043 97.9304 16.6906 95.8774 18.8502ZM92.8646 4.74589C92.3313 4.10599 91.3448 3.6794 90.2783 3.6794C89.2118 3.6794 88.2253 4.10599 87.6921 4.74589C86.9456 5.59908 86.7323 6.58558 86.7323 10.5583C86.7323 14.5309 86.9456 15.5174 87.6921 16.3706C88.2253 17.0105 89.2118 17.4371 90.2783 17.4371C91.3448 17.4371 92.3313 17.0105 92.8646 16.3706C93.6111 15.5174 93.8244 14.5309 93.8244 10.5583C93.8511 6.58558 93.6378 5.59908 92.8646 4.74589Z" fill="var(--fill-0, #3C3C3C)"/>
<path id="Fill-7" d="M126.912 20.9032L125.739 17.2504H118.407L117.127 20.9032H112.915L120.46 0.213246H123.58L131.125 20.9032H126.912ZM122.06 6.23891L119.474 13.7843H124.646L122.06 6.23891Z" fill="var(--fill-0, #3C3C3C)"/>
<path id="Fill-8" d="M154.828 0.213246H160V5.38572H154.828V0.213246Z" fill="var(--fill-0, #50B848)"/>
<path id="Fill-9" d="M141.897 16.4772V0.213246H139.31V19.0635L141.897 16.4772Z" fill="var(--fill-0, #50B848)"/>
<path id="Fill-10" d="M143.71 18.317L141.124 20.9033H159.974V18.317H143.71Z" fill="var(--fill-0, #50B848)"/>
<path id="Fill-11" d="M147.069 11.3047V0.213246H144.483V13.891L147.069 11.3047Z" fill="var(--fill-0, #50B848)"/>
<path id="Fill-12" d="M148.882 13.1444L146.296 15.7307H159.973V13.1444H148.882Z" fill="var(--fill-0, #50B848)"/>
<path id="Fill-13" d="M152.242 6.13226V0.213246H149.655V8.71851L152.242 6.13226Z" fill="var(--fill-0, #50B848)"/>
<path id="Fill-14" d="M154.054 7.97212L151.468 10.5584H159.973V7.97212H154.054Z" fill="var(--fill-0, #50B848)"/>
</g>
</svg>
