<svg preserveAspectRatio="none" width="100%" height="100%" overflow="visible" style="display: block;" viewBox="0 0 160.064 15.8254" fill="none" xmlns="http://www.w3.org/2000/svg">
<g id="Logo_2">
<g id="Group_2">
<path id="Path_12" d="M8.69635 3.03654V11.3863C8.63333 12.3 8.82238 13.2138 9.23199 14.033C9.70462 14.6001 10.3978 14.9152 11.154 14.9152C11.4061 14.9467 11.5636 15.0728 11.5636 15.3248C11.5636 15.4824 11.4376 15.5769 11.217 15.5769C11.154 15.5769 11.0595 15.5769 10.9334 15.5769L10.0827 15.5139L8.69635 15.4194C8.57031 15.4194 8.44428 15.4194 8.25523 15.4194C7.81411 15.4194 7.43601 15.4194 7.08941 15.4509L4.63175 15.6084C4.37968 15.6399 4.19063 15.6399 4.09611 15.6399C3.87555 15.6399 3.74952 15.5454 3.74952 15.3563C3.74952 15.2303 3.78102 15.1358 3.87555 15.0413C4.00158 14.9782 4.15913 14.9467 4.31667 14.9467C4.8208 14.9467 5.32494 14.7262 5.64002 14.3166C5.98662 13.8755 6.14416 13.3083 6.11265 12.7727V12.237V2.37486C6.11265 1.80771 5.79757 1.49262 5.1674 1.49262C4.15913 1.42961 3.11935 1.55564 2.14258 1.80771C1.8275 1.90223 1.57543 2.09128 1.35487 2.34335C1.13431 2.81598 0.945262 3.35162 0.819228 3.85576L0.724703 4.17084C0.630177 4.48593 0.504143 4.61196 0.346601 4.61196C0.0945332 4.61196 7.76164e-06 4.48593 7.76164e-06 4.26537C0.0315162 3.98179 0.0630247 3.69822 0.126042 3.41464L0.220567 2.43788L0.346601 1.46111L0.409618 0.799436C0.409618 0.578877 0.598669 0.358318 0.819228 0.358318C0.850736 0.358318 0.850736 0.358318 0.882245 0.358318C0.945262 0.358318 1.0713 0.358318 1.26035 0.389826C1.63845 0.452843 2.04806 0.452843 2.55219 0.452843L4.8208 0.484352L7.49902 0.51586C9.23199 0.51586 11.0595 0.452843 13.013 0.358318C13.3911 0.358318 13.6432 0.326809 13.7692 0.326809C14.1788 0.326809 14.3994 0.484352 14.3994 0.830945L14.4624 1.65016C14.4624 1.7762 14.4939 2.09128 14.5884 2.5324C14.6199 2.84749 14.6514 3.16257 14.6514 3.47766C14.6514 3.72972 14.5569 3.85576 14.3364 3.85576C14.1788 3.85576 14.0528 3.72972 13.9898 3.44615C13.8952 2.84749 13.5802 2.31184 13.1075 1.96525C12.5404 1.61866 11.8787 1.46111 11.1855 1.49262C10.4608 1.42961 9.76763 1.52413 9.07445 1.74469C8.82238 1.93374 8.69635 2.34335 8.69635 3.03654Z" fill="var(--fill-0, #E67B26)"/>
<path id="Path_13" d="M19.9132 12.0793L20.0078 13.1821C20.0708 13.6862 20.2913 14.1273 20.6694 14.4739C21.0475 14.789 21.5202 14.9466 22.0243 14.915C22.3709 14.915 22.5599 15.0411 22.5599 15.2616C22.5599 15.4822 22.3079 15.5767 21.8353 15.5767C21.6147 15.5767 21.3311 15.5452 20.953 15.5137C20.1653 15.4192 19.4091 15.3562 18.6214 15.3562C18.0227 15.3562 17.4556 15.3877 16.8569 15.4822C16.6048 15.5452 16.3213 15.5767 16.0692 15.5767C15.9117 15.5767 15.7856 15.4822 15.7541 15.3247L15.7226 15.2301L16.0377 14.9781C16.4473 14.852 16.8254 14.6315 17.109 14.2849C17.298 13.8438 17.3926 13.3711 17.3611 12.8985V11.9217V3.09937C17.3926 2.59523 17.2665 2.0911 17.0145 1.64998C16.6679 1.30339 16.1952 1.11434 15.7226 1.08283C15.4705 1.05132 15.2185 0.988302 14.9979 0.925286C14.9034 0.862269 14.8404 0.767743 14.8404 0.641709C14.8404 0.42115 14.9349 0.326625 15.0924 0.326625C15.2815 0.358133 15.502 0.358133 15.6911 0.42115C16.1322 0.484167 16.5733 0.515675 17.0145 0.515675C17.4241 0.515675 17.9282 0.484167 18.5584 0.452658L19.3776 0.389642C20.1338 0.326625 20.7325 0.295116 21.1106 0.295116C21.3626 0.295116 21.4887 0.389642 21.4887 0.578692C21.4887 0.673218 21.4887 0.767743 21.4256 0.862269C21.3311 0.925286 21.2366 0.956794 21.1421 0.956794C20.764 0.988302 20.3859 1.14584 20.1338 1.39791C19.9447 1.77601 19.8817 2.21713 19.9132 2.65825V12.0793Z" fill="var(--fill-0, #E67B26)"/>
<path id="Path_14" d="M31.0359 0.106171C32.5483 0.169188 33.9977 0.54729 35.3526 1.17746C35.6046 1.30349 35.8882 1.39802 36.1718 1.42953C36.2663 1.42953 36.3608 1.39802 36.4554 1.30349L36.5814 1.17746C36.6444 1.11444 36.7389 1.05143 36.8335 1.05143C37.054 1.05143 37.1486 1.17746 37.1486 1.46104V2.24875L37.117 3.76115L37.1486 4.54887C37.1801 4.73792 37.1801 4.95848 37.2116 5.17904C37.2116 5.27356 37.2116 5.33658 37.2116 5.36809C37.2116 5.62015 37.0855 5.71468 36.865 5.71468C36.7074 5.71468 36.6129 5.55714 36.5499 5.24205C36.3608 4.26529 35.8567 3.35154 35.132 2.65836C34.1237 1.49254 32.6428 0.862375 31.0989 0.862375C29.6811 0.830866 28.3262 1.49254 27.4755 2.62685C26.4987 4.01322 26.0261 5.68317 26.1206 7.35312C26.0576 9.21212 26.5302 11.0711 27.507 12.6781C28.4522 14.1274 29.5865 14.8521 30.9414 14.8521C31.477 14.8206 31.9812 14.7261 32.4853 14.5686C32.9894 14.4425 33.4621 14.2535 33.9032 13.9699C34.1868 13.7808 34.4073 13.4658 34.5018 13.1192C34.6279 12.552 34.6909 11.9849 34.6594 11.4177C34.7224 10.756 34.5649 10.1259 34.1868 9.59022C33.6826 9.18061 33.0525 8.96005 32.3908 9.02307C32.1702 9.02307 32.0442 8.89703 32.0442 8.70798C32.0442 8.51893 32.1702 8.3929 32.4538 8.3929C32.5483 8.3929 32.6744 8.3929 32.8319 8.42441C33.5566 8.48742 34.3758 8.51893 35.2896 8.51893C35.9827 8.51893 36.6759 8.51893 37.3691 8.45592C37.6527 8.42441 37.9363 8.3929 38.1883 8.3929C38.4404 8.3929 38.5979 8.48742 38.5979 8.67647C38.5979 8.86553 38.4719 8.96005 38.1883 9.02307C37.8102 9.08609 37.4636 9.33815 37.3061 9.71625C37.117 10.3149 37.0225 10.9451 37.054 11.5753C37.054 11.8273 37.054 12.0479 37.0855 12.2999C37.1171 12.678 37.117 12.9301 37.117 13.0562C37.117 13.2452 37.0855 13.4027 36.991 13.5603C36.8335 13.7178 36.6444 13.8124 36.4239 13.8754C36.2663 13.9384 35.6677 14.1905 34.6594 14.6316C33.21 15.3248 31.6346 15.7029 30.0592 15.7659C28.2002 15.8289 26.4357 15.1042 25.1753 13.7493C24.0095 12.363 23.3478 10.4725 23.4109 8.55044C23.3478 6.34485 24.1356 4.17076 25.6165 2.53232C26.9713 0.9569 28.9564 0.0431543 31.0359 0.106171Z" fill="var(--fill-0, #E67B26)"/>
<path id="Path_15" d="M44.5527 2.9105V5.30515C44.5212 5.74627 44.5842 6.18739 44.7103 6.597C44.8048 6.78605 45.0569 6.88057 45.435 6.88057H45.7816H46.2542H47.1995C47.9557 6.84906 48.6173 6.37644 48.9009 5.68325L49.153 5.14761C49.216 5.02157 49.342 4.92705 49.4996 4.92705C49.6571 4.92705 49.7516 5.02157 49.7516 5.24213C49.7516 5.30515 49.7516 5.46269 49.7201 5.71476C49.6886 5.90381 49.6886 6.06135 49.6886 6.21889C49.6886 6.47096 49.7201 7.0066 49.7831 7.88884C49.8147 8.45599 49.8462 8.96013 49.8462 9.36974V9.93689C49.8462 9.99991 49.8462 10.0944 49.8146 10.1575C49.7831 10.2205 49.7201 10.252 49.6256 10.2205C49.4366 10.252 49.3105 10.0944 49.279 9.81086C49.216 9.27521 48.9954 8.77108 48.6173 8.39298C48.4283 8.20393 48.1762 8.07789 47.9241 8.04638C47.42 7.98337 46.8844 7.95186 46.3802 7.98337H45.624C45.372 7.95186 45.1199 8.01488 44.8993 8.14091C44.7418 8.32996 44.6473 8.55052 44.6473 8.77108C44.5842 9.33823 44.5842 9.93689 44.5842 10.5356V11.5123C44.5527 12.2685 44.6473 13.0247 44.8363 13.7494C44.9623 14.3166 45.498 14.6947 46.0651 14.6001C49.0584 14.6001 51.012 13.6864 51.9572 11.8589C52.0202 11.7644 52.0518 11.7329 52.0833 11.7014C52.1463 11.7014 52.2408 11.7014 52.3038 11.7644C52.3668 11.8274 52.3983 11.9219 52.3983 12.0165C52.3983 12.7727 52.1778 13.4973 51.7997 14.1275C51.5161 14.6632 51.1065 15.0728 50.5709 15.3563C49.9722 15.6399 49.3105 15.766 48.6488 15.7345C48.1132 15.7345 47.6091 15.7029 47.0734 15.6399L45.7501 15.5139C45.2774 15.4824 44.6473 15.4509 43.828 15.4509C43.2924 15.4509 42.4732 15.4824 41.3704 15.5454C41.0553 15.5769 40.8662 15.5769 40.7087 15.5769C40.5827 15.6084 40.4566 15.5139 40.4251 15.3563V15.3248C40.4251 15.1988 40.4881 15.0728 40.6772 15.0098C40.9923 14.9152 41.3074 14.7262 41.5279 14.5056C41.717 14.222 41.843 13.8755 41.8745 13.5289C41.969 12.9932 42.0006 12.4576 42.0006 11.9219V3.19408C42.0636 2.59542 41.906 1.99676 41.5909 1.52413C41.1183 1.14603 40.5197 0.92547 39.921 0.893962C39.7634 0.893962 39.6059 0.736419 39.6059 0.578877C39.6059 0.421335 39.7319 0.326809 39.984 0.326809C40.047 0.326809 40.1416 0.326809 40.3306 0.358318C40.4566 0.358318 40.6457 0.358318 40.8662 0.358318L41.969 0.389826L46.1597 0.421335C48.5858 0.421335 50.0667 0.389826 50.6339 0.326809C50.6969 0.326809 50.7599 0.326809 50.7914 0.326809C51.012 0.326809 51.1065 0.452843 51.1065 0.704911C51.1065 0.862453 51.138 1.17754 51.1695 1.61866C51.2325 2.24883 51.264 2.72145 51.264 3.00503C51.264 3.57218 51.1065 3.85576 50.8229 3.85576C50.6969 3.85576 50.6024 3.69822 50.6024 3.35162C50.6654 2.72145 50.3503 2.09128 49.7831 1.74469C48.9639 1.36659 48.0817 1.17754 47.1995 1.24055H45.8446L45.1199 1.33508C44.7418 1.46111 44.5527 1.83922 44.5527 2.43788V2.9105Z" fill="var(--fill-0, #E67B26)"/>
<path id="Path_16" d="M57.9124 11.1971C57.8494 12.1739 57.9754 13.1192 58.2905 14.0329C58.6056 14.5685 59.2043 14.8836 59.8344 14.8836C60.1495 14.9151 60.3071 15.0412 60.3071 15.2302C60.3071 15.4508 60.181 15.5453 59.929 15.5453C59.8344 15.5453 59.7084 15.5453 59.4879 15.5138C58.8577 15.4508 58.2275 15.4508 57.6604 15.4508C57.1562 15.4508 56.7151 15.4508 56.337 15.4823L55.4233 15.5768L54.6671 15.6398C54.4465 15.6713 54.3205 15.6713 54.2259 15.6713C53.9739 15.6713 53.8163 15.5768 53.8163 15.3563C53.8163 15.1987 53.9109 15.0727 54.0369 15.0412C54.4465 14.9466 54.7931 14.7261 55.0767 14.411C55.2972 14.0644 55.3917 13.6233 55.3602 13.2137V12.1739V11.7328V3.76114C55.4233 3.16248 55.2972 2.53231 55.0136 1.99667C54.5725 1.46102 53.9424 1.14594 53.2492 1.11443C52.9341 1.08292 52.8081 0.92538 52.8081 0.736329C52.7765 0.578787 52.9026 0.452753 53.0286 0.421245C53.0601 0.421245 53.0916 0.421245 53.0916 0.421245C53.2177 0.421245 53.3437 0.421245 53.5012 0.452753C54.1314 0.51577 54.7616 0.547279 55.3602 0.547279C56.1164 0.547279 56.9987 0.51577 58.07 0.421245C59.3303 0.326719 60.181 0.263702 60.6537 0.263702C61.914 0.232194 63.1428 0.610295 64.1511 1.39801C65.0333 2.09119 65.5375 3.16248 65.5375 4.29679C65.5375 5.02148 65.3169 5.71467 64.9073 6.28182C64.4977 6.88048 63.899 7.35311 63.2058 7.63668C63.0483 7.6997 62.9853 7.76272 62.9853 7.85724C62.9853 7.95177 63.0483 8.04629 63.1113 8.10931C63.1743 8.20384 63.2689 8.39289 63.3949 8.61345L64.3717 10.3464L65.506 12.363C65.7895 12.8986 66.1361 13.3712 66.5457 13.7808C66.8293 14.0329 67.2389 14.1904 67.617 14.1904C67.7746 14.1904 67.9321 14.1904 68.0897 14.1589C68.1842 14.1274 68.2472 14.1274 68.3417 14.1274C68.4678 14.1274 68.5308 14.222 68.5308 14.3795C68.5308 14.6001 68.2157 14.8521 67.617 15.1042C67.1129 15.3563 66.5773 15.4823 66.0101 15.5138C65.1909 15.4823 64.4032 15.0727 63.899 14.411C62.9223 13.0876 62.0715 11.6698 61.4099 10.1889C61.1893 9.62172 60.8427 9.08607 60.4331 8.64496C60.055 8.39289 59.6139 8.26685 59.1728 8.32987H58.4796L57.9754 8.4244C57.8809 8.48741 57.8179 8.67646 57.8179 8.96004L57.9124 11.1971ZM57.9124 2.56382V6.37635C57.8809 6.69143 57.9439 7.00651 58.1015 7.25858C58.3535 7.41612 58.6686 7.47914 58.9837 7.44763C59.8029 7.47914 60.6222 7.44763 61.4414 7.38462C61.788 7.3216 62.0715 7.16406 62.3236 6.9435C62.8908 6.43936 63.1743 5.68316 63.1428 4.92696C63.2058 2.87891 61.5989 1.14594 59.5194 1.08292C59.4248 1.08292 59.3618 1.08292 59.2673 1.08292C58.8892 1.05141 58.5111 1.14594 58.2275 1.39801C57.9754 1.7446 57.8494 2.15421 57.9124 2.56382Z" fill="var(--fill-0, #E67B26)"/>
</g>
<path id="Path_17" d="M77.4169 0.0948987C78.9293 0.157916 80.3787 0.536017 81.7336 1.16619C81.9856 1.29222 82.2692 1.38675 82.5528 1.41825C82.6473 1.41825 82.7419 1.38675 82.8364 1.29222L82.9624 1.16619C83.0254 1.10317 83.1199 1.04015 83.2145 1.04015C83.435 1.04015 83.5296 1.16619 83.5296 1.44976V2.23747L83.498 3.74988L83.5296 4.53759C83.5296 4.72664 83.5611 4.9472 83.5926 5.16776C83.5926 5.26229 83.5926 5.3253 83.5926 5.35681C83.5926 5.60888 83.4665 5.70341 83.246 5.70341C83.0884 5.70341 82.9939 5.54586 82.9309 5.23078C82.7418 4.25402 82.2377 3.34027 81.513 2.64708C80.5047 1.48127 79.0238 0.851102 77.4799 0.851102C76.0621 0.819593 74.7072 1.48127 73.8565 2.61558C72.8797 4.00195 72.4071 5.6719 72.5016 7.34185C72.4386 9.20085 72.9112 11.0598 73.888 12.6668C74.8332 14.1162 75.9675 14.8409 77.3224 14.8409C77.858 14.8094 78.3622 14.7148 78.8663 14.5573C79.3704 14.4313 79.8431 14.2422 80.2842 13.9586C80.5678 13.7696 80.7883 13.4545 80.8828 13.1079C81.0089 12.5407 81.0719 11.9736 81.0404 11.4064C81.1034 10.7448 80.9459 10.1146 80.5678 9.57895C80.0636 9.16934 79.4335 8.94878 78.7718 9.0118C78.5512 9.0118 78.4252 8.88576 78.4252 8.69671C78.4252 8.50766 78.5512 8.38163 78.8348 8.38163C78.9293 8.38163 79.0554 8.38163 79.2129 8.41313C79.9376 8.47615 80.7568 8.50766 81.6706 8.50766C82.3637 8.50766 83.0569 8.50766 83.7501 8.44464C84.0337 8.41313 84.3173 8.38163 84.5693 8.38163C84.8529 8.38163 84.979 8.47615 84.979 8.6652C84.979 8.85425 84.8529 8.94878 84.5693 9.0118C84.1912 9.07481 83.8446 9.32688 83.6871 9.70498C83.4981 10.3036 83.4035 10.9338 83.435 11.564C83.435 11.816 83.435 12.0366 83.4665 12.2887C83.4981 12.6668 83.498 12.9188 83.498 13.0449C83.498 13.2339 83.4665 13.3915 83.372 13.549C83.2145 13.7066 83.0254 13.8011 82.8049 13.8641C82.6473 13.9271 82.0487 14.1792 81.0404 14.6203C79.591 15.3135 78.0156 15.6916 76.4086 15.7546C74.5496 15.8176 72.7852 15.0929 71.5248 13.7381C70.233 12.3202 69.5398 10.4297 69.6343 8.50766C69.5713 6.30207 70.359 4.12798 71.8399 2.48954C73.3208 0.945627 75.3374 0.0633902 77.4169 0.0948987Z" fill="var(--fill-0, #545456)"/>
<path id="Path_18" d="M90.9342 12.0364C90.9342 13.4228 91.0917 14.179 91.4383 14.368C91.7849 14.4941 92.163 14.5256 92.5096 14.5256C94.9988 14.5256 96.7947 13.8009 97.8345 12.32C98.1496 11.8789 98.3702 11.6583 98.4332 11.6583C98.5592 11.6583 98.6222 11.8158 98.6222 12.0994C98.6222 13.0132 98.3072 13.9269 97.7085 14.6201C97.1728 15.2818 96.3536 15.6284 95.5029 15.5969C95.3138 15.5969 94.9673 15.5654 94.4631 15.5338L93.1398 15.4708L91.9424 15.4078C91.5328 15.3763 91.0602 15.3763 90.5561 15.3763C89.6423 15.3763 88.6971 15.4393 87.7833 15.5338C87.4682 15.5654 87.2792 15.5969 87.1847 15.5969C86.9641 15.5969 86.8696 15.5023 86.8696 15.3133C86.8696 15.1873 86.9641 15.0927 87.1532 15.0297C87.5943 14.9352 87.9409 14.6516 88.1299 14.2735C88.3505 13.6748 88.445 13.0447 88.4135 12.4145V3.11951C88.4135 1.9537 87.9094 1.26051 86.9326 1.10297L86.2394 1.00844C85.9558 0.976935 85.8298 0.850901 85.8298 0.66185C85.7983 0.504308 85.9243 0.346766 86.0819 0.315257C86.1134 0.315257 86.1449 0.315257 86.1764 0.315257C86.2709 0.315257 86.3969 0.315257 86.4915 0.346766C86.586 0.346766 86.7435 0.378274 86.9326 0.378274L87.4052 0.409783C87.8463 0.441291 88.1929 0.472799 88.4135 0.472799C88.9806 0.441291 89.5478 0.409783 90.1149 0.346766C90.7136 0.283749 91.2808 0.25224 91.8794 0.25224C92.3205 0.25224 92.5411 0.346766 92.5411 0.567325C92.5411 0.756376 92.3836 0.850901 92.0685 0.850901C91.3123 0.913918 90.9342 1.41805 90.9342 2.39482V12.0364Z" fill="var(--fill-0, #545456)"/>
<path id="Path_19" d="M107.697 0.0632152C109.745 -0.0313102 111.761 0.693384 113.274 2.07976C114.691 3.46613 115.479 5.38815 115.385 7.37318C115.448 9.57877 114.66 11.7529 113.179 13.3913C111.761 14.9982 109.808 15.8174 107.287 15.8174C105.176 15.912 103.096 15.1558 101.552 13.7064C100.071 12.2255 99.3153 10.1774 99.4098 8.09787C99.4098 7.0896 99.5988 6.04982 99.9454 5.10457C100.639 3.08803 102.183 1.5126 104.136 0.756402C105.302 0.283775 106.499 0.0632152 107.697 0.0632152ZM106.877 0.913944C105.522 0.850927 104.231 1.4811 103.411 2.55238C102.561 3.65518 102.151 5.1991 102.151 7.15262C102.057 9.16916 102.624 11.1227 103.726 12.7926C104.64 14.179 106.153 14.9982 107.823 14.9667C109.272 14.9982 110.627 14.3366 111.446 13.1707C112.423 11.7529 112.895 10.0829 112.801 8.34994C112.801 7.18413 112.58 6.04982 112.171 4.94703C111.824 3.93876 111.257 3.05652 110.501 2.30032C109.524 1.41808 108.232 0.882435 106.877 0.913944Z" fill="var(--fill-0, #545456)"/>
<path id="Path_20" d="M118.913 3.56072C118.913 2.07982 118.315 1.2606 117.086 1.10305L116.582 1.04004C116.424 1.04004 116.33 0.914004 116.33 0.724953C116.33 0.504393 116.424 0.37836 116.645 0.37836H116.928L117.748 0.409868C118.441 0.441376 118.882 0.441376 119.071 0.441376C119.607 0.441376 120.583 0.37836 121.97 0.252326C122.852 0.189309 123.577 0.126292 124.175 0.126292C125.499 0.0632749 126.822 0.409868 127.956 1.13456C128.87 1.73322 129.406 2.74149 129.374 3.84429C129.437 5.04161 128.713 6.14441 127.61 6.55402C127.326 6.68005 127.2 6.77458 127.2 6.8691C127.2 6.99514 127.326 7.08966 127.641 7.12117C128.492 7.24721 129.28 7.68832 129.815 8.31849C130.351 9.01168 130.635 9.86241 130.603 10.7131C130.666 12.0365 130.13 13.2968 129.122 14.1791C127.988 15.0613 126.601 15.5339 125.152 15.4394L122.915 15.3764L121.182 15.3449C120.205 15.3449 119.26 15.3764 118.315 15.4709C118.094 15.5024 117.842 15.5024 117.622 15.5024C117.401 15.5024 117.275 15.4079 117.275 15.2188C117.275 15.0613 117.369 14.9353 117.559 14.9038C118.441 14.7462 118.882 13.99 118.882 12.6036L118.913 3.56072ZM121.466 2.61546V5.79782C121.434 6.14441 121.529 6.45949 121.781 6.71156C122.096 6.90061 122.474 6.99514 122.852 6.96363L124.396 6.99514L125.089 6.96363C126.349 6.80609 126.98 6.04988 126.98 4.69502C127.011 3.68675 126.633 2.74149 125.94 2.04831C125.152 1.32361 124.175 0.977021 123.136 1.00853C122.663 0.945512 122.19 1.07155 121.781 1.32361C121.529 1.70172 121.403 2.14283 121.466 2.61546ZM121.466 9.98844V11.8159L121.497 12.2255L121.56 13.1708C121.655 14.2421 122.505 14.7777 124.081 14.7777C125.656 14.7777 126.727 14.3996 127.295 13.6434C127.767 12.9817 128.019 12.194 127.988 11.3748C127.988 9.64185 127.2 8.57056 125.656 8.16095C124.648 7.90888 123.64 7.81436 122.631 7.81436C122.096 7.81436 121.749 7.94039 121.623 8.19246C121.497 8.75961 121.403 9.38978 121.466 9.98844Z" fill="var(--fill-0, #545456)"/>
<path id="Path_21" d="M139.962 1.60717L145.003 13.1708C145.192 13.6749 145.507 14.116 145.885 14.4626C146.263 14.7777 146.736 14.9668 147.208 15.0298C147.335 15.0613 147.398 15.1558 147.398 15.3449C147.398 15.5339 147.303 15.6599 147.145 15.6284C147.019 15.6284 146.862 15.5969 146.736 15.5654C145.822 15.4079 144.908 15.3449 143.995 15.3764C143.112 15.3449 142.262 15.4079 141.411 15.5654C141.316 15.5969 141.222 15.5969 141.127 15.6284C140.97 15.6599 140.844 15.5339 140.812 15.3764C140.812 15.3449 140.812 15.3133 140.812 15.3133C140.812 15.2188 140.907 15.1243 141.064 15.0613C141.411 14.9668 141.694 14.7777 141.947 14.4941C142.167 14.2736 142.293 13.9585 142.293 13.6434C142.104 12.6981 141.789 11.7844 141.348 10.9022C141.159 10.461 140.938 10.2405 140.686 10.1775C139.835 10.0829 138.985 10.0514 138.134 10.0829H136.622L135.645 10.272C135.361 10.398 135.078 10.8707 134.7 11.7214L134.353 12.5721C134.259 12.7927 134.195 13.0447 134.195 13.2968C134.195 14.2106 134.857 14.7777 136.149 14.9037C136.433 14.9352 136.559 15.0613 136.559 15.2188C136.559 15.4079 136.401 15.5024 136.149 15.5024C135.96 15.5024 135.771 15.4709 135.582 15.4394C135.141 15.3449 134.7 15.3133 134.258 15.2818C133.912 15.2818 133.345 15.3133 132.557 15.4079C131.99 15.4709 131.612 15.5024 131.486 15.5024C131.265 15.5024 131.171 15.4079 131.171 15.2188C131.171 15.0613 131.265 14.9668 131.486 14.8722C131.864 14.7462 132.21 14.5256 132.431 14.179C132.841 13.5174 133.219 12.7927 133.502 12.068L136.527 5.10461C136.779 4.53745 136.937 4.15935 137.031 3.9703L138.071 1.85923L138.607 0.819454V0.850963C138.859 0.28381 139.016 0.000234046 139.079 0.000234046C139.205 0.000234046 139.394 0.315319 139.678 0.91398L139.962 1.60717ZM140.371 8.53903L138.922 5.16762C138.575 4.3484 138.323 3.9703 138.197 3.9703C138.103 3.9703 137.945 4.22237 137.724 4.75801L137.504 5.23064L136.212 8.19244L136.086 8.47601C136.023 8.57054 136.023 8.66506 135.991 8.75959C135.991 9.01166 136.244 9.13769 136.779 9.13769H140.056C140.34 9.13769 140.466 9.07467 140.466 8.91713C140.466 8.85411 140.434 8.7911 140.403 8.72808L140.371 8.53903Z" fill="var(--fill-0, #545456)"/>
<path id="Path_22" d="M152.376 12.0364C152.376 13.4228 152.533 14.179 152.88 14.368C153.226 14.4941 153.605 14.5256 153.951 14.5256C156.44 14.5256 158.236 13.8009 159.276 12.32C159.591 11.8789 159.812 11.6583 159.875 11.6583C160.001 11.6583 160.064 11.8158 160.064 12.0994C160.064 13.0132 159.749 13.9269 159.15 14.6201C158.614 15.2818 157.795 15.6284 156.944 15.5969C156.755 15.5969 156.409 15.5654 155.905 15.5338L154.581 15.4708L153.384 15.4078C152.974 15.3763 152.502 15.3763 151.998 15.3763C151.084 15.3763 150.139 15.4393 149.225 15.5338C148.91 15.5654 148.721 15.5969 148.626 15.5969C148.406 15.5969 148.311 15.5023 148.311 15.3133C148.311 15.1873 148.406 15.0927 148.595 15.0297C149.004 14.9352 149.382 14.6516 149.571 14.2735C149.792 13.6748 149.887 13.0447 149.855 12.4145V3.11951C149.855 1.9537 149.351 1.26051 148.374 1.10297L147.681 1.00844C147.397 0.976935 147.271 0.850901 147.271 0.66185C147.24 0.504308 147.366 0.346766 147.523 0.315257C147.555 0.315257 147.586 0.315257 147.618 0.315257C147.712 0.315257 147.838 0.315257 147.933 0.346766C148.028 0.346766 148.185 0.378274 148.374 0.378274L148.847 0.409783C149.288 0.441291 149.634 0.472799 149.855 0.472799C150.202 0.472799 150.769 0.441291 151.556 0.346766C152.155 0.283749 152.722 0.25224 153.321 0.25224C153.762 0.25224 153.983 0.346766 153.983 0.567325C153.983 0.756376 153.825 0.850901 153.51 0.850901C152.754 0.913918 152.407 1.41805 152.407 2.39482L152.376 12.0364Z" fill="var(--fill-0, #545456)"/>
</g>
</svg>
