<svg preserveAspectRatio="none" width="100%" height="100%" overflow="visible" style="display: block;" viewBox="0 0 160.001 37.6618" fill="none" xmlns="http://www.w3.org/2000/svg">
<g id="Frame 2147227756">
<path id="Vector" d="M0.000968933 0.000165976H37.6626V37.6618H0.000968933V0.000165976Z" fill="var(--fill-0, #F26625)"/>
<path id="Vector_2" d="M17.5757 21.3414L11.0493 9.1642H14.0625L17.8287 16.8223C17.8287 16.948 17.9544 17.0737 18.0801 17.1995C18.2059 17.3252 18.2059 17.451 18.3316 17.7009L18.4573 17.8267V17.9524C18.5831 18.2039 18.5831 18.3296 18.7088 18.5811C18.8346 18.7068 18.8346 18.9583 18.9603 19.0826C19.086 18.7053 19.3375 18.4539 19.4618 17.9524C19.5875 17.5752 19.839 17.1995 20.0904 16.8223L23.8566 9.1642H26.6184L20.0919 21.4686V29.2524H17.5817L17.5757 21.3414Z" fill="var(--fill-0, white)"/>
<path id="Vector_3" d="M52.7372 13.2406C54.3239 13.2406 55.701 13.6642 56.7608 14.5129L55.7025 15.7853C54.749 15.1506 53.797 14.727 52.6339 14.727C50.8332 14.727 49.4575 15.6805 48.7166 17.4812C48.2929 18.5395 48.0819 19.9167 48.0819 21.7174C48.0819 23.0945 48.2915 24.2591 48.6118 25.1064C49.459 27.1182 50.8362 28.0702 52.9528 28.0702C54.1173 28.0702 55.1771 27.7529 56.1291 27.0119L57.1874 28.389C55.8103 29.2363 54.3434 29.6614 52.7417 29.6614C50.8362 29.6614 49.248 28.9204 47.9771 27.3322C46.7048 25.8353 46.1764 23.8385 46.1764 21.4046C46.1764 18.9706 46.811 17.0636 48.0819 15.4769C49.2465 14.0998 50.8362 13.2525 52.7417 13.2525L52.7372 13.2406ZM58.7726 23.7232C58.7726 21.8177 59.1963 20.3343 60.1498 19.2775C61.1033 18.2207 62.2679 17.583 63.7498 17.583C65.4443 17.583 66.8184 18.2177 67.7734 19.5948C68.5144 20.6531 68.8317 22.1365 68.8317 23.9358C68.8317 26.0539 68.197 27.7484 67.031 28.8067C66.1542 29.5769 65.0214 29.9922 63.8546 29.9712C62.2679 29.9712 61.1003 29.4413 60.1483 28.2768C59.1948 27.2185 58.7726 25.6303 58.7726 23.7232ZM66.1852 20.6546C65.6553 19.7011 64.9129 19.1577 63.7498 19.1577C62.5867 19.1577 61.8442 19.5814 61.3143 20.4301C60.8907 21.0648 60.7845 22.1246 60.7845 23.4987C60.7845 25.2995 60.994 26.5673 61.5254 27.3113C62.0568 28.0552 62.7978 28.4759 63.8546 28.4759C65.1269 28.4759 65.9727 27.8412 66.3963 26.6751C66.6058 26.0404 66.7136 25.1782 66.7136 24.1334C66.8184 22.5467 66.6088 21.3791 66.1837 20.6397L66.1852 20.6546ZM72.2177 20.8642C72.2177 19.6996 72.1129 18.7461 71.794 18.0201L73.5948 17.5965C73.9121 18.1264 74.0184 18.7611 74.0184 19.291V19.3957C74.442 18.9721 74.8656 18.5485 75.5153 18.2312C76.2563 17.8076 76.8924 17.5965 77.5271 17.5965C78.4806 17.5965 79.3279 18.0201 79.8563 18.7611C79.961 18.9706 80.1736 19.291 80.2799 19.502C81.5522 18.2297 82.7153 17.5965 83.9862 17.5965C84.8334 17.5965 85.5729 17.9138 86.1043 18.4437C86.6342 19.0784 86.9515 19.8209 86.9515 20.6681V29.4548H85.0175V20.7729C85.0175 19.6083 84.4876 19.0784 83.5206 19.0784C82.9907 19.0784 82.3561 19.288 81.8262 19.7131C81.6166 19.9227 81.1915 20.243 80.6616 20.6666L80.452 20.8762V29.4533H78.4402V21.1815C78.4402 20.4406 78.3354 19.9092 78.1229 19.6846C77.8055 19.3673 77.4882 19.261 76.9583 19.261C76.1111 19.261 75.1575 19.7909 73.9945 20.8477V29.5297H72.2192L72.2177 20.8642ZM90.2207 12.8169L92.1262 12.3933C92.3358 13.2406 92.4436 14.1941 92.4436 15.3572V19.2745C93.5019 18.2162 94.6679 17.6878 95.8325 17.6878C97.2096 17.6878 98.3742 18.2177 99.1152 19.2745C99.9624 20.3328 100.388 21.8162 100.388 23.6155C100.388 25.521 99.9639 27.0044 99.1152 28.169C98.2665 29.3336 97.1034 29.8635 95.7262 29.8635C95.1 29.8752 94.4808 29.7295 93.9255 29.4398C93.2908 29.1225 92.8672 28.8052 92.5483 28.3815L92.231 29.6539H90.4303C90.6398 29.124 90.7476 28.157 90.7476 26.6901V15.5682C90.6428 14.2959 90.538 13.3438 90.2177 12.8139L90.2207 12.8169ZM93.2893 20.002C92.972 20.2115 92.6546 20.5319 92.4421 20.8492V26.9146C93.183 27.8681 94.1365 28.2917 95.2862 28.2917C96.2397 28.2917 96.9806 27.9744 97.4042 27.2334C97.9341 26.3862 98.2515 25.2216 98.2515 23.5272C98.2515 22.0303 98.0419 20.9854 97.5105 20.3508C97.0869 19.7161 96.3459 19.3972 95.2862 19.3972C94.6515 19.2925 93.909 19.502 93.2743 20.0319L93.2893 20.002ZM103.139 14.3138C103.139 13.8902 103.244 13.5729 103.562 13.2555C103.881 12.9382 104.197 12.8319 104.621 12.8319C105.044 12.8319 105.362 12.9367 105.679 13.2555C105.996 13.5744 106.103 13.8902 106.103 14.3138C106.103 14.7374 105.998 15.0548 105.679 15.3721C105.36 15.6895 105.044 15.7957 104.621 15.7957C104.197 15.7957 103.88 15.691 103.562 15.3721C103.245 15.0533 103.139 14.7374 103.139 14.3138ZM103.579 29.5491V17.9034L105.484 17.586V29.5521L103.579 29.5491ZM109.599 20.8642C109.599 20.017 109.599 19.4871 109.495 19.2775C109.495 18.9602 109.285 18.6428 109.071 18.1129L110.872 17.583C111.161 18.1384 111.307 18.7575 111.295 19.3838C112.46 18.2192 113.731 17.583 115.002 17.583C115.636 17.583 116.166 17.6878 116.696 18.0066C117.226 18.3255 117.65 18.7476 117.861 19.279C118.07 19.7026 118.178 20.1262 118.178 20.6561V29.5506H116.377V21.6096C116.377 20.6561 116.272 20.0229 115.954 19.7041C115.789 19.5345 115.591 19.4001 115.372 19.309C115.154 19.218 114.919 19.1721 114.683 19.1742C114.259 19.1742 113.624 19.3838 112.988 19.7041C112.4 20.0047 111.864 20.3979 111.4 20.8687V29.5506H109.599V20.8642ZM122.413 20.4406L121.459 19.1682C123.046 18.1099 124.636 17.5815 126.33 17.5815C128.025 17.5815 129.084 18.2162 129.613 19.3823C129.822 19.8059 129.822 20.4406 129.822 21.3941V22.0288L129.717 25.8413V26.3712C129.717 27.0059 129.717 27.4295 129.822 27.7484C129.927 28.172 130.246 28.4893 130.67 28.7019L129.716 29.9742C128.869 29.6569 128.339 29.127 128.129 28.2798C127.071 29.3381 125.905 29.8665 124.74 29.8665C123.576 29.8665 122.622 29.5491 121.896 28.9129C121.262 28.383 120.943 27.5358 120.943 26.4775C120.915 25.8714 121.047 25.2687 121.326 24.7298C121.604 24.1909 122.02 23.7348 122.531 23.4074C123.589 22.6664 125.177 22.3491 127.084 22.3491H127.932V21.5019C127.932 20.5483 127.827 19.9152 127.508 19.7011C127.307 19.4842 127.061 19.3146 126.786 19.2049C126.512 19.0951 126.216 19.0478 125.921 19.0664C125.287 19.0664 124.544 19.276 123.697 19.5963L122.425 20.4436L122.413 20.4406ZM128.026 26.6886L128.131 23.62H127.177C125.483 23.62 124.423 23.9373 123.788 24.5735C123.365 24.9971 123.154 25.6318 123.154 26.479C123.154 27.8561 123.788 28.5971 125.165 28.5971C125.767 28.5627 126.347 28.3678 126.848 28.0326C127.348 27.6975 127.749 27.2344 128.01 26.6916L128.026 26.6886ZM135.861 17.8989H138.825L138.295 19.3957H135.859V26.9146C135.859 27.5493 135.964 27.9729 136.177 28.2917C136.386 28.5013 136.811 28.7154 137.341 28.7154C137.765 28.7154 138.188 28.6106 138.506 28.5058L138.715 29.6704C138.081 29.9877 137.443 30.094 136.703 30.094C134.903 30.094 134.057 29.2467 134.057 27.4475V19.4002H132.469V17.9034H133.966V17.6938C133.966 17.4842 134.07 16.6355 134.175 15.2584V14.9395L136.081 14.5159C135.871 15.7883 135.871 16.9513 135.871 17.9049L135.861 17.8989ZM140.732 23.7217C140.732 21.8162 141.155 20.3328 142.109 19.276C142.956 18.2177 144.227 17.5815 145.709 17.5815C147.403 17.5815 148.777 18.2162 149.732 19.5933C150.473 20.6516 150.791 22.135 150.791 23.9343C150.791 26.0524 150.156 27.7469 148.99 28.8052C148.113 29.5754 146.98 29.9907 145.814 29.9697C144.227 29.9697 143.059 29.4398 142.107 28.2753C141.26 27.217 140.732 25.6288 140.732 23.7217ZM148.25 20.6531C147.721 19.6996 146.978 19.1562 145.815 19.1562C144.652 19.1562 143.909 19.5799 143.38 20.4286C142.956 21.0633 142.85 22.1231 142.85 23.4972C142.85 25.298 143.059 26.5658 143.591 27.3098C144.122 28.0537 144.863 28.4744 145.92 28.4744C147.192 28.4744 148.038 27.8397 148.461 26.6736C148.671 26.0389 148.779 25.1767 148.779 24.1319C148.779 22.5452 148.569 21.3776 148.249 20.6382L148.25 20.6531ZM154.283 20.6501C154.283 19.5918 154.178 18.7446 153.859 18.1084L155.66 17.5785C155.95 18.1339 156.095 18.753 156.084 19.3793V19.5888C157.037 18.3165 158.095 17.6833 159.366 17.6833C159.576 17.6833 159.79 17.6833 160.001 17.7881L159.26 19.7999C159.05 19.6951 158.836 19.6951 158.73 19.6951C158.307 19.6951 157.777 19.7999 157.353 20.1187C156.929 20.4376 156.506 20.7534 156.295 21.177C156.155 21.5863 156.084 22.0156 156.084 22.4479V29.7527H154.283V20.6501Z" fill="var(--fill-0, #F26625)"/>
</g>
</svg>
